<svg width="30" height="30" viewBox="0 0 30 30" fill="none" xmlns="http://www.w3.org/2000/svg">
<path d="M15.0802 29.9275C13.7336 29.907 12.3943 29.7241 11.0914 29.3829C10.1666 29.1421 9.26726 28.8124 8.40598 28.3984C7.28893 27.8474 6.24293 27.1628 5.29093 26.3596C4.76446 25.918 4.27046 25.4391 3.81277 24.9266C3.47219 24.5438 3.15279 24.1427 2.85598 23.7251C2.3527 23.0395 1.90979 22.3115 1.53219 21.5494C1.11205 20.6892 0.782131 19.7878 0.547723 18.8596C0.36788 18.1844 0.227833 17.4992 0.128305 16.8076C-0.0120867 15.7943 -0.036029 14.7682 0.0569459 13.7494C0.197415 12.2724 0.535886 10.8211 1.06326 9.43433C1.53312 8.21605 2.1703 7.06911 2.95646 6.02656C3.51296 5.2783 4.13746 4.5831 4.82199 3.94986C5.40305 3.40942 6.03128 2.92205 6.69918 2.49355C7.20743 2.16733 7.73025 1.8586 8.26471 1.57607C9.06059 1.1601 9.90086 0.83523 10.7696 0.607625C11.6074 0.363603 12.4643 0.190661 13.3312 0.0906344C14.1878 -0.000398946 15.0504 -0.0208562 15.9103 0.0294694C17.363 0.14515 18.7937 0.454693 20.1642 0.949858C21.1196 1.29076 22.0312 1.74341 22.8802 2.2984C23.6166 2.76841 24.314 3.2968 24.9657 3.8785C25.4706 4.32549 25.9386 4.81251 26.3652 5.33481C26.8995 5.98397 27.3844 6.67231 27.8157 7.39403C28.4354 8.43633 28.9153 9.55565 29.2429 10.7232C29.4766 11.5288 29.6485 12.3511 29.7569 13.1829C29.8712 14.1431 29.8932 15.1121 29.8225 16.0766C29.7007 17.4819 29.3962 18.8654 28.9167 20.1921C28.5342 21.2819 28.0045 22.3143 27.3424 23.2605C26.9938 23.7844 26.614 24.2867 26.205 24.7649C25.555 25.5133 24.831 26.194 24.0438 26.7965C23.4692 27.2337 22.868 27.6349 22.2438 27.9979C21.2907 28.5401 20.2769 28.9678 19.2235 29.2722C18.3638 29.5276 17.4839 29.7093 16.5934 29.8154C16.0268 29.8751 15.456 29.8999 15.0802 29.9275ZM14.9739 28.8703C22.5773 28.9096 28.8802 22.5892 28.8264 14.8722C28.7754 7.29937 22.6108 1.01976 14.8938 1.04743C11.221 1.06436 7.70412 2.53439 5.11176 5.1363C2.5194 7.73821 1.06231 11.2604 1.05889 14.9334C1.04141 22.6926 7.40112 28.9431 14.9739 28.8703Z" fill="#202020"/>
<path d="M12.945 15.8141C12.7295 15.8024 12.5693 15.7879 12.4077 15.7864C11.8251 15.7864 11.2426 15.7864 10.6601 15.7864H10.4504C10.1052 15.7762 10.0659 15.7456 10.0645 15.4034C10.0645 14.5296 10.0645 13.6558 10.0645 12.782C10.0645 12.7238 10.0645 12.6655 10.0732 12.6073C10.0734 12.5839 10.0782 12.5608 10.0874 12.5393C10.0966 12.5178 10.11 12.4983 10.1269 12.4821C10.1437 12.4658 10.1635 12.453 10.1853 12.4445C10.2071 12.436 10.2304 12.4319 10.2538 12.4325C10.3586 12.4325 10.4635 12.4223 10.5683 12.4223C11.2091 12.4223 11.8499 12.4223 12.4907 12.4223C12.9392 12.4092 12.9611 12.3786 12.9611 11.9417C12.9611 11.2893 12.9611 10.6311 12.9611 9.98447C12.9614 9.43672 13.0279 8.89102 13.1591 8.35922C13.6077 6.61165 14.9693 5.62136 16.5654 5.4466C17.1904 5.37745 17.8208 5.37159 18.447 5.42912C18.7484 5.45534 19.0528 5.4466 19.3557 5.47136C19.8945 5.5165 19.9091 5.53544 19.912 6.08301C19.912 6.66553 19.912 7.24806 19.912 7.83058C19.9214 8.05973 19.8914 8.2888 19.8232 8.50777C19.7096 8.51796 19.5975 8.53544 19.4839 8.53689C19.0761 8.53689 18.6683 8.53689 18.2606 8.53689C18.0049 8.54143 17.7499 8.5643 17.4975 8.60534C17.252 8.63658 17.0229 8.74517 16.8432 8.91536C16.6636 9.08555 16.5428 9.30852 16.4984 9.55194C16.4626 9.69889 16.4425 9.84927 16.4387 10.0005C16.4387 10.6762 16.4387 11.3519 16.4387 12.0277C16.4437 12.1286 16.4539 12.2292 16.4693 12.3291C16.6978 12.4043 16.9382 12.4369 17.1785 12.4252C17.8776 12.4252 18.5766 12.4252 19.2756 12.4252C19.7416 12.4252 19.762 12.4369 19.7125 12.8956C19.6455 13.532 19.5581 14.167 19.4766 14.8019C19.446 15.0437 19.4154 15.2869 19.3732 15.5301C19.3353 15.7485 19.3033 15.7777 19.0732 15.782C18.6363 15.7908 18.2111 15.782 17.78 15.7908C17.4421 15.7908 17.1043 15.7908 16.7606 15.7908C16.4824 15.7908 16.4445 15.8374 16.4329 16.1228C16.4329 16.2859 16.4329 16.449 16.4329 16.6121C16.4329 19.0587 16.4329 21.5053 16.4329 23.9519C16.4329 24.0568 16.4329 24.1617 16.4329 24.2651C16.4169 24.4704 16.3776 24.5112 16.1824 24.5272C16.1125 24.5272 16.0368 24.5272 15.9727 24.5272C15.1222 24.5272 14.2717 24.5272 13.4212 24.5272C13.3077 24.5272 13.1926 24.5141 13.1009 24.5097C12.9712 24.3641 13.0062 24.2185 13.0062 24.0859C13.0062 23.1539 13.0062 22.2233 12.9975 21.2927C12.9975 20.4553 12.9698 19.6165 12.9698 18.7791C12.9698 18.0218 12.9945 17.266 12.9975 16.5087C12.9945 16.2932 12.9611 16.0748 12.945 15.8141Z" fill="#202020"/>
</svg>
