<svg width="130" height="131" viewBox="0 0 130 131" fill="none" xmlns="http://www.w3.org/2000/svg">
<g clip-path="url(#clip0)">
<path d="M53.47 113.44H19.35V130.04H53.47V113.44Z" fill="#1A4EA2"/>
<path d="M44.5961 27.9425C45.1522 23.4258 41.9416 19.3134 37.4249 18.7572C32.9082 18.201 28.7958 21.4117 28.2396 25.9284C27.6834 30.4451 30.8941 34.5575 35.4108 35.1137C39.9275 35.6699 44.0399 32.4592 44.5961 27.9425Z" stroke="#231F20" stroke-width="3" stroke-miterlimit="10"/>
<path d="M36.4099 42.32V56.47" stroke="#231F20" stroke-width="3" stroke-miterlimit="10"/>
<path d="M23.21 59.07V78.81H49.61V59.07" stroke="#231F20" stroke-width="3" stroke-miterlimit="10"/>
<path d="M12.6799 78.81V53.31C12.6799 47.24 15.9199 42.31 21.9899 42.31H50.8299" stroke="#231F20" stroke-width="3" stroke-miterlimit="10"/>
<path d="M50.83 42.32C56.9 42.32 60.14 47.24 60.14 53.32V78.82" stroke="#231F20" stroke-width="3" stroke-miterlimit="10"/>
<path d="M19.35 102H12.68L7.20998 88.61C7.14189 88.4436 7.11525 88.2631 7.13235 88.0841C7.14946 87.9051 7.2098 87.7329 7.30818 87.5824C7.40656 87.4319 7.54004 87.3075 7.69713 87.22C7.85422 87.1325 8.03022 87.0844 8.20998 87.08H64.59C64.7697 87.0844 64.9458 87.1325 65.1028 87.22C65.2599 87.3075 65.3934 87.4319 65.4918 87.5824C65.5902 87.7329 65.6505 87.9051 65.6676 88.0841C65.6847 88.2631 65.6581 88.4436 65.59 88.61L60.14 102H53.47" stroke="#231F20" stroke-width="3" stroke-miterlimit="10"/>
<path d="M53.4699 130V96.67C53.4713 96.5711 53.4528 96.473 53.4156 96.3814C53.3784 96.2898 53.3232 96.2066 53.2532 96.1367C53.1833 96.0668 53.1001 96.0116 53.0085 95.9743C52.9169 95.9371 52.8188 95.9186 52.7199 95.92H20.0999C20.0011 95.9186 19.9029 95.9371 19.8113 95.9743C19.7197 96.0116 19.6365 96.0668 19.5666 96.1367C19.4967 96.2066 19.4415 96.2898 19.4043 96.3814C19.3671 96.473 19.3486 96.5711 19.3499 96.67V130" stroke="#231F20" stroke-width="3" stroke-miterlimit="10"/>
<path d="M7.12 35.18V9.96H122.08V77.09H71.15" stroke="#231F20" stroke-width="3" stroke-miterlimit="10" stroke-linecap="round"/>
<path d="M123.48 10H5.72995C5.17107 10 4.61773 9.8893 4.1019 9.67423C3.58607 9.45915 3.11797 9.14399 2.72465 8.74695C2.33133 8.34991 2.02059 7.87887 1.81038 7.36104C1.60017 6.8432 1.49466 6.28885 1.49995 5.73V5.73C1.49995 4.60813 1.9456 3.53222 2.73888 2.73894C3.53216 1.94566 4.60808 1.5 5.72995 1.5H123.48C124.602 1.5 125.678 1.94566 126.471 2.73894C127.264 3.53222 127.71 4.60813 127.71 5.73V5.73C127.715 6.28885 127.61 6.8432 127.4 7.36104C127.189 7.87887 126.879 8.34991 126.485 8.74695C126.092 9.14399 125.624 9.45915 125.108 9.67423C124.592 9.8893 124.039 10 123.48 10V10Z" stroke="#231F20" stroke-width="3" stroke-miterlimit="10" stroke-linecap="round"/>
</g>
<defs>
<clipPath id="clip0">
<rect width="129.21" height="130.04" fill="white"/>
</clipPath>
</defs>
</svg>
