<svg width="35" height="24" viewBox="0 0 35 24" fill="none" xmlns="http://www.w3.org/2000/svg">
<g clip-path="url(#clip0)">
<path d="M0 12.0093C0.0179472 11.7805 0.117858 11.5671 0.279797 11.4118C0.441737 11.2565 0.653796 11.1707 0.873663 11.1715H34.1263C34.2978 11.1721 34.4653 11.2253 34.608 11.3247C34.7507 11.424 34.8622 11.565 34.9287 11.73C34.9901 11.8968 35.0043 12.0786 34.9696 12.2535C34.9348 12.4285 34.8525 12.5894 34.7326 12.7168L24.0346 23.8883C23.9551 23.9716 23.8607 24.0377 23.7566 24.0828C23.6526 24.1279 23.5411 24.1511 23.4284 24.1511C23.3158 24.1511 23.2043 24.1279 23.1002 24.0828C22.9962 24.0377 22.9017 23.9716 22.8222 23.8883C22.66 23.7174 22.569 23.4865 22.569 23.2459C22.569 23.0053 22.66 22.7744 22.8222 22.6036L32.0937 12.903H0.873663C0.645009 12.9031 0.42545 12.8095 0.262109 12.6424C0.0987687 12.4753 0.00466639 12.248 0 12.0093H0Z" fill="#231F20"/>
<path d="M22.6261 0.912286C22.6268 0.790523 22.6508 0.670133 22.6967 0.558213C22.7427 0.446293 22.8096 0.345107 22.8935 0.260618C22.9731 0.1773 23.0675 0.111192 23.1716 0.0660842C23.2756 0.0209766 23.3871 -0.00224304 23.4998 -0.00224304C23.6124 -0.00224304 23.7239 0.0209766 23.828 0.0660842C23.932 0.111192 24.0265 0.1773 24.106 0.260618L34.8039 11.4321C34.9661 11.6029 35.0572 11.8338 35.0572 12.0744C35.0572 12.315 34.9661 12.5459 34.8039 12.7168C34.7244 12.8001 34.6299 12.8662 34.5259 12.9113C34.4218 12.9564 34.3103 12.9796 34.1977 12.9796C34.085 12.9796 33.9735 12.9564 33.8695 12.9113C33.7655 12.8662 33.671 12.8001 33.5915 12.7168L22.8935 1.54534C22.8109 1.46368 22.7447 1.36563 22.6988 1.25694C22.6529 1.14824 22.6281 1.03107 22.6261 0.912286Z" fill="#231F20"/>
</g>
<defs>
<clipPath id="clip0">
<rect width="35" height="24" fill="white"/>
</clipPath>
</defs>
</svg>
