<svg width="35" height="23" viewBox="0 0 35 23" fill="none" xmlns="http://www.w3.org/2000/svg">
<g clip-path="url(#clip0)">
<path d="M0 11.5089C0.0179472 11.2896 0.117858 11.0851 0.279797 10.9363C0.441737 10.7875 0.653796 10.7052 0.873663 10.7059H34.1263C34.2978 10.7065 34.4653 10.7576 34.608 10.8528C34.7507 10.948 34.8622 11.0831 34.9287 11.2412C34.9901 11.4011 35.0043 11.5752 34.9695 11.7429C34.9348 11.9106 34.8525 12.0648 34.7325 12.1869L24.0346 22.8929C23.9551 22.9728 23.8607 23.0361 23.7566 23.0793C23.6526 23.1226 23.5411 23.1448 23.4284 23.1448C23.3158 23.1448 23.2043 23.1226 23.1002 23.0793C22.9962 23.0361 22.9017 22.9728 22.8222 22.8929C22.66 22.7292 22.569 22.5079 22.569 22.2773C22.569 22.0467 22.66 21.8255 22.8222 21.6617L32.0937 12.3654H0.873663C0.645009 12.3654 0.42545 12.2757 0.262109 12.1156C0.0987687 11.9555 0.00466639 11.7377 0 11.5089H0Z" fill="#1A4EA2"/>
<path d="M22.626 0.874349C22.6267 0.757659 22.6507 0.642285 22.6966 0.535028C22.7425 0.427772 22.8095 0.330802 22.8934 0.249834C22.9729 0.169987 23.0674 0.106633 23.1714 0.0634051C23.2755 0.0201769 23.387 -0.0020752 23.4996 -0.0020752C23.6123 -0.0020752 23.7238 0.0201769 23.8278 0.0634051C23.9319 0.106633 24.0263 0.169987 24.1059 0.249834L34.8038 10.9558C34.966 11.1196 35.057 11.3408 35.057 11.5714C35.057 11.802 34.966 12.0232 34.8038 12.187C34.7243 12.2668 34.6298 12.3302 34.5258 12.3734C34.4217 12.4166 34.3102 12.4389 34.1976 12.4389C34.0849 12.4389 33.9734 12.4166 33.8694 12.3734C33.7653 12.3302 33.6708 12.2668 33.5913 12.187L22.8934 1.48102C22.8108 1.40276 22.7446 1.3088 22.6987 1.20464C22.6527 1.10047 22.628 0.988185 22.626 0.874349Z" fill="#1A4EA2"/>
</g>
<defs>
<clipPath id="clip0">
<rect width="35" height="23" fill="white"/>
</clipPath>
</defs>
</svg>
