<svg width="36" height="23" viewBox="0 0 36 23" fill="none" xmlns="http://www.w3.org/2000/svg">
<g clip-path="url(#clip0)">
<path d="M0 11.509C0.0184074 11.2897 0.12088 11.0852 0.286972 10.9364C0.453063 10.7876 0.67056 10.7053 0.896064 10.7061H35.0014C35.1772 10.7066 35.349 10.7577 35.4954 10.8529C35.6417 10.9481 35.7561 11.0832 35.8243 11.2414C35.8873 11.4012 35.9019 11.5754 35.8662 11.7431C35.8305 11.9108 35.7461 12.0649 35.6231 12.1871L24.6509 22.893C24.5694 22.9729 24.4725 23.0362 24.3658 23.0795C24.2591 23.1227 24.1447 23.1449 24.0292 23.1449C23.9136 23.1449 23.7992 23.1227 23.6925 23.0795C23.5858 23.0362 23.4889 22.9729 23.4074 22.893C23.241 22.7293 23.1476 22.508 23.1476 22.2774C23.1476 22.0468 23.241 21.8256 23.4074 21.6618L32.9166 12.3655H0.896064C0.661548 12.3655 0.436359 12.2759 0.26883 12.1157C0.101301 11.9556 0.00478604 11.7378 0 11.509H0Z" fill="#ED1C24"/>
<path d="M23.2063 0.874227C23.207 0.757537 23.2316 0.642163 23.2787 0.534906C23.3258 0.42765 23.3945 0.33068 23.4806 0.249712C23.5622 0.169865 23.6591 0.106511 23.7657 0.063283C23.8724 0.0200549 23.9868 -0.00219727 24.1024 -0.00219727C24.2179 -0.00219727 24.3323 0.0200549 24.439 0.063283C24.5457 0.106511 24.6426 0.169865 24.7241 0.249712L35.6963 10.9557C35.8627 11.1194 35.9561 11.3407 35.9561 11.5713C35.9561 11.8019 35.8627 12.0231 35.6963 12.1869C35.6148 12.2667 35.5179 12.3301 35.4112 12.3733C35.3045 12.4165 35.1901 12.4388 35.0746 12.4388C34.9591 12.4388 34.8447 12.4165 34.738 12.3733C34.6313 12.3301 34.5344 12.2667 34.4528 12.1869L23.4806 1.4809C23.3959 1.40264 23.3279 1.30868 23.2808 1.20452C23.2337 1.10035 23.2084 0.988063 23.2063 0.874227Z" fill="#ED1C24"/>
</g>
<defs>
<clipPath id="clip0">
<rect width="35.8974" height="23" fill="white"/>
</clipPath>
</defs>
</svg>
