<svg width="51" height="50" viewBox="0 0 51 50" fill="none" xmlns="http://www.w3.org/2000/svg">
<path d="M0.985901 17.1985L0.921664 17.2768C0.664404 18.0764 0.448947 18.8882 0.276123 19.7091C0.465398 18.8622 0.699084 18.0252 0.976261 17.2016" fill="#DCDDDE"/>
<path d="M0.985535 17.1985C0.70836 18.0221 0.474673 18.859 0.2854 19.706C0.478097 18.8472 0.711477 18.0113 0.985535 17.1985Z" fill="#DCDDDE"/>
<path d="M40.6172 4.9837C40.6172 5.00251 40.6172 5.02132 40.6172 5.04012C41.4939 5.6831 42.3275 6.38038 43.1126 7.12764L43.4113 7.41914L43.4306 7.36272C42.5579 6.50395 41.6219 5.70881 40.63 4.9837" fill="#DCDDDE"/>
<path d="M40.6042 5.04016C41.481 5.68314 42.3145 6.38041 43.0997 7.12767C42.3145 6.38041 41.481 5.68314 40.6042 5.04016Z" fill="#DCDDDE"/>
<path d="M25.2849 0H25.1886C23.0127 0.00340891 20.8463 0.280473 18.7429 0.824348C19.4591 0.639418 20.1849 0.482698 20.9172 0.360456L21.0906 0.332247C22.0186 0.18078 22.9547 0.0813613 23.8943 0.0344784L24.3247 0.015672C24.3261 0.0313119 24.3261 0.0470482 24.3247 0.0626881C24.6234 0.0626881 24.9188 0.0626881 25.2175 0.0626881C25.5933 0.0626881 25.9722 0.0626881 26.348 0.0877633L26.2388 0.0282096C25.9176 0.0282096 25.5965 0.00940321 25.2753 0.00940321" fill="#DCDDDE"/>
<path d="M25.24 0.0532837C24.9413 0.0532837 24.6458 0.0532837 24.3472 0.0532837C24.6458 0.0532837 24.9413 0.0532837 25.24 0.0532837C25.6158 0.0532837 25.9947 0.0532837 26.3737 0.0788604C25.9979 0.0788604 25.619 0.0532837 25.2432 0.0532837" fill="#DCDDDE"/>
<path d="M20.9299 0.363611C20.1977 0.485853 19.4718 0.642573 18.7557 0.827503C18.1776 0.97482 17.6027 1.14094 17.0375 1.33214C17.0156 1.35768 16.992 1.38176 16.9668 1.40423C18.2638 0.969679 19.5945 0.63741 20.946 0.410627C20.946 0.394955 20.946 0.379283 20.9299 0.363611ZM23.9071 0.0501709C22.9671 0.10224 22.031 0.206892 21.1033 0.363611C22.0307 0.216112 22.9656 0.117756 23.9039 0.0689773" fill="#DCDDDE"/>
<path d="M20.9461 0.410583C19.5975 0.637428 18.2699 0.97077 16.9766 1.40732C18.2734 0.971356 19.6041 0.638032 20.9557 0.410583" fill="#DCDDDE"/>
<path d="M24.3342 0.0223999L23.9039 0.0412063C22.9655 0.0884321 22.0305 0.186797 21.1034 0.33584L20.9299 0.36405C20.9299 0.379722 20.9299 0.395394 20.946 0.411066C22.0758 0.221973 23.2175 0.107829 24.3631 0.069416C24.3631 0.069416 24.3631 0.0380719 24.3631 0.0223999" fill="#DCDDDE"/>
<path d="M24.3632 0.0689697C23.223 0.108087 22.0867 0.22223 20.9622 0.41062C22.0867 0.22223 23.223 0.108087 24.3632 0.0689697Z" fill="#DCDDDE"/>
<path d="M48.7328 14.9825H48.6814C49.14 16.0005 49.5273 17.0477 49.8408 18.1169H49.889C49.5761 17.048 49.1898 16.0008 48.7328 14.9825Z" fill="#DCDDDE"/>
<path d="M5.38582 9.31854L5.26699 9.38437C3.33659 11.7426 1.86298 14.4246 0.918457 17.2987L1.00196 17.1984C1.9646 14.3322 3.45573 11.6617 5.40188 9.31854" fill="#DCDDDE"/>
<path d="M5.38574 9.31854C3.44019 11.6621 1.94914 14.3325 0.98584 17.1984C1.94989 14.3337 3.44089 11.6645 5.38574 9.32168" fill="#DCDDDE"/>
<path d="M14.4072 2.36334C13.385 2.83357 12.3948 3.36752 11.4429 3.96189C11.4429 3.96189 11.4589 3.9901 11.4653 4.00577C12.4166 3.41021 13.4068 2.87621 14.4297 2.40722L14.4072 2.36334Z" fill="#DCDDDE"/>
<path d="M14.4328 2.40723C13.41 2.87621 12.4197 3.41021 11.4685 4.00577C12.4197 3.41021 13.41 2.87621 14.4328 2.40723Z" fill="#DCDDDE"/>
<path d="M45.4827 9.6571L45.4409 9.68531C46.1349 10.5555 46.7689 11.4696 47.339 12.4216L47.3807 12.3934C46.8088 11.4425 46.1748 10.5285 45.4827 9.6571Z" fill="#DCDDDE"/>
<path d="M6.98828 42.5182C7.5182 43.0479 8.07702 43.5525 8.65832 44.0352C8.36606 43.7908 8.07702 43.54 7.79761 43.2861C7.52141 43.0354 7.25163 42.7783 6.98828 42.515" fill="#DCDDDE"/>
<path d="M20.1367 49.4452L20.1143 49.4922C20.201 49.511 20.2845 49.533 20.3712 49.5486C21.4321 49.7472 22.5047 49.8801 23.5828 49.9467L23.6021 49.9028C22.5238 49.8328 21.4512 49.6967 20.3905 49.4953L20.1432 49.4452" fill="#DCDDDE"/>
<path d="M8.65846 44.0384C9.28794 44.5608 9.9431 45.055 10.624 45.5209L10.7332 45.5366L10.3638 45.2827C10.0812 45.0853 9.805 44.8815 9.53523 44.6747L9.50311 44.7123C9.21728 44.4929 8.93466 44.2703 8.65846 44.0384ZM5.63634 41.0607C5.64546 41.0675 5.6531 41.076 5.65882 41.0858C5.6531 41.076 5.64546 41.0675 5.63634 41.0607ZM5.17065 40.4996C5.32053 40.6877 5.47468 40.8726 5.63312 41.0544C5.47468 40.8726 5.32053 40.6877 5.17065 40.4996Z" fill="#DCDDDE"/>
<path d="M9.53516 44.6747C9.80493 44.8815 10.0811 45.0853 10.3638 45.2827C10.0811 45.0853 9.80493 44.8815 9.53516 44.6747Z" fill="#DCDDDE"/>
<path d="M7.77197 43.1984C7.77197 43.2297 7.77197 43.2579 7.79767 43.2893C8.07708 43.5431 8.36612 43.7939 8.65838 44.0384C8.95063 44.2829 9.21719 44.4929 9.50303 44.7123L9.53514 44.6747C8.92066 44.2066 8.33293 43.7145 7.77197 43.1984Z" fill="#DCDDDE"/>
<path d="M7.77197 43.1984C8.33507 43.7166 8.9228 44.2087 9.53514 44.6747C8.92066 44.2066 8.33293 43.7145 7.77197 43.1984Z" fill="#DCDDDE"/>
<path d="M49.1215 34.1117L49.0476 34.1712C48.1944 36.2847 47.0479 38.2737 45.6401 40.0827L45.7429 40.0389C47.1398 38.2221 48.2764 36.228 49.1215 34.1117Z" fill="#DCDDDE"/>
<path d="M3.60342 38.2397C3.60342 38.271 3.60342 38.3024 3.60342 38.3369C4.08585 39.0828 4.60791 39.8037 5.16747 40.4965C5.31735 40.6845 5.4715 40.8695 5.62994 41.0512C5.63907 41.0581 5.64671 41.0666 5.65243 41.0763C6.08064 41.5674 6.52384 42.0438 6.98203 42.5056C7.24538 42.7689 7.51516 43.0259 7.79135 43.2767C7.79135 43.2453 7.77209 43.2171 7.76567 43.1858C6.16147 41.7172 4.75818 40.0526 3.59058 38.2334L3.60342 38.2397ZM50.7916 26.4199C50.7246 27.5471 50.5797 28.6686 50.358 29.7768C50.1615 30.7682 49.903 31.7469 49.584 32.7075C49.584 32.7388 49.6001 32.767 49.6065 32.7984C49.9372 31.8122 50.2064 30.8073 50.4126 29.7893C50.626 28.7066 50.7666 27.6114 50.8333 26.5108L50.7916 26.4261" fill="#DCDDDE"/>
<path d="M3.60327 38.2397C4.77088 40.0589 6.17417 41.7235 7.77836 43.1921C6.17417 41.7235 4.77088 40.0589 3.60327 38.2397Z" fill="#DCDDDE"/>
<path d="M34.9774 48.088C32.126 49.2321 29.0859 49.8629 26.0042 49.9499L25.8757 50C28.9618 49.9292 32.0089 49.3111 34.8682 48.1758L34.9678 48.088" fill="#DCDDDE"/>
<path d="M11.9985 26.5609C12.5973 31.8828 11.1052 37.2282 7.82346 41.5183C8.97918 41.8806 10.1642 42.1469 11.3659 42.3144C13.399 39.316 14.7221 35.9132 15.2391 32.3533C13.893 30.576 12.8027 28.6271 11.9985 26.5609ZM15.117 25.3072C15.178 25.4608 15.2358 25.6206 15.3001 25.7648C15.284 25.652 15.2712 25.5422 15.2551 25.4325L15.117 25.3072ZM8.14462 11.5973L8.03864 11.6443C7.03087 12.1379 6.06441 12.708 5.14819 13.3494C6.63163 14.6721 7.91613 16.1927 8.96358 17.8661C9.44532 18.0354 9.91957 18.2182 10.3863 18.4146C10.3698 17.4993 10.4041 16.5837 10.4891 15.672C10.5308 15.252 10.579 14.8383 10.64 14.4183C10.351 14.0359 10.0491 13.6608 9.73436 13.293C9.23014 12.7006 8.69702 12.1458 8.14462 11.6067" fill="#ED1C24"/>
<path d="M21.9124 38.4372C22.015 39.3499 22.0568 40.2681 22.0376 41.1861C22.9759 40.8417 23.8881 40.4332 24.7675 39.9636C23.7824 39.5167 22.8286 39.0068 21.9124 38.4372ZM14.5257 23.5551C14.6927 24.1412 14.8886 24.7242 15.107 25.3009L15.2451 25.4263C17.6467 27.6389 19.5006 30.3562 20.6663 33.372C21.974 34.5588 23.4296 35.5803 24.9987 36.4124C24.2409 32.2857 22.3971 28.4222 19.6482 25.2006C19.3142 24.8099 18.9695 24.4285 18.614 24.0566C18.2222 24.0566 17.8304 24.0158 17.4354 23.9782C16.4644 23.8911 15.4994 23.7498 14.5449 23.5551H14.5257ZM8.40434 17.6843C9.04905 18.0705 9.71366 18.4241 10.3955 18.7437V18.4303C9.93093 18.2318 9.45668 18.0489 8.9728 17.8818L8.41398 17.6937L8.40434 17.6843ZM1.62464 16.465C1.40625 16.7064 1.19428 16.9509 0.982319 17.1985C0.706212 18.0221 0.473601 18.8591 0.2854 19.706H0.410653C1.08081 19.706 1.75418 19.7363 2.43076 19.7969C3.98876 19.9326 5.52735 20.2311 7.02014 20.6871C5.02913 19.5353 3.21303 18.1174 1.62464 16.4744V16.4556" fill="#ED1C24"/>
<path d="M20.1367 49.4452L20.384 49.4953C21.4448 49.6967 22.5174 49.8328 23.5956 49.9028C22.5174 49.8328 21.4448 49.6967 20.384 49.4953L20.1367 49.4452Z" fill="#ED1C24"/>
<path d="M25.2592 43.4084C24.0942 43.9558 22.8873 44.4137 21.6494 44.7781C21.3305 46.3853 20.8229 47.9514 20.1367 49.4452L20.384 49.4954C21.4447 49.6967 22.5174 49.8328 23.5956 49.9028C24.4521 47.8225 25.0118 45.6373 25.2592 43.4084Z" fill="#ED1C24"/>
<path d="M43.0996 7.12762L43.3983 7.41913L43.0996 7.12762Z" fill="#231F20"/>
<path d="M7.0205 20.6871C7.78198 21.1292 8.56788 21.53 9.37461 21.8876C9.43884 21.8103 9.50628 21.7319 9.57694 21.6525C8.7464 21.2787 7.89256 20.9562 7.0205 20.6871ZM32.4532 16.7503C28.7773 19.379 24.3373 20.7934 19.7802 20.7874C19.1122 20.7874 18.4378 20.7592 17.7633 20.6965C17.0889 20.6338 16.4787 20.5555 15.8364 20.4426C15.5794 20.6244 15.3257 20.8125 15.0752 21.0068C16.3489 21.9098 17.5318 22.9289 18.608 24.0503C18.9966 24.0503 19.382 24.0754 19.7674 24.0754C25.5063 24.0818 31.0692 22.1417 35.5042 18.5871C35.1766 18.1169 34.833 17.6593 34.4733 17.2142C33.8053 17.0293 33.1276 16.8725 32.4404 16.7503H32.4532ZM4.0337 14.2052C3.17221 14.8966 2.3669 15.6522 1.625 16.4651C1.99755 16.4651 2.37009 16.4964 2.74264 16.5309C4.66904 16.7024 6.56886 17.0894 8.4047 17.6843C6.79781 16.7165 5.32823 15.5468 4.0337 14.2052ZM40.6043 5.04016C39.9542 7.4821 38.8599 9.79017 37.3734 11.8544C37.5243 12.196 37.6656 12.5408 37.7973 12.8856C39.0228 12.631 40.2232 12.2723 41.3847 11.8136C42.2009 10.4198 42.8723 8.94972 43.3887 7.42544L43.09 7.13394C42.3049 6.38668 41.4714 5.68941 40.5946 5.04643" fill="#231F20"/>
<path d="M15.0688 21.0162C14.7476 21.2669 14.4265 21.5271 14.1214 21.7967C14.2327 22.3859 14.3708 22.9721 14.5357 23.5551C15.4901 23.7498 16.4552 23.8911 17.4261 23.9782C17.8211 24.0158 18.213 24.0409 18.6048 24.0566C17.5271 22.9376 16.3443 21.9197 15.072 21.0162H15.0688ZM1.625 16.465V16.4838C3.21471 18.1227 5.03068 19.5374 7.02051 20.6871C7.89717 20.955 8.75536 21.2775 9.58979 21.6525C9.91095 21.292 10.2321 20.9441 10.5533 20.6024C10.4858 19.9756 10.4377 19.3487 10.4184 18.7218C9.73591 18.4045 9.07124 18.0519 8.42719 17.6655C6.59185 17.0688 4.69181 16.6817 2.76512 16.5121C2.39258 16.4776 2.02003 16.4619 1.64748 16.4462" fill="#230000"/>
<path d="M25.4006 40.2426C25.4242 41.2997 25.377 42.3572 25.2593 43.4083C26.4913 42.832 27.6729 42.1579 28.792 41.3929C27.6408 41.0866 26.513 40.7022 25.4166 40.2426H25.4006ZM35.88 19.1199C36.0408 20.5379 36.0559 21.968 35.925 23.3889C35.675 26.1457 34.8673 28.8267 33.5487 31.2768C32.23 33.7269 30.4266 35.8975 28.2428 37.663L28.124 37.757C29.4017 38.1956 30.719 38.5157 32.0582 38.713C35.5467 35.3329 37.9238 31.0149 38.8861 26.3102C38.5052 24.4866 37.8789 22.7202 37.0234 21.0569C36.6816 20.3897 36.3031 19.741 35.8897 19.1136L35.88 19.1199ZM25.24 0.0532837C24.9413 0.0532837 24.6458 0.0532837 24.3472 0.0532837C24.6942 1.22473 25.1444 2.36468 25.6928 3.46038C29.0228 5.45349 31.7391 8.28758 33.5548 11.6631C33.9831 11.9954 34.3899 12.3422 34.7753 12.7037C35.0964 12.8761 35.4176 13.0391 35.7644 13.1927C35.9668 13.1708 36.1723 13.1457 36.3746 13.1175C36.7258 12.6996 37.0587 12.2733 37.3734 11.8386C35.1566 6.82894 31.2839 2.68852 26.3737 0.0783589C25.9947 0.0783589 25.6158 0.0532837 25.24 0.0532837Z" fill="#231F20"/>
<path d="M7.34155 41.3741C7.38009 41.5778 7.42184 41.7816 7.46681 41.9822C7.58885 41.8359 7.70768 41.6855 7.82329 41.5308C7.66271 41.4807 7.50213 41.4305 7.34155 41.3741ZM22.0507 41.2017C19.6332 42.0903 17.0706 42.5437 14.4874 42.5401C13.8151 42.5401 13.1406 42.5098 12.4641 42.4492C12.0979 42.4147 11.7382 42.374 11.3785 42.3238C10.8194 43.1491 10.208 43.9395 9.54792 44.6903C9.8177 44.8972 10.0939 45.1009 10.3765 45.2984L10.7459 45.5523C14.3984 46.0902 18.1277 45.8311 21.6653 44.7937C21.8974 43.6091 22.0274 42.4076 22.0539 41.2017" fill="#231F20"/>
<path d="M7.81059 41.5152C7.69497 41.6698 7.57614 41.8203 7.4541 41.9665C7.54617 42.3844 7.65322 42.7951 7.77526 43.1983C8.33836 43.7166 8.92608 44.2087 9.53843 44.6746C10.1985 43.9238 10.8099 43.1334 11.369 42.3082C10.1629 42.1438 8.97339 41.8785 7.8138 41.5152" fill="#230000"/>
<path d="M24.7679 39.9636C23.8885 40.4332 22.9763 40.8417 22.038 41.186C22.0115 42.3919 21.8815 43.5934 21.6494 44.7781C22.8873 44.4137 24.0942 43.9557 25.2592 43.4083C25.377 42.3572 25.4242 41.2997 25.4006 40.2426C25.1886 40.1517 24.9766 40.0608 24.7582 39.9636" fill="#230000"/>
<path d="M37.3733 11.8543C37.05 12.291 36.7171 12.7173 36.3745 13.1331C36.8498 13.0673 37.338 12.9858 37.7972 12.8855C37.6656 12.5407 37.5243 12.196 37.3733 11.8543Z" fill="#231F20"/>
<path d="M14.1213 21.7966C13.1086 22.6817 12.1859 23.6599 11.3657 24.7179C11.5488 25.3448 11.7607 25.9716 12.008 26.5609C12.8127 28.6249 13.903 30.5716 15.2485 32.347C15.5376 32.7294 15.8395 33.1024 16.1542 33.4723C17.8059 35.4096 19.7561 37.0846 21.9351 38.4372C22.8536 39.0049 23.8083 39.5148 24.7934 39.9636L25.4357 40.2426C26.5319 40.7027 27.6598 41.0871 28.8111 41.3929C30.9565 41.9593 33.1693 42.246 35.3917 42.2455H35.6743C36.3962 41.1761 37.0175 40.0452 37.5306 38.8666C36.8198 38.9355 36.1068 38.97 35.3917 38.97C34.7205 38.97 34.0461 38.9418 33.3684 38.8791C32.9284 38.8415 32.4916 38.7882 32.0581 38.7224C27.8036 38.1056 23.8395 36.2482 20.6858 33.3939C19.9944 32.768 19.3454 32.099 18.7428 31.391C17.3054 29.7071 16.147 27.814 15.3095 25.7804L15.1265 25.3228C14.9124 24.7461 14.7186 24.1641 14.5452 23.577C14.3718 22.9898 14.2337 22.4036 14.1309 21.8186L14.1213 21.7966ZM15.5311 9.5505C14.2127 9.68038 12.9096 9.93012 11.6387 10.2965C11.1843 11.6396 10.8501 13.0187 10.6399 14.4182C10.5789 14.8288 10.5307 15.2457 10.4921 15.672C10.4041 16.5867 10.3687 17.5054 10.3862 18.424V18.7374C10.4054 19.3643 10.4504 19.9912 10.521 20.6181C11.5186 19.6108 12.6039 18.69 13.7648 17.8661C13.7714 15.0018 14.3734 12.1686 15.5344 9.53797L15.5311 9.5505ZM20.9459 0.410583C19.5972 0.637048 18.2696 0.970398 16.9764 1.40732C16.3254 2.09494 15.7163 2.81918 15.1522 3.57633C15.7378 4.48086 16.3939 5.34013 17.1145 6.14654H17.4196C18.5265 4.53352 19.857 3.07787 21.3731 1.82106C21.2157 1.35404 21.0744 0.880744 20.9459 0.410583Z" fill="#F5CE00"/>
<path d="M49.0476 34.165C48.1944 36.2784 47.0478 38.2675 45.6401 40.0765C47.0478 38.2675 48.1944 36.2784 49.0476 34.165Z" fill="#F5CE00"/>
<path d="M49.0475 34.165C46.8001 35.9764 44.1983 37.3223 41.4007 38.1206C40.9666 39.4096 40.4241 40.6613 39.7788 41.8631C41.8026 41.509 43.7736 40.911 45.6464 40.0828C47.0524 38.2715 48.1968 36.2803 49.0475 34.165Z" fill="#F5CE00"/>
<path d="M34.7753 12.7194C34.968 12.8949 35.1542 13.0705 35.3405 13.2523L35.7644 13.2084C35.4433 13.0548 35.0996 12.8949 34.7753 12.7194ZM27.9924 11.9734C28.3499 12.2994 28.716 12.6129 29.0907 12.9138C29.3348 12.9608 29.5789 13.0078 29.823 13.0454C29.2342 12.6588 28.624 12.2994 27.9924 11.9672V11.9734ZM24.3632 0.0689697C23.2231 0.109632 22.0869 0.223764 20.9622 0.41062C21.0874 0.883915 21.2319 1.35094 21.3893 1.8211C21.7624 2.95132 22.2196 4.05339 22.7574 5.11849C23.0786 5.7203 23.3998 6.30643 23.753 6.8769C25.9423 7.41144 28.0478 8.23169 30.0125 9.31546C28.2823 7.67116 26.8481 5.75433 25.7699 3.64532L25.6832 3.47607C25.1436 2.37954 24.702 1.23961 24.3632 0.0689697Z" fill="white"/>
<path d="M48.6814 14.9918C49.1399 16.0099 49.5273 17.0571 49.8408 18.1262C49.5273 17.0571 49.1399 16.0099 48.6814 14.9918Z" fill="white"/>
<path d="M48.6816 14.9919C47.5058 15.186 46.3155 15.2835 45.1231 15.2834C44.1108 15.2837 43.0998 15.2135 42.0978 15.0733C41.3612 15.3429 40.6183 15.578 39.8689 15.7786C41.4337 16.5516 42.9107 17.4835 44.2752 18.5588C44.5611 18.5588 44.8469 18.5588 45.1327 18.5588C46.7156 18.5549 48.2943 18.4027 49.8474 18.1043C49.5339 17.0352 49.1465 15.988 48.688 14.9699" fill="white"/>
<path d="M22.0123 13.97C20.4102 14.3945 18.8555 14.9741 17.3715 15.7002C16.1097 16.3231 14.9033 17.0476 13.7649 17.8661C12.615 18.6925 11.5405 19.6143 10.5533 20.6212C10.2321 20.9629 9.8949 21.3108 9.58979 21.6712C9.51914 21.7507 9.45169 21.829 9.38746 21.9063C5.4947 26.4866 3.43921 32.291 3.60336 38.2397C4.77097 40.0589 6.17426 41.7234 7.77845 43.1921C7.65855 42.7846 7.5515 42.374 7.45729 41.9602C7.41233 41.7596 7.37058 41.5559 7.33204 41.3522C6.78594 38.4569 6.86282 35.4824 7.55781 32.6176C8.25279 29.7529 9.55068 27.0605 11.369 24.7116C12.1892 23.6537 13.112 22.6754 14.1246 21.7904C14.4297 21.5208 14.7476 21.2606 15.0688 21.0099C15.3193 20.8156 15.573 20.6275 15.8299 20.4457C18.1953 18.7592 20.8886 17.5618 23.7448 16.9269C26.601 16.292 29.56 16.2329 32.4404 16.7534C33.1276 16.8756 33.8053 17.0323 34.4733 17.2173H34.4958C34.3256 17.0104 34.1489 16.8098 33.9723 16.6092C33.7732 16.6092 33.5773 16.6092 33.3782 16.6092C30.6886 16.6076 28.0167 16.1843 25.4648 15.3554C24.2817 14.9706 23.1289 14.5023 22.0155 13.9543" fill="#1B4EA2"/>
<path d="M50.7915 26.4199C50.6616 28.5508 50.2559 30.6571 49.584 32.6887C49.9026 31.7343 50.161 30.7619 50.358 29.7768C50.5794 28.6707 50.7242 27.5513 50.7915 26.4261" fill="#1B4EA2"/>
<path d="M39.8689 15.7786C39.2265 15.9499 38.5842 16.0951 37.9419 16.2142C38.7321 17.2814 39.4324 18.4093 40.0359 19.5869C40.0495 19.61 40.0614 19.6341 40.0712 19.659C44.8805 22.6137 48.3021 27.3 49.5936 32.7012C50.2655 30.6697 50.6712 28.5634 50.8012 26.4324C48.4096 21.845 44.5856 18.1184 39.8817 15.7911" fill="#1B4EA2"/>
<path d="M13.1227 6.55093C10.8342 6.96937 8.61702 7.6984 6.53567 8.7168C6.14706 8.908 5.76809 9.1086 5.39233 9.3186C3.44694 11.6611 1.95589 14.3304 0.992432 17.1954C2.91805 14.8806 5.32664 12.9926 8.05796 11.6569C9.21077 11.0938 10.4123 10.6312 11.6485 10.2746C12.9194 9.90823 14.2226 9.65848 15.541 9.52861L15.7176 9.5098C14.7807 8.59287 13.9215 7.60334 13.1484 6.55093H13.1227ZM17.7024 6.14032H17.4423H17.1372C18.3383 7.501 19.7159 8.70322 21.2352 9.71667C22.3486 9.90082 23.4459 10.168 24.5174 10.5159C25.7181 10.9032 26.8819 11.3919 27.9956 11.9766C28.6251 12.3088 29.2342 12.6682 29.823 13.0548C30.9957 13.2473 32.1827 13.3437 33.3718 13.3432C34.0291 13.3432 34.6854 13.3139 35.3406 13.2554C35.1543 13.0768 34.968 12.8981 34.7753 12.7226C34.3792 12.3632 33.9724 12.0163 33.5549 11.6819C29.0723 8.10419 23.461 6.14767 17.6703 6.14345" fill="white"/>
<path d="M34.9776 48.0849C32.1279 49.2368 29.0875 49.874 26.0044 49.9655C29.0861 49.8785 32.1262 49.2477 34.9776 48.1037" fill="white"/>
<path d="M37.9323 16.2143C36.6245 16.4515 35.2991 16.5847 33.9692 16.6123C34.1458 16.8129 34.3225 17.0135 34.4927 17.2204C36.6767 19.8652 38.1799 22.9821 38.8766 26.3102C39.6262 29.9172 39.3892 33.6534 38.1893 37.1427C37.9901 37.7257 37.7685 38.2993 37.5212 38.8572C37.0004 40.0399 36.3705 41.174 35.6392 42.2455C33.5655 45.2702 30.7196 47.715 27.3822 49.3386C26.9293 49.5612 26.4701 49.7586 26.0044 49.9655C29.0875 49.874 32.1279 49.2368 34.9776 48.0849C36.911 46.2768 38.5323 44.1758 39.779 41.8631C40.4262 40.6635 40.9708 39.4139 41.4073 38.1269C43.4781 32.0399 42.9966 25.4006 40.0681 19.659C40.0582 19.6341 40.0464 19.61 40.0327 19.5869C39.4293 18.4093 38.729 17.2814 37.9388 16.2143" fill="white"/>
<path d="M45.4409 9.6853C46.1341 10.556 46.7682 11.4701 47.339 12.4216C46.7682 11.4701 46.1341 10.556 45.4409 9.6853Z" fill="#DB4334"/>
<path d="M14.4328 2.40723C13.4099 2.87621 12.4197 3.41021 11.4685 4.00577C11.9655 4.88662 12.5179 5.73662 13.1225 6.55091C13.8956 7.60332 14.7548 8.59285 15.6918 9.50978C17.5411 11.3135 19.6723 12.8191 22.0058 13.97C23.1217 14.514 24.2766 14.9781 25.4615 15.3586C28.0135 16.1875 30.6853 16.6108 33.3749 16.6123C33.574 16.6123 33.7699 16.6123 33.969 16.6123C35.2992 16.5816 36.6246 16.4453 37.9322 16.2049C38.5745 16.0858 39.2168 15.9405 39.8591 15.7692C40.6137 15.5706 41.3576 15.3352 42.088 15.0639C42.911 14.7619 43.7172 14.4177 44.5031 14.0327C45.4804 13.5533 46.4245 13.012 47.3293 12.4122C46.7593 11.4602 46.1252 10.5461 45.4313 9.67591C44.6509 10.2044 43.8355 10.6819 42.9904 11.1052C42.4605 11.3622 41.9242 11.6004 41.3846 11.8136C40.2201 12.2728 39.0164 12.6315 37.7876 12.8855C37.3155 12.9858 36.8402 13.0673 36.3649 13.1332C36.1626 13.1614 35.957 13.1864 35.7547 13.2084L35.3308 13.2523C34.6756 13.3108 34.0193 13.34 33.362 13.34C32.1761 13.3402 30.9923 13.2437 29.8228 13.0517L29.0906 12.92C28.2214 12.7471 27.3635 12.5242 26.5213 12.2524C24.6486 11.6474 22.8698 10.7942 21.235 9.71665C19.7048 8.70732 18.3163 7.50712 17.1049 6.14657C16.3843 5.34016 15.7283 4.48089 15.1426 3.57636C14.8953 3.1971 14.6576 2.8053 14.4328 2.40723Z" fill="#DB4334"/>
</svg>
