<svg width="1440" height="206" viewBox="0 0 1440 206" fill="none" xmlns="http://www.w3.org/2000/svg">
<g clip-path="url(#clip0)">
<path d="M1089.19 418.189C1095.42 417.832 1101.55 416.511 1107.37 414.274C1133.24 404.232 1146.85 377.1 1148.96 331.32C1150.79 291.825 1144.23 244.322 1137.88 198.382C1132.68 160.678 1127.75 125.076 1128.13 97.7672C1128.51 68.657 1134.93 52.8577 1147.75 49.4663C1160.79 46.0175 1176.05 57.5017 1197.19 73.3364C1226.71 95.4981 1267.15 125.85 1333.6 141.412C1396.62 156.162 1468.67 153.932 1547.75 134.761L1545.71 129.828C1468.15 148.627 1397.6 150.845 1336.04 136.426C1271.25 121.247 1231.5 91.4115 1202.47 69.6135C1179.52 52.3895 1162.94 39.9505 1145.5 44.5505C1129.16 48.883 1121.35 65.8207 1120.92 97.8643C1120.55 125.453 1125.48 161.195 1130.71 199.028C1143.02 288.209 1156.98 389.22 1104.14 409.672C1069.19 423.238 1019.97 395.078 930.627 343.959C911.603 333.064 890.028 320.726 866.698 307.728C721.584 226.913 596.249 157.116 483.181 111.524C358.576 61.2936 262.678 46.941 181.366 66.3485C135.712 77.2291 91.0715 99.5918 55.5095 129.328C18.6145 160.17 -5.40436 196.805 -12.1264 232.466C-21.8446 284.049 4.49118 327.542 28.2936 354.933L34.4392 352.07C11.2407 325.37 -14.4353 283.025 -4.99541 232.952C8.13443 163.261 89.1201 93.7452 183.374 71.2425C262.623 52.336 356.706 66.5707 479.464 116.064C592.108 161.521 717.249 231.214 862.149 311.906C885.447 324.886 906.992 337.215 926.017 348.099C1004.16 392.818 1052.39 420.452 1089.19 418.189Z" fill="#231F20"/>
<path d="M1113.13 386.831C1121.12 386.387 1128.98 384.63 1136.39 381.631C1160.07 371.994 1172.95 347.198 1175.7 305.809C1178.08 270.127 1173.02 227.385 1168.06 186.061C1160.57 123.571 1152.86 58.937 1179.67 51.1039C1191.56 47.6145 1205.63 57.6682 1225.05 71.5611C1251.55 90.564 1287.85 116.586 1346.73 129.506C1403.3 141.945 1467.95 138.878 1538.84 120.408L1536.68 115.559C1467.26 133.628 1404.18 136.661 1349.1 124.582C1291.82 112.067 1256.2 86.4925 1230.2 67.8522C1208.9 52.5733 1193.51 41.544 1177.17 46.3265C1145.23 55.6667 1152.47 116.394 1160.85 186.708C1170.39 266.788 1181.17 357.562 1133 377.154C1093.81 393.097 1042.61 367.136 949.758 320.009C931.734 310.862 911.307 300.505 889.495 289.726C874.034 282.092 855.646 273.106 836.594 264.334C657.752 182.114 520.3 121.368 379.709 88.4455C304.874 70.9093 245.138 67.0939 191.737 76.4191C150.153 83.7182 110.339 98.8629 74.4169 121.045C38.4611 143.38 10.6638 170.789 -5.97428 200.316C-9.09569 205.915 -11.7337 211.769 -13.8593 217.817C-32.6327 270.281 -7.55559 314.127 1.94554 330.631L8.61613 328.491C-0.600403 312.408 -25.0681 269.701 -6.89771 218.909C-4.8559 213.093 -2.32077 207.463 0.680125 202.079C33.2212 144.35 110.545 95.8624 193.099 81.4153C245.148 72.3266 303.632 76.1149 377.165 93.3355C516.979 126.084 654.076 186.672 832.441 268.699C851.431 277.423 869.761 286.431 885.179 294.007C906.95 304.757 927.367 315.114 945.371 324.252C991.815 347.815 1028.5 366.428 1058.76 377.028C1080.21 384.538 1097.77 387.768 1113.13 386.831Z" fill="#ED1C24"/>
<path d="M1136.08 355.756C1146.16 355.202 1156.06 352.923 1165.37 349.019C1186.97 339.874 1199.12 317.444 1202.52 280.426C1205.43 248.547 1201.78 210.52 1198.26 173.749C1192.92 118.139 1187.38 60.6354 1211.59 52.7511C1222.43 49.2078 1235.22 57.8545 1252.92 69.805C1276.39 85.6703 1308.54 107.381 1359.9 117.678C1410.04 127.726 1467.27 123.812 1529.99 106.053L1527.59 101.252C1466.36 118.591 1410.68 122.431 1362.07 112.661C1312.34 102.699 1280.89 81.4237 1257.92 65.9414C1238.26 52.6575 1224.05 43.0886 1208.82 48.0234C1179.84 57.462 1185.04 111.606 1191.05 174.287C1197.88 245.424 1205.63 326.056 1161.86 344.556C1118.38 362.957 1062.16 337.969 969.038 296.625C951.156 288.683 932.653 280.462 912.269 271.646C890.545 262.265 873.618 255.34 857.388 249.223C649.511 170.85 531.357 133.956 389.104 103.022C310.694 85.9689 253.015 80.8522 202.055 86.4216C118.231 95.5991 38.8909 134.32 -4.98333 187.485C-8.92216 192.351 -12.4267 197.554 -15.4567 203.033C-39.797 245.762 -30.2263 282.976 -25.0385 302.96C-24.7538 304.064 -24.488 305.106 -24.2409 306.084L-17.1552 304.961C-17.4093 303.969 -17.6756 302.918 -17.9635 301.817C-22.9732 282.357 -32.3005 246.115 -8.77177 204.815C-5.87423 199.594 -2.529 194.635 1.22627 189.994C43.9767 138.198 121.229 100.469 202.971 91.5332C252.813 86.0722 309.53 91.1418 386.882 107.971C528.632 138.803 646.492 175.606 853.934 253.814C870.041 259.886 886.857 266.764 908.469 276.098C928.783 284.898 947.295 293.108 965.167 301.04C1041.72 335.127 1093.96 358.331 1136.08 355.756Z" fill="white"/>
<path d="M1157.55 325.113C1170.22 324.421 1182.65 321.473 1194.28 316.409C1213.84 307.834 1225.32 287.779 1229.35 255.171C1232.83 227.036 1230.61 193.722 1228.46 161.457C1225.21 112.74 1221.85 62.3652 1243.47 54.4298C1252.8 51.0081 1262.68 56.7229 1280.78 67.9994C1301.23 80.7363 1329.21 98.1777 1373.02 105.861C1416.83 113.545 1466.52 108.779 1521.05 91.7307L1518.42 86.9981C1465.4 103.585 1417.09 108.243 1375 100.83C1332.91 93.4181 1305.53 76.4163 1285.61 64.0114C1267.57 52.7632 1254.53 44.645 1240.41 49.8319C1214.43 59.3576 1217.6 106.877 1221.24 161.905C1225.38 224.179 1230.1 294.769 1190.69 312.04C1142.88 333.01 1084.74 310.759 988.423 273.948C971.511 267.473 954.031 260.788 934.977 253.697C913.43 245.681 895.377 239.495 878.168 234.262C681.076 174.25 578.433 153.735 448.486 127.752C432.366 124.532 415.763 121.219 398.533 117.728C336.779 105.246 271.488 94.0669 212.42 96.5823C170.927 98.3751 131.163 105.962 94.2236 119.155C56.4638 132.647 23.4459 151.369 -3.92702 174.811C-8.65747 178.961 -13.04 183.492 -17.0305 188.358C-46.2883 223.071 -48.5347 255.317 -49.885 274.594C-50.0592 277.102 -50.2279 279.479 -50.4368 281.557L-43.2573 281.711C-43.04 279.583 -42.8725 277.176 -42.6994 274.638C-41.342 255.861 -39.1957 224.489 -10.9199 190.9C-7.13313 186.283 -2.97719 181.981 1.50676 178.037C54.7941 132.394 129.71 105.321 212.557 101.761C270.566 99.2716 335.164 110.375 396.324 122.736C413.563 126.218 430.148 129.581 446.297 132.76C576.069 158.619 678.521 179.12 875.198 238.977C892.236 244.166 910.136 250.286 931.531 258.248C950.555 265.33 968.024 272.005 984.904 278.431C1060.99 307.581 1113.79 327.784 1157.55 325.113Z" fill="#F5CE00"/>
<path d="M1177.97 294.825C1193.63 293.989 1209 290.249 1223.3 283.795C1240.87 275.829 1251.69 258.188 1256.38 229.86C1260.41 205.528 1259.56 176.8 1258.82 149.019C1257.58 105.286 1256.42 63.9816 1275.47 55.9939C1283.85 52.4849 1292.67 57.0053 1308.83 65.9767C1326.18 75.6182 1350.02 88.8189 1386.29 93.9792C1423.49 99.2776 1465.93 93.6704 1512.26 77.3131L1509.31 72.6915C1464.46 88.5276 1423.64 93.9794 1387.97 88.8588C1353.29 83.9242 1330.22 71.1368 1313.37 61.7887C1297.54 53.0059 1285.03 46.0707 1272.05 51.5186C1249.13 61.1094 1250.28 101.974 1251.63 149.276C1253.13 202.776 1254.85 263.422 1219.63 279.388C1167.51 303.028 1107.52 283.672 1008.12 251.619C992.133 246.464 975.611 241.137 957.789 235.554C936.367 228.844 917.161 223.459 899.061 219.117C747.133 182.651 656.565 169.977 568.964 157.711C517.315 150.477 468.523 143.655 408.058 132.29C341.591 119.79 278.84 107.993 222.88 106.62C136.756 104.479 60.88 123.12 -2.6744 162.02C-8.17669 165.486 -13.4216 169.344 -18.3681 173.565C-52.4225 201.748 -64.2823 229.391 -72.1302 247.681C-73.6314 251.174 -74.9087 254.19 -76.2292 256.826L-69.4432 258.345C-68.1072 255.577 -66.7263 252.368 -65.2718 248.976C-57.5989 231.123 -46.0071 204.13 -13.0234 176.824C-8.33245 172.831 -3.36163 169.18 1.851 165.898C63.9351 127.888 138.115 109.686 222.336 111.781C277.506 113.152 339.854 124.882 405.969 137.304C466.655 148.712 515.548 155.56 567.317 162.791C654.677 175.025 745.023 187.666 896.52 224.067C914.427 228.366 933.451 233.697 954.681 240.344C972.463 245.918 988.975 251.245 1004.94 256.401C1055.47 272.679 1095.38 285.569 1130.22 291.549C1147.99 294.592 1163.63 295.697 1177.97 294.825Z" fill="#1A4EA2"/>
<path d="M1196.59 264.94C1216.26 263.735 1234.58 259.474 1252.27 251.174C1286.78 234.981 1288.08 182.686 1289.22 136.53C1290.12 100.058 1290.97 65.6185 1307.48 57.5883C1314.97 53.9395 1322.36 57.0781 1337.03 63.7994C1351.26 70.3956 1370.88 79.4286 1399.59 82.1265C1430.41 85.0722 1465.37 78.5706 1503.48 62.9054L1500.11 58.4484C1463.42 73.5143 1430.02 79.7526 1400.81 77.0018C1373.64 74.4411 1355.59 66.1048 1341.07 59.4184C1326.74 52.8053 1315.43 47.5799 1303.61 53.3483C1283.84 62.9614 1282.99 97.0806 1282.01 136.657C1280.91 181.481 1279.66 232.284 1248.51 246.87C1222.12 259.241 1193.45 262.766 1155.56 258.362C1119.87 254.202 1079.36 243.503 1028.08 229.963C1012.93 225.969 997.242 221.825 980.507 217.585C958.895 212.063 939.063 207.67 919.891 204.165C776.63 177.968 690.155 172.608 613.858 167.879C552.843 164.097 495.207 160.52 417.525 146.934C397.786 143.488 379.268 140.091 361.435 136.8C313.516 127.997 272.141 120.39 233.283 116.739C142.707 108.217 70.3095 118.274 -1.43786 149.351C-7.69479 152.141 -13.7809 155.3 -19.6643 158.811C-59.1613 181.757 -79.169 205.517 -93.783 222.868C-96.6679 226.279 -99.369 229.503 -101.876 232.271L-95.8897 234.967C-93.3255 232.128 -90.5758 228.861 -87.6723 225.41C-73.3564 208.409 -53.7427 185.124 -15.2857 162.783C-9.67801 159.434 -3.87778 156.418 2.08503 153.752C72.2938 123.329 143.229 113.503 232.057 121.854C270.494 125.469 311.687 133.042 359.386 141.813C377.279 145.102 395.776 148.5 415.556 151.954C493.761 165.633 551.658 169.221 612.954 173.023C688.98 177.731 775.144 183.072 917.851 209.167C936.811 212.63 956.442 216.98 977.852 222.459C994.558 226.729 1010.16 230.867 1025.3 234.841C1096.2 253.543 1150.15 267.782 1196.59 264.94Z" fill="#231F20"/>
<path d="M1212.92 235.843C1237.11 234.363 1259.47 229.104 1281.24 218.492C1311.56 203.794 1315.91 161.27 1319.75 123.817C1322.76 94.6965 1325.55 67.1445 1339.55 59.1003C1346.29 55.1971 1352.74 57.0269 1365.55 61.2104C1377.31 65.0498 1391.95 69.8312 1413.07 70.2376C1437.43 70.7132 1464.94 63.3665 1494.81 48.424L1490.85 44.2075C1462.32 58.4933 1436.29 65.5092 1413.52 65.0694C1393.82 64.684 1379.9 60.1384 1368.71 56.4893C1355.87 52.2969 1345.73 48.9923 1335.14 55.129C1318.61 64.7011 1315.81 92.0229 1312.56 123.673C1308.8 159.953 1304.64 201.06 1277.39 214.271C1216.99 243.568 1150.01 229.725 1048.64 208.766C1034.12 205.761 1019.12 202.664 1003.23 199.496C981.318 195.134 960.879 191.723 940.737 189.081C795.661 170.101 712.169 171.773 638.537 173.257C571.994 174.597 514.549 175.746 427.01 161.497C386.3 154.888 350.136 147.533 318.245 141.052C292.047 135.717 267.21 130.675 243.713 126.798C162.507 113.422 89.957 109.986 -0.160937 136.689C-7.66791 138.948 -14.5524 141.565 -20.9194 144.095C-67.8332 162.883 -96.6553 184.624 -117.694 200.494C-121.146 203.104 -124.414 205.567 -127.45 207.783L-122.435 211.343C-119.34 209.085 -116.063 206.612 -112.581 204.001C-91.8736 188.382 -63.5298 166.998 -17.6227 148.615C-11.5031 146.164 -4.85681 143.604 2.2945 141.478C90.6197 115.306 161.918 118.705 241.786 131.867C265.122 135.719 289.838 140.735 315.995 146.052C347.977 152.55 384.23 159.912 425.122 166.565C513.497 180.935 571.37 179.762 638.384 178.415C711.695 176.902 794.798 175.274 939.101 194.2C959.043 196.819 979.33 200.186 1000.98 204.516C1016.84 207.675 1031.83 210.773 1046.32 213.768C1114.15 227.782 1166.84 238.673 1212.92 235.843Z" fill="#ED1C24"/>
<path d="M1226.31 207.468C1258.17 205.515 1285.25 198.523 1310.24 185.949C1336.53 172.701 1344.02 139.865 1350.62 110.892C1355.56 89.1998 1360.18 68.7094 1371.59 60.6437C1379.62 54.9353 1387.17 55.6471 1400.87 56.9383C1407.64 57.5765 1416.07 58.4184 1426.2 58.4111C1448.98 58.4707 1469.62 44.8354 1484.74 34.8615L1486.2 33.901L1481.46 30.1513L1479.99 31.1221C1465.03 41.0005 1446.41 53.2857 1426.53 53.237C1416.85 53.1985 1409.01 52.4667 1402.09 51.8133C1387.69 50.4561 1377.29 49.4718 1366.64 57.0311C1353.52 66.3361 1348.89 86.6569 1343.52 110.245C1337.15 138.169 1329.95 169.825 1306.27 181.743C1242.17 214.018 1173.76 203.696 1070.22 188.085C1056.04 185.939 1041.36 183.731 1025.97 181.507C1003.61 178.271 982.569 175.881 961.676 174.116C810.762 161.409 728.476 169.943 655.872 177.476C588.91 184.414 531.082 190.419 436.537 176.14C377.105 167.171 329.041 155.321 286.638 144.878C275.366 142.102 264.72 139.476 254.129 136.987C173.618 117.914 103.859 104.857 1.09187 124.2C-7.5574 125.827 -15.7906 127.92 -22.0681 129.556C-80.1288 144.835 -120.703 166.407 -147.55 180.676L-152.955 183.543L-148.812 187.663L-143.387 184.786C-115.314 169.815 -76.8499 149.415 -19.8108 134.402C-13.722 132.802 -5.66712 130.765 2.68412 129.198C103.533 110.221 172.275 123.103 251.666 141.904C262.218 144.404 272.853 147.021 284.095 149.798C326.689 160.284 374.915 172.179 434.83 181.221C530.602 195.688 589.009 189.624 656.649 182.622C728.815 175.145 810.612 166.647 960.592 179.276C981.334 181.026 1002.2 183.423 1024.36 186.615C1039.76 188.819 1054.41 191.028 1068.61 193.173C1119.7 200.877 1163.82 207.529 1202.83 208.023C1210.9 208.113 1218.73 207.928 1226.31 207.468Z" fill="white"/>
<path d="M1236.96 180.126C1273.67 177.867 1306.97 170.312 1339.23 153.317C1362.15 141.254 1373.14 117.534 1382.84 96.5989C1389.22 82.8122 1395.26 69.7877 1403.67 62.075C1410.19 56.1081 1416.41 54.2439 1425.06 51.6558C1430.5 50.118 1435.86 48.2911 1441.1 46.1829C1455.9 40.0822 1467.93 29.0836 1477.72 19.1325L1471.91 16.2699C1462.6 25.7345 1451.27 36.1488 1437.76 41.7149C1432.79 43.7083 1427.71 45.4386 1422.56 46.8988C1413.64 49.5758 1405.86 51.8939 1398.11 58.9836C1388.85 67.4457 1382.62 80.9072 1376.01 95.1519C1366.7 115.313 1356.1 138.15 1335.13 149.194C1267.96 184.567 1194.74 177.501 1093.41 167.727C1079.04 166.339 1064.18 164.907 1048.63 163.519C1025.5 161.461 1003.86 160.051 982.445 159.145C823.907 152.573 742.117 167.964 669.949 181.545C600.825 194.551 546.214 204.798 445.914 190.767C370.99 180.268 315.244 162.948 266.072 147.674L260.307 145.87C181.875 121.493 114.144 100.442 2.14404 111.696C-5.66384 112.474 -13.802 113.543 -23.4565 115.035C-88.8384 125.151 -138.632 143.108 -178.718 159.381L-175.383 163.859C-135.789 147.823 -86.6279 130.088 -22.2218 120.115C-12.7464 118.65 -4.7775 117.606 2.8509 116.844C112.876 105.778 179.768 126.578 257.228 150.648L262.984 152.452C312.489 167.825 368.6 185.263 444.258 195.867C546.167 210.153 604.247 199.227 671.502 186.565C743.143 173.102 824.337 157.801 981.742 164.322C1002.97 165.205 1024.45 166.63 1047.44 168.673C1062.95 170.053 1077.78 171.485 1092.14 172.874C1147.43 178.183 1194.49 182.723 1236.96 180.126Z" fill="#F5CE00"/>
<path d="M558.795 215.144C605.725 212.274 642.66 202.173 685.028 190.594C752.873 172.049 837.301 148.962 1003.03 149.334C1045.11 149.432 1084.05 151.139 1118.4 152.653C1169.51 154.903 1213.7 156.85 1254.4 153.313C1299.13 149.418 1335.3 139.053 1368.22 120.684C1415.35 94.374 1449.38 55.1047 1469.28 3.97286L1462.37 2.7691C1442.88 52.7562 1409.82 91.0714 1364.02 116.596C1294.88 155.167 1221.15 151.932 1119.19 147.443C1084.74 145.922 1045.69 144.209 1003.4 144.108C836.292 143.744 751.189 167.013 682.77 185.719C614.668 204.333 560.84 219.036 455.459 205.339C368.682 194.065 311.045 171.507 255.294 149.684C184.767 122.085 118.134 95.9925 3.30735 99.2188C-66.0667 101.167 -135.943 113.268 -204.382 135.206L-201.689 139.917C-134.111 118.258 -65.1404 106.298 3.29408 104.382C116.182 101.222 181.983 126.983 251.659 154.252C307.886 176.258 366.019 199.009 453.902 210.435C495.444 215.885 529.12 216.962 558.795 215.144Z" fill="#1A4EA2"/>
</g>
<defs>
<clipPath id="clip0">
<rect width="1751.16" height="402.39" fill="white" transform="translate(1556.92 402.154) rotate(178.036)"/>
</clipPath>
</defs>
</svg>
