<svg xmlns="http://www.w3.org/2000/svg" viewBox="0 0 1751.16 402.39"><defs><style>.cls-1{fill:#231f20;}.cls-2{fill:#ed1c24;}.cls-3{fill:#fff;}.cls-4{fill:#f5ce00;}.cls-5{fill:#1a4ea2;}</style></defs><g id="Слой_2" data-name="Слой 2"><g id="Слой_1-2" data-name="Слой 1"><path class="cls-1" d="M468,0a60.29,60.29,0,0,0-18.3,3.29c-26.2,9.15-40.73,35.8-44.41,81.48-3.18,39.41,1.75,87.11,6.52,133.24,3.91,37.86,7.61,73.61,6.3,100.89-1.38,29.08-8.34,44.65-21.27,47.6-13.15,3-28-9-48.59-25.55-28.74-23.16-68.12-54.88-134-72.71C151.78,251.34,79.69,251.1,0,267.55l1.87,5c78.16-16.13,148.74-15.93,209.77.59,64.24,17.39,102.94,48.57,131.21,71.35,22.34,18,38.49,31,56.07,27,16.48-3.77,24.87-20.43,26.4-52.44,1.31-27.56-2.39-63.45-6.32-101.44C409.75,128.06,399.26,26.63,452.77,8c35.4-12.36,83.62,17.47,171.16,71.62,18.64,11.54,39.78,24.61,62.65,38.4,142.26,85.74,265.13,159.79,376.57,209.23,122.81,54.47,218.16,72.1,300.09,55.49,46-9.31,91.38-30.13,127.94-58.63,37.93-29.56,63.19-65.35,71.13-100.76,11.48-51.22-13.35-95.59-36.2-123.78l-6.24,2.65c22.27,27.48,46.48,70.68,35.33,120.4-15.51,69.2-98.83,135.9-193.8,155.16-79.85,16.18-173.39-1.27-294.38-54.94C956,273.55,833.32,199.61,691.27,114c-22.84-13.77-43.95-26.83-62.59-38.36C552.11,28.27,504.86-1,468,0Z"/><path class="cls-2" d="M443,30.52a72.77,72.77,0,0,0-23.42,4.4c-24,8.82-37.72,33.16-41.89,74.43-3.6,35.58,0,78.47,3.54,119.94C386.57,292,392.06,356.86,365,363.77c-12,3.08-25.72-7.45-44.65-22-25.84-19.9-61.22-47.15-119.63-62.08C144.61,265.32,79.9,266.17,8.41,282.2l2,4.92c70-15.68,133.14-16.55,187.78-2.59C255,299,289.73,325.78,315.07,345.3c20.77,16,35.77,27.55,52.26,23.33,32.25-8.24,27.09-69.18,21.12-139.74C381.66,148.53,374,57.44,422.81,39.51c39.72-14.59,90,13.11,181.18,63.39,17.7,9.76,37.76,20.81,59.19,32.33,15.19,8.16,33.26,17.77,52,27.19,175.92,88.3,311.21,153.72,450.59,191.44,74.19,20.09,133.76,25.95,187.45,18.46A332.8,332.8,0,0,0,1472,331.74c36.7-21.09,65.42-47.53,83.06-76.47a112.65,112.65,0,0,0,8.48-17.22c20.56-51.79-3-96.47-11.93-113.29l-6.74,1.91c8.66,16.39,31.65,59.91,11.75,110.05a108.16,108.16,0,0,1-8.15,16.56c-34.5,56.58-113.44,102.39-196.44,114-52.33,7.3-110.65,1.51-183.55-18.22-138.61-37.52-273.55-102.77-449-190.86-18.68-9.37-36.69-19-51.84-27.1-21.39-11.49-41.44-22.54-59.12-32.29-45.61-25.14-81.64-45-111.51-56.63C475.83,33.94,458.39,30.11,443,30.52Z"/><path class="cls-3" d="M419,60.79a88.23,88.23,0,0,0-29.5,5.73c-21.9,8.4-34.81,30.4-39.48,67.28-4,31.76-1.66,69.89.6,106.76,3.43,55.76,7,113.42-17.47,120.47-10.95,3.17-23.44-5.91-40.72-18.46-22.91-16.66-54.3-39.46-105.27-51.51-49.77-11.76-107.1-9.81-170.39,5.79L19,301.73C80.79,286.5,136.57,284.57,184.82,296c49.36,11.66,80.06,34,102.48,50.26,19.2,13.95,33.07,24,48.46,19.59,29.29-8.44,25.95-62.73,22.09-125.58-4.39-71.33-9.37-152.18,35-169.17,44.09-16.9,99.42,10,191.07,54.51,17.6,8.55,35.81,17.4,55.88,26.91,21.39,10.12,38.07,17.62,54.08,24.29,205.07,85.45,321.89,126.37,463,162.16,77.78,19.73,135.25,26.82,186.37,23,84.09-6.3,164.71-42.28,210.38-93.91a107.11,107.11,0,0,0,11-15.18c25.79-41.87,17.5-79.39,13-99.54q-.37-1.67-.69-3.15l-7.12.88c.22,1,.45,2.06.7,3.17,4.34,19.62,12.42,56.16-12.51,96.63a103.17,103.17,0,0,1-10.5,14.47c-44.5,50.3-123,85.36-205,91.49-50,3.75-106.51-3.26-183.24-22.73-140.61-35.67-257.14-76.49-461.78-161.76-15.89-6.62-32.46-14.07-53.74-24.14-20-9.49-38.22-18.33-55.81-26.87C512.6,84.64,461.19,59.66,419,60.79Z"/><path class="cls-4" d="M396.49,90.68a106.5,106.5,0,0,0-37,7.44c-19.84,7.9-32,27.55-37.15,60-4.44,28-3.36,61.37-2.32,93.69,1.58,48.8,3.21,99.26-18.67,106.45-9.44,3.1-19.12-2.95-36.82-14.84-20-13.43-47.37-31.82-90.89-41s-93.35-6.12-148.43,9.05l2.47,4.82c53.56-14.76,102-17.76,143.81-8.91s68.59,26.78,88.07,39.86c17.65,11.86,30.4,20.42,44.69,15.72,26.29-8.63,24.75-56.23,23-111.35-2-62.38-4.3-133.09,35.68-149,48.5-19.32,105.84,4.91,200.84,45,16.68,7.05,33.92,14.33,52.72,22.07,21.26,8.75,39.09,15.55,56.11,21.37,194.92,66.73,296.8,90.75,425.78,121.17,16,3.77,32.48,7.65,49.58,11.73,61.29,14.59,126.16,28,185.28,27.51,41.53-.37,81.53-6.59,118.9-18.51,38.2-12.19,71.84-29.77,100-52.26a115.22,115.22,0,0,0,13.56-13.09c30.43-33.69,33.78-65.84,35.79-85.06.26-2.5.51-4.87.79-6.94l-7.17-.4c-.29,2.12-.54,4.52-.8,7.05-2,18.72-5.22,50-34.63,82.6a110.19,110.19,0,0,1-12.86,12.43c-54.82,43.79-130.62,68.28-213.54,69-58.06.5-122.24-12.81-182.94-27.26-17.11-4.07-33.57-8-49.6-11.73C971.93,277,870.24,253,675.73,186.44c-16.85-5.77-34.53-12.5-55.64-21.19-18.77-7.73-36-15-52.65-22C492.4,111.51,440.32,89.51,396.49,90.68Z"/><path class="cls-5" d="M375.05,120.25a126.56,126.56,0,0,0-45.68,9.47c-17.83,7.36-29.25,24.62-34.91,52.77-4.86,24.18-5,52.92-5.21,80.71-.26,43.75-.51,85.07-19.83,92.4-8.49,3.22-17.15-1.6-33-11.12-17-10.23-40.38-24.24-76.45-30.64-37-6.57-79.6-2.42-126.47,12.34l2.79,4.72c45.37-14.29,86.35-18.34,121.83-12,34.49,6.12,57.1,19.69,73.62,29.61,15.52,9.32,27.79,16.68,40.95,11.68,23.23-8.8,23.48-49.68,23.76-97,.33-53.52.69-114.19,36.43-128.94,52.9-21.84,112.2-.44,210.44,35,15.8,5.7,32.13,11.59,49.75,17.78,21.18,7.44,40.19,13.48,58.13,18.44C801.79,247.12,891.87,262.89,979,278.15c51.37,9,99.9,17.49,159.94,30.92,66,14.77,128.31,28.71,184.19,32,86,5.09,162.47-10.94,227.32-47.64a135.09,135.09,0,0,0,16.08-11c35-27,47.8-54.22,56.27-72.23,1.62-3.44,3-6.41,4.41-9l-6.73-1.75c-1.43,2.72-2.92,5.88-4.49,9.22-8.28,17.58-20.79,44.16-54.69,70.32a129,129,0,0,1-15.24,10.41c-63.35,35.86-138.11,51.51-222.21,46.53-55.09-3.26-117-17.12-182.65-31.8-60.26-13.48-108.89-22-160.38-31-86.89-15.22-176.75-30.95-326.91-72.52-17.75-4.91-36.58-10.89-57.57-18.26-17.58-6.18-33.9-12.07-49.68-17.77-49.94-18-89.39-32.25-124-39.42C405,121.51,389.41,119.87,375.05,120.25Z"/><path class="cls-1" d="M355.42,149.48c-19.7.53-38.16,4.16-56.12,11.85-35.05,15-38.14,67.22-40.86,113.31-2.15,36.42-4.18,70.81-20.95,78.27-7.61,3.39-14.89,0-29.32-7.22-14-7.08-33.3-16.78-61.9-20.46-30.7-4-65.86,1.3-104.49,15.65L45,345.45c37.18-13.8,70.78-18.89,99.88-15.14,27.06,3.49,44.82,12.44,59.1,19.62,14.09,7.1,25.22,12.71,37.23,7.35,20.09-8.93,22.11-43,24.44-82.52,2.64-44.76,5.63-95.49,37.26-109,26.8-11.46,55.57-14,93.29-8.3,35.52,5.38,75.64,17.46,126.43,32.75,15,4.51,30.54,9.19,47.12,14,21.41,6.26,41.08,11.33,60.12,15.49,142.28,31.09,228.52,39.41,304.61,46.75,60.85,5.87,118.33,11.42,195.5,27.66,19.61,4.12,38,8.15,55.71,12.05,47.59,10.44,88.68,19.46,127.39,24.44,90.23,11.62,162.93,4.05,235.7-24.55a173.49,173.49,0,0,0,18.54-8.83c40.26-21.58,61.07-44.64,76.27-61.48,3-3.31,5.81-6.44,8.41-9.12l-5.89-2.9c-2.66,2.75-5.52,5.92-8.54,9.27-14.89,16.5-35.29,39.1-74.49,60.11a166.1,166.1,0,0,1-17.67,8.43c-71.21,28-142.44,35.39-230.93,24-38.29-4.93-79.2-13.91-126.57-24.31-17.77-3.9-36.14-7.93-55.79-12.06-77.69-16.35-135.43-21.92-196.56-27.82-75.82-7.31-161.75-15.6-303.48-46.57-18.83-4.11-38.3-9.13-59.51-15.34-16.55-4.84-32-9.51-47-14C455.36,164.31,401.93,148.23,355.42,149.48Z"/><path class="cls-2" d="M338.1,178c-24.23.65-46.75,5.14-68.88,15-30.8,13.65-36.61,56-41.73,93.3-4,29-7.74,56.44-22,64-6.87,3.67-13.26,1.62-25.92-3-11.62-4.24-26.08-9.52-47.18-10.65-24.33-1.31-52.07,5.09-82.44,19L53.77,360c29-13.3,55.25-19.42,78-18.2,19.67,1.06,33.43,6.08,44.48,10.11,12.69,4.63,22.71,8.28,33.51,2.51,16.85-9,20.58-36.21,24.91-67.73,5-36.13,10.57-77.07,38.26-89.34,61.37-27.21,127.83-11.08,228.42,13.34,14.41,3.5,29.3,7.11,45.07,10.82,21.75,5.11,42.06,9.22,62.1,12.55C752.86,258,836.36,259.19,910,260.23c66.55.94,124,1.76,211,19,40.46,8,76.35,16.59,108,24.16,26,6.23,50.65,12.12,74,16.8,80.7,16.15,153.09,22.07,244.07-1.53,7.58-2,14.55-4.38,21-6.69,47.53-17.17,77.08-37.91,98.65-53.05,3.54-2.49,6.89-4.84,10-6.95l-4.89-3.73c-3.17,2.15-6.53,4.51-10.1,7-21.23,14.9-50.29,35.3-96.8,52.1-6.2,2.24-12.93,4.57-20.15,6.45-89.17,23.13-160.31,17.29-239.68,1.4-23.19-4.65-47.72-10.51-73.68-16.72-31.74-7.59-67.72-16.19-108.36-24.24-87.83-17.39-145.71-18.2-212.73-19.15-73.32-1-156.43-2.22-300-26.08-19.84-3.3-40-7.36-61.49-12.43-15.74-3.7-30.62-7.31-45-10.8C436.53,189.44,384.25,176.75,338.1,178Z"/><path class="cls-3" d="M323.74,205.9c-31.9.86-59.21,6.92-84.61,18.63-26.73,12.34-35.34,44.9-42.93,73.63-5.68,21.51-11,41.83-22.68,49.5-8.22,5.43-15.74,4.46-29.39,2.7-6.75-.87-15.14-2-25.27-2.34C96.1,347.18,75,360.1,59.55,369.55l-1.49.91,4.61,3.91,1.5-.92c15.29-9.36,34.32-21,54.19-20.27,9.67.37,17.48,1.37,24.37,2.26,14.35,1.85,24.71,3.19,35.61-4,13.43-8.85,18.76-29,24.93-52.39,7.32-27.69,15.61-59.08,39.68-70.18,65.17-30.06,133.18-17.4,236.13,1.75,14.1,2.63,28.69,5.34,44,8.09,22.23,4,43.18,7.11,64,9.59,150.39,17.87,232.92,12.16,305.74,7.12,67.16-4.64,125.16-8.66,219.16,8.85,59.09,11,106.72,24.49,148.74,36.38,11.17,3.16,21.72,6.15,32.22,9,79.81,21.82,149.08,37.26,252.45,21.45,8.7-1.33,17-3.14,23.33-4.56,58.55-13.28,99.84-33.45,127.16-46.79l5.5-2.68-4-4.26-5.52,2.69c-28.57,14-67.71,33.07-125.23,46.12-6.14,1.39-14.26,3.15-22.66,4.43-101.44,15.51-169.7.28-248.4-21.23-10.46-2.86-21-5.84-32.14-9-42.21-11.94-90-25.48-149.57-36.57-95.22-17.74-153.8-13.68-221.64-9-72.38,5-154.42,10.69-303.88-7.07-20.67-2.46-41.44-5.57-63.48-9.52-15.31-2.73-29.88-5.44-44-8.07-50.79-9.45-94.66-17.61-133.63-19.44Q335.13,205.6,323.74,205.9Z"/><path class="cls-4" d="M312.16,232.86c-36.76,1-70.3,7.41-103.12,23.29-23.32,11.27-35.12,34.6-45.53,55.19-6.85,13.56-13.33,26.37-22,33.79-6.72,5.74-13,7.39-21.74,9.68a159,159,0,0,0-16.22,4.92c-15,5.59-27.4,16.17-37.52,25.78l5.71,3.06c9.63-9.14,21.31-19.16,35-24.26a152.73,152.73,0,0,1,15.37-4.66c9-2.37,16.86-4.42,24.85-11.24,9.54-8.14,16.23-21.38,23.32-35.39,10-19.83,21.38-42.29,42.71-52.61,68.34-33.05,141.28-23.48,242.21-10.24,14.32,1.88,29.12,3.82,44.61,5.74,23.05,2.85,44.63,5,66,6.64,158.22,12,240.49-.58,313.08-11.68,69.53-10.63,124.46-19,224.22-1.54,74.52,13.06,129.64,32.28,178.26,49.23l5.7,2c77.55,27.05,144.52,50.41,256.84,43,7.83-.51,16-1.3,25.7-2.46,65.69-7.87,116.07-24.11,156.69-39l-3.18-4.59c-40.12,14.67-89.86,30.71-154.57,38.47-9.52,1.14-17.52,1.91-25.17,2.41-110.34,7.29-176.48-15.79-253.07-42.5l-5.69-2c-48.95-17.06-104.43-36.41-179.68-49.6-101.36-17.77-159.78-8.84-227.43,1.51-72.06,11-153.73,23.51-310.82,11.6-21.18-1.61-42.6-3.77-65.51-6.6-15.45-1.91-30.23-3.85-44.53-5.73C401.57,237.87,354.7,231.72,312.16,232.86Z"/><path class="cls-5" d="M991.13,221.1c-47,1.26-84.26,10.09-127,20.21-68.44,16.21-153.61,36.39-319.23,30.34-42.05-1.54-80.91-4.58-115.19-7.27-51-4-95.1-7.46-135.89-5.32-44.84,2.36-81.35,11.48-114.88,28.71-48,24.68-83.36,62.76-105,113.18l6.87,1.44C102,353.1,136.35,315.94,183,292c70.42-36.18,144-30.42,245.74-22.44,34.38,2.7,73.35,5.75,115.61,7.3,167,6.09,252.85-14.25,321.87-30.6,68.7-16.27,123-29.12,227.85-11.82,86.34,14.24,143.17,38.76,198.14,62.48,69.54,30,135.24,58.36,250.11,59.07,69.4.43,139.65-9.27,208.8-28.85l-2.53-4.8c-68.28,19.33-137.62,28.92-206.08,28.49-112.93-.71-177.81-28.71-246.51-58.35-55.44-23.92-112.76-48.65-200.2-63.08C1054.47,222.53,1020.85,220.3,991.13,221.1Z"/></g></g></svg>