<svg width="931" height="824" viewBox="0 0 931 824" fill="none" xmlns="http://www.w3.org/2000/svg">
<g clip-path="url(#clip0)">
<path d="M435.251 869.757C332.916 827.592 245.468 775.169 179.86 729.92C104.28 677.785 49.0354 629.363 16.0023 597.927C-22.777 561.028 -53.1485 526.275 -65.2579 504.949C-70.2786 496.106 -71.8843 490.2 -70.3096 486.378C-69.9323 485.457 -69.3641 484.626 -68.6424 483.941C-67.9207 483.256 -67.0619 482.731 -66.1227 482.402C-57.0638 479.034 -36.3318 489.156 2.6291 508.873C37.2015 526.375 80.2307 548.176 124.263 562.524C200.078 587.247 293.838 557.035 317.204 500.326C321.119 490.823 322.299 472.01 315.637 453.157C309.995 437.184 296.74 415.477 265.678 402.678C244.984 393.826 225.637 394.731 204.769 405.514C186.135 415.165 168.558 431.677 151.579 447.646C117.997 479.266 83.3235 511.893 38.0497 493.248C37.4301 492.992 36.7966 492.731 36.1631 492.47C-24.6866 465.656 -46.6281 394.473 -61.1374 347.33C-67.3284 327.255 -73.1699 308.268 -78.9948 306.633L-77.5091 301.407C-68.8335 303.89 -63.7143 320.519 -55.9346 345.711C-41.7061 391.876 -20.2057 461.639 38.3766 487.454C81.268 506.348 113.6 475.923 147.808 443.674C182.508 411.041 218.324 377.28 266.617 397.178L267.751 397.645C300.666 411.207 314.749 434.322 320.763 451.328C327.943 471.632 326.679 491.6 322.239 502.376C310.579 530.675 281.64 554.207 242.846 566.953C204.052 579.699 160.204 579.963 122.583 567.687C78.1585 553.186 34.9176 531.306 0.1769 513.718C-30.4897 498.2 -56.9778 484.794 -64.2289 487.491C-64.4637 487.56 -64.6793 487.682 -64.8592 487.848C-65.0392 488.014 -65.1785 488.219 -65.2665 488.447C-65.4816 488.97 -66.276 492.103 -60.514 502.271C-39.1232 539.985 50.5909 634.165 182.945 725.458C296 803.424 474.301 902.875 681.445 933.549L680.648 938.921C592.743 925.91 510.046 900.575 435.251 869.757Z" fill="#231F20"/>
<path d="M466.402 888.961C405.795 863.989 354.812 829.277 305.353 795.609C284.151 781.173 262.228 766.252 240.098 752.508C154.992 699.657 78.3275 646.636 24.2545 603.216C-33.2559 557.012 -59.9245 526.415 -54.9417 512.246C-52.0895 504.138 -40.1475 507.153 -35.572 508.321C-23.1807 510.878 -4.52537 518.589 19.0865 528.342C52.864 542.259 94.8761 559.651 136.428 568.97C170.28 576.558 205.443 574.702 235.433 563.736C265.994 552.574 288.47 532.73 298.718 507.856C304.636 493.495 303.771 474.466 296.419 456.95C287.144 434.854 268.432 417.201 243.848 407.218C200.71 389.159 168.061 417.23 136.415 444.387C104.769 471.544 72.3014 499.412 30.2705 479.912C-23.5641 454.848 -45.1258 391.697 -59.3754 349.872C-66.6293 328.602 -72.8923 310.223 -79.7452 308.474L-78.3934 303.217C-68.6903 305.716 -62.9543 322.608 -54.2299 348.116C-40.2717 389.047 -19.1693 450.902 32.5458 475.003C71.4555 493.046 101.276 467.393 132.882 440.252C165.637 412.144 199.465 383.068 245.398 401.994L246.567 402.476C272.193 413.034 291.66 431.641 301.429 454.852C309.324 473.676 310.187 494.292 303.742 509.934C292.905 536.235 269.309 557.157 237.29 568.874C206.328 580.181 170.087 582.106 135.226 574.297C93.2183 564.88 50.9581 547.419 17.007 533.389C-5.45791 524.133 -24.8524 516.101 -36.7613 513.678L-36.8796 513.629C-41.2975 512.493 -48.7815 511.071 -49.8417 514.079C-53.7512 525.188 -24.7944 556.932 27.6104 599.004C81.5294 642.304 158.012 695.193 242.944 747.932C265.171 761.74 287.132 776.725 308.382 791.181C361.852 827.585 417.13 865.215 484.292 890.208C532.201 908.091 581.892 914.949 629.971 921.51C647.422 923.904 665.436 926.351 683.289 929.35L682.402 934.684C664.657 931.722 646.653 929.247 629.241 926.861C580.883 920.226 530.881 913.37 482.41 895.271C476.996 893.258 471.651 891.164 466.374 888.99" fill="#DC4234"/>
<path d="M478.598 900.786C426.512 879.325 386.865 846.213 348.456 814.126C321.661 791.742 293.929 768.589 262.322 749.719C230.715 730.849 200.382 713.139 170.972 695.973C38.6361 618.71 -48.8029 567.707 -39.5312 538.05C-37.0206 529.98 -25.754 531.512 -21.8549 532.108C-9.45006 532.675 10.804 539.115 36.4193 547.267C69.1688 557.691 109.926 570.656 148.6 575.418C185.194 579.91 216.117 575.713 240.519 562.916C260.894 552.382 276.849 534.932 285.521 513.698C291.338 499.58 288.533 479.767 278.043 460.697C266.137 439.114 246.233 421.727 222.034 411.757C181.422 395.138 150.879 418.433 121.365 440.971C93.4924 462.231 64.7151 484.186 28.891 469.425C27.3873 468.806 25.8745 468.123 24.3525 467.376C-22.6522 444.116 -42.7311 390.924 -57.4089 352.116C-65.5085 330.684 -72.514 312.17 -80.521 310.337L-79.2707 305.03C-68.4491 307.542 -61.6847 325.435 -52.2843 350.213C-37.9581 388.135 -18.3262 440.198 26.749 462.508C61.6716 479.674 89.0705 458.773 118.076 436.619C148.805 413.189 180.592 388.932 224.102 406.738C249.456 417.184 270.293 435.411 282.763 458.057C294.06 478.567 296.963 500.138 290.527 515.76C281.383 538.176 264.553 556.601 243.054 567.731C217.655 581.053 185.656 585.45 147.95 580.81C108.765 575.984 67.7277 562.928 34.7661 552.465C10.437 544.729 -10.5918 538.036 -22.2382 537.545L-22.5204 537.518C-29.6015 536.482 -33.5829 537.211 -34.3607 539.692C-42.3226 565.182 57.7831 623.627 173.704 691.3C203.127 708.472 233.553 726.236 265.099 745.073C297.126 764.189 324.992 787.471 351.932 809.98C392.101 843.525 433.64 878.231 489.199 899.111C529.423 914.341 569.862 916.181 608.966 917.961C634.03 919.111 659.94 920.283 685.222 925.032L684.221 930.369C659.28 925.679 633.591 924.524 608.724 923.391C569.189 921.588 528.31 919.729 487.284 904.193C484.352 903.088 481.458 901.948 478.604 900.772" fill="white"/>
<path d="M486.764 911.048C437.832 890.886 405.005 856.399 373.203 823.003C347.173 795.657 320.256 767.384 284.514 746.908C225.642 713.18 167.399 685.869 116.009 661.771C26.7624 619.917 -32.1967 592.269 -24.1498 563.826C-21.9119 555.904 -11.8609 555.86 -8.25987 555.935C5.42741 554.042 30.9468 559.304 63.222 565.957C93.8313 572.266 128.523 579.418 160.889 581.899C225.41 586.838 248.674 572.197 274.024 510.67C277.828 501.439 276.737 488.71 271.049 475.755C259.905 450.406 234.124 428.782 200.316 416.342C162.175 401.157 133.813 419.634 106.392 437.505C80.3564 454.465 55.6624 470.561 24.8506 457.866C22.7273 456.991 20.5844 455.986 18.4039 454.835C-21.9897 433.436 -41.2114 387.552 -55.2491 354.048C-64.2226 332.622 -71.9666 314.122 -81.2836 312.148L-80.1521 306.833C-68.0626 309.371 -60.5904 327.246 -50.237 351.944C-36.5174 384.698 -17.7296 429.54 20.9187 450.016C51.9602 466.463 76.9443 450.177 103.402 432.943C131.98 414.318 161.537 395.055 202.227 411.25C237.333 424.135 264.258 446.858 275.993 473.558C282.276 487.857 283.378 502.139 279.016 512.727C252.785 576.39 227.304 592.399 160.432 587.297C127.741 584.796 92.8672 577.61 62.0933 571.266C31.4464 564.949 4.97406 559.49 -7.69345 561.339L-8.1202 561.367C-17.7722 561.234 -18.6428 564.295 -18.9272 565.302C-25.7175 589.312 37.8419 619.116 118.315 656.866C169.793 681.008 228.137 708.37 287.203 742.202C323.628 763.073 350.824 791.64 377.12 819.267C411.131 854.99 443.247 888.712 494.024 908.094C532.426 922.842 570.04 920.611 606.409 918.455C634.304 916.805 660.663 915.247 687.081 920.798L685.959 926.109C660.247 920.703 634.252 922.248 606.73 923.88C569.779 926.066 531.602 928.341 492.078 913.172C490.279 912.479 488.492 911.776 486.731 911.05" fill="#F5CE00"/>
<path d="M493.488 920.74C446.316 901.304 419.109 864.702 392.745 829.255C369.325 797.748 345.107 765.156 306.709 744.131C241.659 708.46 171.228 684.384 114.637 665.041C77.0341 652.186 44.5744 641.059 22.4781 629.683C-10.4259 612.697 -11.0964 598.691 -8.74893 589.634C-6.75354 581.906 2.02775 580.377 5.30052 579.885C18.7685 575.125 46.388 578.215 81.2952 582.117C110.399 585.379 143.39 589.07 172.981 588.404C202.211 587.744 225.002 579.805 240.731 564.812C253.323 552.809 257.908 539.666 260.111 533.35C260.48 532.297 260.767 531.462 261.034 530.815C271.36 505.753 258.416 482.659 245.737 467.696C230.012 449.059 205.458 431.987 178.391 420.835C143.004 407.208 116.891 420.74 91.5887 433.865C66.2864 446.991 42.2829 459.454 12.3984 442.255C-21.5141 422.736 -38.8613 385.564 -52.7994 355.693C-62.7588 334.406 -71.2997 316.042 -82.1103 313.957L-81.0292 308.646C-67.4572 311.281 -58.8262 329.862 -47.8234 353.419C-34.2095 382.595 -17.2774 418.936 15.1692 437.566C42.4669 453.276 64.0862 442.053 89.1215 429.062C114.157 416.071 142.685 401.262 180.418 415.799C208.299 427.286 233.612 444.907 249.926 464.17C269.499 487.283 275.094 511.038 266.099 532.87C265.875 533.413 265.61 534.175 265.285 535.124C263.123 541.318 258.067 555.823 244.522 568.735C227.778 584.687 203.762 593.13 173.118 593.802C143.154 594.486 109.979 590.768 80.7112 587.487C47.6449 583.782 19.0896 580.591 6.91252 585.045L6.66269 585.137L6.38541 585.178C-1.42602 586.348 -2.98204 589.038 -3.48007 590.958C-10.1196 616.618 42.9532 634.756 116.392 659.893C173.183 679.302 243.859 703.455 309.317 739.383C348.745 761.011 373.321 794.077 397.098 826.04C424.827 863.353 451.076 898.607 498.848 917.06C536.847 931.838 573.117 925.674 608.194 919.695C636.296 914.914 662.831 910.399 688.948 916.543L687.707 921.829C662.658 915.939 636.658 920.34 609.105 925.054C573.296 931.147 536.273 937.44 496.891 922.126C495.735 921.649 494.58 921.173 493.41 920.691" fill="#1A4EA2"/>
<path d="M499.534 930.177C453.539 911.226 431.466 872.204 410.105 834.437C390.093 799.066 369.4 762.486 328.962 741.313C263.536 707.067 187.484 690.406 126.372 677.018C68.1955 664.269 22.2473 654.197 9.55444 633.992C6.05494 628.413 5.09187 622.153 6.70822 615.384C7.94333 610.192 11.922 606.465 18.8824 603.902C31.8244 596.05 62.5124 596.634 98.0136 597.295C126.011 597.829 157.743 598.428 185.148 594.923C225.038 589.795 241.929 569.572 249.069 553.508C259.305 530.485 254.973 503.822 245.721 490.483C231.135 469.456 197.058 440.179 156.701 425.432C124.076 413.342 100.283 421.894 77.267 430.163C57.4252 437.289 38.5209 444.077 17.0236 435.219C13.3572 433.691 9.83129 431.846 6.48617 429.705C-21.106 412.18 -37.0258 381.662 -49.8381 357.181C-60.7919 336.194 -70.2539 318.069 -82.8644 315.886L-81.8926 310.464C-66.6587 313.158 -56.6362 332.393 -45.0103 354.635C-31.8598 379.817 -16.9585 408.359 9.40846 425.103C33.1846 440.208 52.761 433.193 75.406 425.015C98.2217 416.818 124.077 407.528 158.547 420.297C200.019 435.422 235.121 465.692 250.125 487.346C260.5 502.305 265.159 530.585 253.991 555.715C246.285 573.053 228.193 594.866 185.801 600.315C157.989 603.88 126.044 603.283 97.858 602.752C64.4454 602.121 32.892 601.522 21.463 608.686L21.214 608.836L20.9375 608.934C15.6016 610.856 12.742 613.31 11.9513 616.632C10.6723 622.009 11.3785 626.738 14.1342 631.098C25.6164 649.38 70.5839 659.243 127.517 671.708C188.942 685.168 265.395 701.921 331.464 736.505C373.34 758.417 394.454 795.716 414.829 831.766C437.047 871.051 458.087 908.173 503.776 926.029C541.925 941.055 577.438 930.899 611.779 921.075C639.476 913.146 665.67 905.665 690.922 912.307L689.567 917.571C665.757 911.303 640.282 918.6 613.295 926.308C578.084 936.385 541.676 946.8 501.819 931.094L499.571 930.168" fill="#231F20"/>
<path d="M505.202 939.467C460.137 920.907 442.915 879.3 426.269 839.062C410.101 799.957 393.372 759.546 351.172 738.518C287.877 707.007 207.965 698.707 143.714 692.006C85.6518 685.998 39.8113 681.198 25.8028 661.795C21.6191 655.999 20.3764 649.054 22.0983 641.139C23.2076 636.075 26.5922 631.794 32.4364 628.045C48.6969 613.108 99.7699 609.2 153.828 605.065C168.57 603.932 183.823 602.765 197.618 601.381C206.402 600.497 218.693 592.882 228.932 581.986C241.178 568.945 248.864 553.236 250.58 537.746C252.731 518.493 245.882 500.134 230.277 483.281C211.083 462.547 179.012 444.626 134.964 430.003C105.674 419.661 83.4985 423.301 63.9221 426.521C41.9466 430.13 22.9682 433.263 0.4962 417.107C-20.8784 401.785 -34.3782 378.755 -46.2843 358.459C-58.3829 337.838 -68.8271 320.041 -83.6486 317.632L-82.7894 312.285C-65.4689 315.073 -54.4188 333.91 -41.6264 355.712C-30.0007 375.542 -16.8153 398.011 3.63181 412.698C14.7089 420.658 24.2787 427.533 63.0113 421.162C83.2249 417.838 106.137 414.07 136.689 424.866C181.571 439.76 214.404 458.182 234.231 479.592C250.972 497.663 258.289 517.436 255.972 538.355C254.128 555.006 245.929 571.823 232.884 585.716C221.627 597.698 208.328 605.785 198.141 606.792C184.276 608.188 168.996 609.36 154.216 610.485C105.696 614.207 50.6328 618.45 35.9899 632.189L35.584 632.502C30.831 635.519 28.2387 638.629 27.4302 642.31C26.0216 648.733 26.9272 654.065 30.2164 658.613C42.8021 676.054 89.8274 680.943 144.283 686.613C208.948 693.338 289.415 701.712 353.599 733.655C397.633 755.568 414.741 796.958 431.301 836.99C448.248 877.979 464.296 916.742 507.242 934.436L508.634 935.01C547.236 950.402 582.267 936.155 616.131 922.371C643.162 911.375 668.697 900.984 692.862 908.091L691.332 913.307C669.02 906.744 644.343 916.789 618.214 927.415C584.956 940.935 547.292 956.272 506.658 940.083L505.265 939.51" fill="#ED1C24"/>
<path d="M510.651 948.674C466.285 930.394 453.815 886.168 441.759 843.367C429.704 800.565 417.228 756.353 373.407 735.724C313.509 707.527 230.812 707.786 164.354 707.985C104.691 708.174 57.5393 708.315 42.0768 689.436C37.2329 683.523 35.7074 675.94 37.5192 666.898C38.5385 661.895 41.3609 657.08 46.1143 652.264C59.0738 635.396 102.584 627.867 148.627 619.9C169.435 616.299 190.953 612.576 209.653 607.943C225.581 603.993 238.086 587.655 243.128 564.252C248.852 537.571 243.921 500.148 219.594 481.045C190.646 458.311 155.28 446.866 124.062 436.797C120.241 435.556 116.51 434.353 112.884 433.152C88.5351 425.05 69.8316 424.037 53.3278 423.141C31.445 421.959 14.1516 421.022 -5.54813 404.502C-20.7687 391.716 -31.9036 374.864 -41.7235 359.979C-55.1085 339.635 -66.6822 322.089 -84.4057 319.469L-83.6092 314.097C-63.4859 317.079 -51.2869 335.558 -37.1663 356.962C-27.0807 372.25 -16.6536 388.053 -2.03864 400.312C16.2762 415.668 32.7912 416.577 53.6427 417.693C70.489 418.608 89.5754 419.64 114.613 427.969C118.197 429.152 121.946 430.371 125.753 431.606C155.825 441.333 193.245 453.445 222.959 476.771C234.702 485.999 243.228 499.895 247.603 516.966C251.554 532.826 251.847 549.376 248.459 565.365C242.996 590.859 228.962 608.733 210.999 613.197C192.113 617.883 170.499 621.624 149.597 625.235C106.475 632.712 61.9108 640.409 50.3702 655.67L50.1339 655.948C45.9802 660.099 43.7035 663.925 42.8803 667.959C41.3686 675.423 42.4767 681.311 46.2934 685.962C60.1391 702.855 108.427 702.702 164.347 702.526C231.353 702.325 314.754 702.055 375.73 730.777C421.793 752.468 434.608 797.912 446.994 841.867C459.231 885.297 470.815 926.357 512.716 943.622L513.51 943.949C552.754 959.776 589.051 940.464 621 923.4C647.168 909.458 671.868 896.313 694.758 903.806L693.065 908.963C672.383 902.177 648.673 914.818 623.558 928.2C590.521 945.809 553.073 965.763 511.484 948.985L510.662 948.647" fill="white"/>
<path d="M515.953 957.822C472.214 939.8 464.378 892.866 456.791 847.459C449.049 801.028 440.995 753.002 395.637 732.921C339.856 708.211 258.82 716.614 187.276 723.977C124.778 730.433 75.43 735.491 58.3621 716.912C52.8768 710.954 51.0693 702.791 52.9763 692.648C53.9247 687.599 56.1968 682.322 59.9286 676.506C74.5002 650.311 116.913 633.804 189.592 626.038C219.304 622.864 238.67 605.746 244.193 577.875C251.461 541.024 232.813 493.804 205.085 478.804C177.356 463.804 141.131 453.455 111.978 445.116C104.526 442.982 97.4815 440.967 91.4159 439.087C84.1904 436.859 77.6263 434.904 71.2658 433.008C32.4292 421.428 11.0251 415.052 -11.5869 391.745C-20.512 382.554 -27.888 372.43 -35.0201 362.643C-50.0276 342.087 -62.9888 324.311 -85.166 321.314L-84.4251 315.919C-59.9149 319.242 -45.6771 338.781 -30.5955 359.474C-23.5793 369.108 -16.3163 379.071 -7.66104 387.988C13.9688 410.279 34.8765 416.516 72.8322 427.823C79.1997 429.721 85.7917 431.688 93.0269 433.912C99.0468 435.765 106.091 437.78 113.498 439.904C142.9 448.313 179.495 458.79 207.684 474.037C237.265 490.036 257.206 540.044 249.54 578.929C243.524 609.342 222.452 628.03 190.189 631.447C120.294 638.919 78.0524 654.991 64.6029 679.214L64.537 679.374C61.162 684.62 59.1227 689.293 58.3001 693.661C56.701 702.147 58.0261 708.557 62.3416 713.242C77.5806 729.798 128.154 724.593 186.722 718.561C258.93 711.13 340.823 702.722 397.84 727.949C445.88 749.209 454.153 798.701 462.161 846.561C469.841 892.511 477.1 935.926 518.041 952.794L518.375 952.932C558.409 969.256 594.418 945.322 626.18 924.207C651.358 907.471 675.132 891.672 696.696 899.596L694.823 904.696C675.858 897.696 654.227 912.09 629.195 928.731C596.302 950.594 559.024 975.373 516.328 957.96L515.973 957.814" fill="#F5CE00"/>
<path d="M521.152 966.927C477.99 949.143 474.686 899.451 471.498 851.394C468.176 801.271 464.743 749.441 417.871 730.128C366.696 709.043 284.536 725.175 212.045 739.403C156.659 750.279 107.657 759.911 83.5288 749.969C79.4359 748.391 75.8031 745.813 72.9614 742.472C65.6347 733.532 65.9113 719.876 73.8108 700.704C86.3139 670.358 119.677 660.734 155.008 650.543C192.263 639.794 230.792 628.681 245.962 591.862C255.479 568.763 234.661 499.42 190.035 479.656C161.385 466.972 125.368 457.898 96.4355 450.602C86.7471 448.166 77.5846 445.856 69.6822 443.651C17.9751 429.333 -3.81494 398.596 -23.0835 371.463C-39.9852 347.617 -54.5827 327.034 -85.9858 323.126L-85.3191 317.733C-51.5309 321.94 -35.5565 344.458 -18.6478 368.306C0.0704285 394.7 21.2943 424.617 71.1188 438.444C78.9614 440.617 88.0863 442.919 97.7538 445.347C126.888 452.685 163.143 461.817 192.223 474.702C240.292 495.991 261.387 568.656 250.969 593.941C234.8 633.183 195.002 644.668 156.508 655.778C122.479 665.593 90.3362 674.866 78.8399 702.768C71.7723 719.921 71.229 731.774 77.1694 739.018C92.2151 757.367 149.921 746.037 211.012 734.042C284.256 719.668 367.265 703.373 419.923 725.069C469.92 745.67 473.457 799.245 476.905 851C480.109 899.551 483.161 945.369 523.238 961.882C564.165 978.745 599.979 949.991 631.576 924.631C656.715 904.451 678.425 887.02 698.634 895.347L696.563 900.373C679.32 893.268 658.77 909.76 634.978 928.866C602.207 955.177 565.07 984.99 521.17 966.902" fill="#1A4EA2"/>
</g>
<defs>
<clipPath id="clip0">
<rect width="944.936" height="429.818" fill="white" transform="translate(-62.226 261.686) rotate(22.393)"/>
</clipPath>
</defs>
</svg>
