<svg width="31" height="31" viewBox="0 0 31 31" fill="none" xmlns="http://www.w3.org/2000/svg">
<path d="M24.5624 18.7218C28.1178 15.2752 28.1178 9.68717 24.5624 6.24059C21.007 2.79401 15.2425 2.79401 11.6871 6.24059C8.13173 9.68717 8.13173 15.2752 11.6871 18.7218C15.2425 22.1683 21.007 22.1683 24.5624 18.7218Z" stroke="#344154" stroke-width="1.5" stroke-miterlimit="10"/>
<path d="M10.9236 18.0339L8.66089 20.3728L10.5956 22.1324L12.8608 19.7961" stroke="#344154" stroke-width="1.5" stroke-miterlimit="10"/>
<path d="M6.39824 27.8797L10.7431 23.3943C10.8965 23.2348 10.9786 23.023 10.9715 22.805C10.9643 22.5871 10.8685 22.3807 10.705 22.231L8.55162 20.2742C8.47068 20.2 8.37541 20.1421 8.27129 20.1038C8.16717 20.0655 8.05626 20.0475 7.94495 20.051C7.83364 20.0544 7.72414 20.0792 7.62274 20.1238C7.52135 20.1685 7.43007 20.2321 7.35417 20.3111L3.00928 24.7966" stroke="#344154" stroke-width="1.5" stroke-miterlimit="10" stroke-linecap="round"/>
<path d="M3.00926 24.7967L1.22959 26.6451C1.1534 26.7237 1.09395 26.8161 1.05463 26.917C1.0153 27.0179 0.996887 27.1253 1.00043 27.2331C1.00397 27.3409 1.0294 27.447 1.07527 27.5453C1.12113 27.6436 1.18653 27.7321 1.26773 27.8059L3.42112 29.7775C3.50222 29.8514 3.59754 29.909 3.70163 29.9471C3.80572 29.9852 3.91654 30.0031 4.02776 29.9996C4.13897 29.9962 4.2484 29.9716 4.34978 29.9271C4.45115 29.8826 4.5425 29.8192 4.61858 29.7405L6.39825 27.8921" stroke="#344154" stroke-width="1.5" stroke-miterlimit="10" stroke-linecap="round"/>
</svg>
