<svg width="35" height="24" viewBox="0 0 35 24" fill="none" xmlns="http://www.w3.org/2000/svg">
<g clip-path="url(#clip0)">
<path d="M34.9999 12.0093C34.9953 12.248 34.9012 12.4753 34.7378 12.6424C34.5745 12.8095 34.3549 12.9031 34.1263 12.903H0.873584C0.689747 12.9208 0.50534 12.876 0.347885 12.7753C0.19043 12.6746 0.0683698 12.5235 -7.86781e-05 12.3444C-0.0684432 12.1802 -0.087997 11.9984 -0.0562057 11.8224C-0.0244144 11.6465 0.0572562 11.4845 0.17822 11.3576L10.8761 0.18617C10.9538 0.0885171 11.0501 0.00885305 11.1588 -0.0477302C11.2676 -0.104313 11.3865 -0.136571 11.5079 -0.142441C11.6293 -0.148311 11.7506 -0.127664 11.8639 -0.0818204C11.9773 -0.0359766 12.0802 0.0340555 12.1661 0.123799C12.2521 0.213543 12.3191 0.321025 12.363 0.439373C12.4069 0.557721 12.4267 0.684332 12.4211 0.811114C12.4155 0.937895 12.3846 1.06206 12.3304 1.17566C12.2762 1.28927 12.1999 1.38982 12.1064 1.47089L2.95968 11.1714H34.1263C34.3461 11.1707 34.5582 11.2565 34.7201 11.4118C34.8821 11.5671 34.982 11.7805 34.9999 12.0093Z" fill="#231F20"/>
<path d="M12.3561 23.1063C12.3547 23.3431 12.2652 23.5701 12.1064 23.7393C11.9428 23.9087 11.7217 24.0038 11.4913 24.0038C11.2609 24.0038 11.0398 23.9087 10.8762 23.7393L0.178269 12.5679C0.0437203 12.3851 -0.0195529 12.1558 0.00117466 11.9263C0.0219023 11.6967 0.125093 11.4839 0.289995 11.3305C0.454896 11.1772 0.669277 11.0948 0.890022 11.0998C1.11077 11.1048 1.3215 11.1969 1.47985 11.3576L12.1778 22.5291C12.2949 22.6966 12.3574 22.8989 12.3561 23.1063Z" fill="#231F20"/>
</g>
<defs>
<clipPath id="clip0">
<rect width="35" height="24" fill="white"/>
</clipPath>
</defs>
</svg>
