<svg width="16" height="15" viewBox="0 0 16 15" fill="none" xmlns="http://www.w3.org/2000/svg">
<path d="M7.90566 14.4977C5.90388 14.4231 4.05254 13.6135 2.69262 12.2181C1.33276 10.8225 0.627111 9.00821 0.705717 7.10926C0.784322 5.21031 1.63777 3.45406 3.1088 2.164C4.57988 0.873996 6.49245 0.204598 8.49423 0.279166C10.496 0.353734 12.3474 1.16334 13.7073 2.5588C15.0671 3.95432 15.7728 5.76864 15.6942 7.66759C15.6156 9.56654 14.7621 11.3228 13.2911 12.6129C11.82 13.9029 9.90744 14.5723 7.90566 14.4977ZM8.44825 1.38999C4.96159 1.26011 2.0136 3.84533 1.87669 7.15288C1.73978 10.4604 4.46498 13.257 7.95164 13.3869C11.4383 13.5167 14.3863 10.9315 14.5232 7.62397C14.6601 4.31642 11.9349 1.51987 8.44825 1.38999ZM10.7381 10.0397C10.9757 9.83129 10.9903 9.47964 10.7706 9.25423C10.5509 9.0288 10.1802 9.01502 9.94265 9.22339C8.87501 10.1596 7.20356 10.0974 6.21661 9.08459C5.73855 8.59398 5.49046 7.95613 5.5181 7.28853C5.54573 6.62092 5.84578 6.00349 6.36292 5.54995C7.43056 4.6137 9.102 4.67602 10.089 5.68875C10.3086 5.91419 10.6793 5.92799 10.917 5.7196C11.1546 5.5112 11.1691 5.15954 10.9495 4.93413C9.52388 3.47125 7.10951 3.38134 5.56744 4.73365C4.82038 5.38875 4.38701 6.2806 4.34709 7.24491C4.30718 8.20921 4.6655 9.13055 5.3561 9.83921C6.06887 10.5706 7.02884 10.9588 8.00341 10.9951C8.97799 11.0315 9.9671 10.7158 10.7381 10.0397Z" fill="white"/>
</svg>
