<svg width="19" height="19" viewBox="0 0 19 19" fill="none" xmlns="http://www.w3.org/2000/svg">
<g clip-path="url(#clip0)">
<path d="M9.50001 19C6.98297 18.9974 4.56962 17.9965 2.78888 16.2167C1.00813 14.4369 0.00524713 12.0233 1.0103e-05 9.50496C-0.00295389 7.47198 0.646334 5.49171 1.85234 3.85554C3.05835 2.21936 4.75739 1.01367 6.69949 0.415855C8.52534 -0.138862 10.4747 -0.138862 12.3005 0.415855C13.591 0.814256 14.7814 1.48419 15.7918 2.38072C16.8022 3.27724 17.6093 4.37962 18.1589 5.61387C18.7159 6.83522 19.0028 8.16248 19 9.50496C18.9948 12.0233 17.9919 14.4369 16.2111 16.2167C14.4304 17.9965 12.017 18.9974 9.50001 19ZM9.50001 0.990112C7.80925 0.988162 6.15597 1.48838 4.74962 2.4274C3.34326 3.36642 2.24714 4.70196 1.60012 6.26484C0.953106 7.82771 0.784313 9.54756 1.11513 11.2065C1.44595 12.8654 2.26148 14.3888 3.45842 15.5836C4.65535 16.7784 6.17981 17.5908 7.83865 17.9179C9.49749 18.2451 11.2161 18.0722 12.7766 17.4212C14.3372 16.7702 15.6695 15.6704 16.6047 14.2612C17.54 12.8519 18.0361 11.1966 18.0302 9.50496C18.0361 7.67775 17.4543 5.89712 16.3708 4.42619C15.2873 2.95526 13.7597 1.87206 12.0136 1.33665C11.1975 1.09728 10.3504 0.980493 9.50001 0.990112Z" fill="white"/>
<path d="M14.3886 10.4455H9.50003C9.43683 10.4468 9.37399 10.4355 9.31522 10.4122C9.25644 10.3889 9.2029 10.3541 9.15774 10.3099C9.11258 10.2656 9.0767 10.2128 9.05222 10.1545C9.02773 10.0962 9.01512 10.0335 9.01514 9.97028V4.49504C9.01514 4.36637 9.06622 4.24297 9.15716 4.15198C9.2481 4.061 9.37143 4.00989 9.50003 4.00989C9.56325 4.00987 9.62584 4.02249 9.68412 4.04699C9.74241 4.07149 9.79522 4.10738 9.83946 4.15257C9.8837 4.19775 9.91848 4.25132 9.94176 4.31012C9.96504 4.36893 9.97635 4.4318 9.97503 4.49504V9.44553H14.3886C14.4518 9.44552 14.5144 9.45813 14.5727 9.48263C14.6309 9.50713 14.6838 9.54302 14.728 9.58821C14.7722 9.63339 14.807 9.68696 14.8303 9.74577C14.8536 9.80457 14.8649 9.86744 14.8636 9.93068C14.8707 9.99666 14.8635 10.0634 14.8427 10.1264C14.8219 10.1894 14.7879 10.2472 14.7429 10.296C14.6979 10.3447 14.643 10.3833 14.5819 10.4091C14.5208 10.4349 14.4549 10.4473 14.3886 10.4455Z" fill="white"/>
</g>
<defs>
<clipPath id="clip0">
<rect width="19" height="19" fill="white"/>
</clipPath>
</defs>
</svg>
