<svg width="193" height="58" viewBox="0 0 193 58" fill="none" xmlns="http://www.w3.org/2000/svg">
<path d="M118.479 34.5346C117.383 40.1526 114.64 45.3202 110.598 49.384C106.557 53.4478 101.397 56.2252 95.7726 57.3651C90.1478 58.505 84.3105 57.9561 78.9986 55.7879C73.6867 53.6196 69.1389 49.9294 65.9303 45.1839C62.7217 40.4384 60.9963 34.8506 60.9724 29.1273C60.9485 23.404 62.6272 17.8021 65.7961 13.0301C68.965 8.25812 73.4818 4.53029 78.7754 2.31803C84.069 0.105769 89.9016 -0.491554 95.5356 0.601595C103.091 2.06773 109.752 6.46641 114.055 12.83C118.358 19.1937 119.949 27.001 118.479 34.5346Z" fill="#E3E3E3"/>
<path d="M72.3598 15.4221C71.7869 14.7354 71.179 14.0905 70.5516 13.4678C70.5127 13.4872 70.4719 13.5037 70.4329 13.5231C69.2908 14.0947 68.196 14.756 67.1589 15.5007C71.8359 19.7689 74.6672 25.6818 75.0556 31.9919C75.4439 38.3019 73.3589 44.5157 69.2405 49.3221C70.1353 50.2309 71.0893 51.0798 72.0962 51.8633C76.4393 46.7937 78.8474 40.3575 78.8956 33.6902C78.9439 27.0228 76.6291 20.5527 72.3598 15.4212V15.4221Z" fill="#E3000B"/>
<path d="M83.6155 29.2332C81.2421 26.3746 78.3238 24.0136 75.0294 22.2871C71.735 20.5605 68.1299 19.5025 64.4228 19.1743C63.9977 19.1355 63.5746 19.12 63.1515 19.1016C62.8772 19.4081 62.6107 19.722 62.352 20.0433C62.0542 20.9717 61.8032 21.9143 61.6001 22.8677H61.7762C62.5374 22.8677 63.3023 22.9033 64.0707 22.9744C67.9656 23.3277 71.7189 24.606 75.0168 26.7023C78.3147 28.7986 81.0612 31.652 83.0265 35.0237C84.9918 38.3954 86.1188 42.1873 86.3131 46.0823C86.5075 49.9773 85.7636 53.8621 84.1437 57.4117C84.2409 57.4321 84.3382 57.4573 84.4355 57.4767C85.6369 57.7066 86.8515 57.8618 88.0723 57.9413C90.0029 53.2016 90.6081 48.0285 89.8232 42.973C89.0384 37.9174 86.893 33.1689 83.6155 29.2332Z" fill="#E3000B"/>
<path d="M107.421 5.78174C106.452 9.55558 104.589 13.0424 101.988 15.9492C102.876 16.8823 103.698 17.8753 104.449 18.921C107.232 15.9489 109.331 12.4073 110.6 8.54305C109.608 7.54753 108.546 6.62469 107.421 5.78174ZM81.4503 24.0159C75.5094 23.4898 69.9691 20.8062 65.8818 16.4749C64.8967 17.2832 63.9764 18.1669 63.1292 19.1179C67.8508 24.1105 74.2442 27.2037 81.0992 27.8121C81.9882 27.8936 82.8727 27.934 83.7527 27.9333C90.2646 27.9389 96.5764 25.6888 101.609 21.5679C100.896 20.5132 100.102 19.516 99.2327 18.5854C94.2613 22.6715 87.8681 24.6257 81.4542 24.0198L81.4503 24.0159Z" fill="black"/>
<path d="M91.1207 0.0231368C88.245 -0.0918623 85.3681 0.222297 82.5855 0.955211C88.734 2.19542 94.1712 5.74001 97.7768 10.8586C101.382 15.9772 102.882 22.2799 101.966 28.468C101.05 34.6561 97.7886 40.2582 92.8539 44.12C87.9191 47.9818 81.6869 49.809 75.4413 49.2253C72.575 48.966 69.7767 48.207 67.1736 46.9829C68.9394 49.2147 71.0248 51.1754 73.3627 52.8023C74.799 53.024 76.2502 53.1362 77.7037 53.1379C84.0115 53.1376 90.1388 51.0377 95.1139 47.1709C100.089 43.3042 103.627 37.892 105.168 31.7926C106.708 25.6931 106.162 19.2554 103.617 13.5004C101.071 7.74528 96.6723 3.00218 91.1168 0.0231368H91.1207Z" fill="black"/>
<path d="M113.238 46.4421C114.826 44.3362 116.117 42.0231 117.075 39.5674C114.495 41.7273 111.495 43.3335 108.264 44.2857C105.033 45.2379 101.64 45.5157 98.2967 45.1017C94.9533 44.6877 91.7313 43.5909 88.8319 41.8797C85.9326 40.1685 83.4182 37.8796 81.4457 35.156C79.4732 32.4324 78.085 29.3326 77.3677 26.05C76.6504 22.7675 76.6195 19.3728 77.2768 16.0778C77.9341 12.7828 79.2656 9.6583 81.1882 6.89941C83.1107 4.14051 85.583 1.80646 88.4506 0.0429688C85.7931 0.183165 83.1677 0.688736 80.6488 1.54535C76.2003 6.33954 73.5545 12.5222 73.1613 19.042C72.768 25.5618 74.6517 32.0161 78.4919 37.3074C82.3321 42.5986 87.8918 46.4002 94.2255 48.0655C100.559 49.7309 107.276 49.1572 113.233 46.4421H113.238Z" fill="#F8D200"/>
<path d="M117.946 21.0078C117.589 19.771 117.151 18.5592 116.634 17.3803C110.683 18.4012 104.565 17.1943 99.4522 13.9914C94.3397 10.7885 90.5939 5.8154 88.934 0.0268555C87.6388 0.0718555 86.348 0.203736 85.0706 0.421605C85.5715 2.32754 86.2698 4.1764 87.154 5.93841C88.814 9.2603 91.1182 12.2209 93.9333 14.6489C96.7484 17.0769 100.018 18.9241 103.554 20.0835C106.451 21.0485 109.485 21.5421 112.54 21.5451C114.355 21.5413 116.166 21.3614 117.946 21.0078Z" fill="white"/>
<path d="M70.1595 50.2157C68.4694 44.3586 69.0348 38.0833 71.7447 32.6204C74.4546 27.1575 79.1136 22.9013 84.8078 20.6866C90.502 18.4718 96.8206 18.4583 102.524 20.6487C108.228 22.8391 112.905 27.0754 115.639 32.5266C116.518 34.2778 117.185 36.1276 117.625 38.0366C118.409 35.677 118.877 33.2246 119.019 30.743C116.101 25.0012 111.306 20.4242 105.426 17.7689C99.5457 15.1135 92.9329 14.5388 86.6807 16.1398C80.4286 17.7408 74.9116 21.4216 71.0421 26.5735C67.1725 31.7254 65.1822 38.0399 65.4002 44.4729C66.7337 46.5823 68.3332 48.5123 70.1595 50.2157Z" fill="#204094"/>
<path d="M68.7181 10.113C68.2317 10.3564 67.7561 10.6163 67.2873 10.8889C65.0867 13.6231 63.4056 16.7352 62.3267 20.0719C64.6113 17.2249 67.5078 14.9256 70.8025 13.3438C74.0972 11.762 77.7061 10.938 81.3628 10.9325C84.0053 10.9345 86.6303 11.3602 89.1373 12.1934C93.7358 13.719 97.7775 16.5696 100.752 20.385C103.726 24.2005 105.499 28.8094 105.847 33.6294C106.195 38.4495 105.103 43.2642 102.707 47.4652C100.312 51.6662 96.7217 55.0649 92.3899 57.2318C91.8277 57.513 91.2558 57.7642 90.679 57.9999C94.187 57.9194 97.651 57.2029 100.902 55.8855C105.834 51.2241 108.922 44.9504 109.603 38.2081C110.284 31.4658 108.513 24.7041 104.611 19.1555C100.71 13.607 94.939 9.64134 88.3503 7.98146C81.7616 6.32157 74.7941 7.07804 68.7181 10.113Z" fill="white"/>
<path d="M90.2132 17.8295C93.1103 18.7944 96.1443 19.2876 99.1987 19.2902C103.59 19.2865 107.921 18.2592 111.843 16.2903C112.969 15.7247 114.056 15.0851 115.097 14.3757C114.451 13.273 113.732 12.2138 112.946 11.2051C112.044 11.8255 111.102 12.3854 110.126 12.8811C104.452 15.7128 97.8975 16.2385 91.8428 14.3474C85.7881 12.4563 80.7056 8.29599 77.6657 2.74268C76.5044 3.28711 75.3802 3.90692 74.3003 4.5981C77.7228 10.867 83.4136 15.5989 90.2132 17.8295Z" fill="#DA3527"/>
<path d="M175.9 11.7759H174.265V22.1422H175.9V11.7759Z" fill="black"/>
<path d="M180.266 22.1422L177.609 16.6681L179.989 11.7759H178.266L175.93 16.7408L178.456 22.1422H180.266Z" fill="black"/>
<path d="M190.519 16.2314H187.57V17.7018H190.519V16.2314Z" fill="black"/>
<path d="M149.699 22.2624C150.027 22.2801 150.355 22.2311 150.664 22.1186C150.973 22.0061 151.256 21.8323 151.495 21.6077C152.064 21.0125 152.374 20.2167 152.356 19.3944H150.721C150.729 19.75 150.643 20.1014 150.473 20.4138C150.382 20.5326 150.264 20.6286 150.129 20.6943C149.994 20.7599 149.846 20.7933 149.695 20.7919C149.545 20.7905 149.398 20.7543 149.264 20.6861C149.13 20.618 149.014 20.5198 148.925 20.3992C148.604 19.9036 148.561 18.8561 148.561 16.9629C148.561 15.0696 148.604 14.0221 148.925 13.5265C149.014 13.406 149.13 13.3078 149.264 13.2396C149.398 13.1715 149.545 13.1352 149.695 13.1338C149.846 13.1324 149.994 13.1659 150.129 13.2315C150.264 13.2971 150.382 13.3931 150.473 13.512C150.645 13.8183 150.731 14.1656 150.721 14.5168H152.356C152.368 14.1161 152.301 13.7169 152.158 13.342C152.016 12.9672 151.8 12.6242 151.524 12.3326C151.28 12.1054 150.993 11.9292 150.679 11.8143C150.366 11.6994 150.032 11.6481 149.699 11.6633C149.317 11.6455 148.936 11.7165 148.586 11.8707C148.237 12.0249 147.928 12.258 147.684 12.5518C146.998 13.3665 146.925 14.5022 146.925 16.9629C146.925 19.4235 146.998 20.5593 147.684 21.375C147.928 21.6683 148.237 21.9012 148.587 22.0552C148.936 22.2092 149.317 22.2801 149.699 22.2624Z" fill="black"/>
<path d="M136.582 22.2623C136.964 22.2802 137.345 22.2093 137.694 22.0553C138.044 21.9013 138.353 21.6683 138.597 21.3749C139.298 20.5592 139.356 19.4234 139.356 16.9628C139.356 14.5021 139.298 13.3664 138.597 12.5517C138.341 12.2718 138.03 12.0482 137.683 11.8951C137.336 11.7421 136.961 11.6631 136.582 11.6631C136.202 11.6631 135.827 11.7421 135.48 11.8951C135.133 12.0482 134.822 12.2718 134.567 12.5517C133.886 13.3809 133.807 14.5021 133.807 16.9628C133.807 19.4234 133.881 20.5446 134.567 21.3749C134.811 21.6684 135.12 21.9013 135.47 22.0553C135.819 22.2093 136.2 22.2802 136.582 22.2623ZM135.804 13.5264C135.885 13.396 136 13.2903 136.138 13.221C136.275 13.1517 136.429 13.1215 136.582 13.1336C136.737 13.1224 136.892 13.1529 137.03 13.2221C137.169 13.2912 137.286 13.3963 137.37 13.5264C137.677 14.022 137.721 15.0705 137.721 16.9628C137.721 18.8551 137.677 19.9035 137.37 20.3991C137.286 20.5292 137.169 20.6344 137.03 20.7035C136.892 20.7726 136.737 20.8032 136.582 20.7919C136.429 20.8041 136.275 20.7738 136.138 20.7045C136 20.6352 135.885 20.5296 135.804 20.3991C135.498 19.9035 135.439 18.856 135.439 16.9628C135.439 15.0695 135.503 14.0182 135.81 13.5235L135.804 13.5264Z" fill="black"/>
<path d="M183.659 22.2623C184.041 22.28 184.422 22.2091 184.771 22.0551C185.121 21.9011 185.43 21.6682 185.674 21.3749C186.375 20.5592 186.433 19.4234 186.433 16.9628C186.433 14.5021 186.375 13.3664 185.674 12.5517C185.418 12.2718 185.107 12.0482 184.76 11.8951C184.413 11.7421 184.038 11.6631 183.659 11.6631C183.279 11.6631 182.904 11.7421 182.557 11.8951C182.21 12.0482 181.899 12.2718 181.644 12.5517C180.957 13.3809 180.884 14.5021 180.884 16.9628C180.884 19.4234 180.957 20.5446 181.644 21.3749C181.888 21.6684 182.197 21.9013 182.547 22.0553C182.897 22.2093 183.277 22.2802 183.659 22.2623ZM182.881 13.5264C182.962 13.396 183.078 13.2903 183.215 13.221C183.352 13.1517 183.506 13.1215 183.659 13.1336C183.814 13.1224 183.969 13.1529 184.107 13.2221C184.246 13.2912 184.363 13.3963 184.447 13.5264C184.755 14.022 184.797 15.0705 184.797 16.9628C184.797 18.8551 184.755 19.9035 184.447 20.3991C184.363 20.5292 184.246 20.6344 184.107 20.7035C183.969 20.7726 183.814 20.8032 183.659 20.7919C183.506 20.8041 183.352 20.7738 183.215 20.7045C183.078 20.6352 182.962 20.5296 182.881 20.3991C182.575 19.9035 182.516 18.856 182.516 16.9628C182.516 15.0695 182.575 14.0182 182.881 13.5235V13.5264Z" fill="black"/>
<path d="M163.443 11.1207C163.681 11.1539 163.923 11.1344 164.153 11.0638C164.383 10.9932 164.595 10.8732 164.773 10.7121C164.951 10.551 165.092 10.3529 165.185 10.1318C165.278 9.9106 165.321 9.67176 165.311 9.43213H164.216C164.196 9.62261 164.105 9.79885 163.962 9.92693C163.82 10.055 163.634 10.1259 163.442 10.1259C163.25 10.1259 163.065 10.055 162.922 9.92693C162.779 9.79885 162.689 9.62261 162.668 9.43213H161.573C161.563 9.67186 161.607 9.91079 161.7 10.132C161.793 10.3533 161.933 10.5515 162.112 10.7125C162.29 10.8736 162.502 10.9936 162.732 11.0642C162.962 11.1347 163.204 11.154 163.443 11.1207Z" fill="black"/>
<path d="M170.334 22.2624C170.662 22.2799 170.99 22.2309 171.299 22.1184C171.607 22.0059 171.89 21.8322 172.129 21.6077C172.7 21.013 173.009 20.2169 172.991 19.3944H171.356C171.364 19.7501 171.279 20.1017 171.107 20.4138C171.025 20.5423 170.909 20.6457 170.772 20.7124C170.634 20.7792 170.481 20.8068 170.329 20.792C170.176 20.8041 170.022 20.7738 169.885 20.7045C169.747 20.6352 169.632 20.5296 169.551 20.3992C169.23 19.9036 169.186 18.8561 169.186 16.9629C169.186 15.0696 169.23 14.0221 169.551 13.5265C169.632 13.3962 169.747 13.2906 169.885 13.2213C170.022 13.152 170.176 13.1217 170.329 13.1337C170.481 13.119 170.634 13.1466 170.772 13.2133C170.909 13.2801 171.025 13.3834 171.107 13.512C171.28 13.8181 171.366 14.1655 171.356 14.5168H172.991C173.004 14.116 172.936 13.7167 172.793 13.3419C172.651 12.967 172.435 12.624 172.159 12.3326C171.914 12.1054 171.627 11.9292 171.314 11.8143C171.001 11.6993 170.667 11.648 170.334 11.6633C169.952 11.6455 169.571 11.7165 169.221 11.8707C168.871 12.0249 168.562 12.258 168.318 12.5518C167.633 13.3665 167.56 14.5022 167.56 16.9629C167.56 19.4235 167.633 20.5593 168.318 21.375C168.563 21.6683 168.872 21.9012 169.221 22.0552C169.571 22.2092 169.952 22.2801 170.334 22.2624Z" fill="black"/>
<path d="M164.523 15.7942V22.1422H166.158V11.7759H164.698L162.377 18.1239V11.7759H160.741V22.1422H162.187L164.523 15.7942Z" fill="black"/>
<path d="M143.259 22.2624C143.587 22.2799 143.915 22.2309 144.224 22.1184C144.532 22.0059 144.815 21.8322 145.054 21.6077C145.624 21.013 145.934 20.2169 145.916 19.3944H144.281C144.289 19.7501 144.203 20.1015 144.032 20.4138C143.95 20.5423 143.834 20.6457 143.696 20.7124C143.559 20.7792 143.406 20.8068 143.254 20.792C143.1 20.8042 142.947 20.7739 142.809 20.7046C142.672 20.6353 142.557 20.5297 142.476 20.3992C142.155 19.9036 142.111 18.8561 142.111 16.9629C142.111 15.0696 142.155 14.0221 142.476 13.5265C142.557 13.3961 142.672 13.2904 142.809 13.2211C142.947 13.1518 143.1 13.1216 143.254 13.1337C143.406 13.119 143.559 13.1466 143.696 13.2133C143.834 13.2801 143.95 13.3834 144.032 13.512C144.205 13.8182 144.291 14.1655 144.281 14.5168H145.92C145.932 14.116 145.865 13.7167 145.722 13.3419C145.579 12.967 145.364 12.624 145.087 12.3326C144.843 12.1054 144.556 11.9292 144.243 11.8143C143.929 11.6993 143.596 11.648 143.263 11.6633C142.881 11.6455 142.5 11.7165 142.15 11.8707C141.8 12.0249 141.491 12.258 141.247 12.5518C140.566 13.3665 140.488 14.5022 140.488 16.9629C140.488 19.4235 140.561 20.5593 141.247 21.375C141.491 21.6678 141.799 21.9003 142.148 22.0543C142.497 22.2083 142.877 22.2795 143.259 22.2624Z" fill="black"/>
<path d="M157.425 15.7942V22.1422H159.06V11.7759H157.6L155.278 18.1239V11.7759H153.643V22.1422H155.088L157.425 15.7942Z" fill="black"/>
<path d="M130.085 11.7773H127.471V22.1437H129.106V18.0817H130.085C131.968 18.0817 132.757 17.106 132.757 14.9373C132.757 12.7686 131.968 11.7773 130.085 11.7773ZM130.026 16.6113H129.106V13.2429H130.026C130.902 13.2429 131.122 13.884 131.122 14.9324C131.122 15.9809 130.903 16.6113 130.026 16.6113Z" fill="black"/>
<path d="M129.106 27.1173H131.763V25.646H127.471V36.0133H129.106V27.1173Z" fill="black"/>
<path d="M137.269 34.541H134.54V31.5275H136.89V30.0581H134.54V27.1164H137.269V25.646H132.904V36.0123H137.269V34.541Z" fill="black"/>
<path d="M143.9 28.805C143.9 26.6363 143.112 25.646 141.229 25.646H138.615V36.0123H140.25V31.9504H141.229C143.112 31.9504 143.9 30.9746 143.9 28.805ZM141.169 30.479H140.25V27.1173H141.169C142.045 27.1173 142.265 27.7565 142.265 28.805C142.265 29.8534 142.046 30.479 141.169 30.479Z" fill="black"/>
<path d="M145.245 36.0123H146.881V29.6197L148.267 33.799H149.173L150.589 29.5469V36.0123H152.224V25.646H150.735L148.735 31.091L146.72 25.646H145.245V36.0123Z" fill="black"/>
<path d="M157.25 25.646H155.657L153.102 36.0123H154.826L155.235 33.959H157.643L158.068 36.0123H159.776L157.25 25.646ZM155.556 32.4896L156.446 28.1503L157.338 32.4896H155.556Z" fill="black"/>
<path d="M162.317 31.4838H164.347V36.0123H165.982V25.646H164.347V30.0135H162.317V25.646H160.681V36.0123H162.317V31.4838Z" fill="black"/>
<path d="M171.97 35.4724C172.54 34.878 172.85 34.0823 172.832 33.2601H171.197C171.206 33.6154 171.12 33.9668 170.949 34.2785C170.867 34.4069 170.75 34.5102 170.613 34.577C170.476 34.6437 170.323 34.6714 170.171 34.6568C170.018 34.6694 169.864 34.6398 169.727 34.5714C169.59 34.503 169.474 34.3983 169.392 34.2688C169.072 33.7732 169.027 32.7247 169.027 30.8324C169.027 28.9402 169.072 27.8917 169.392 27.3961C169.473 27.2656 169.589 27.1598 169.726 27.0905C169.863 27.0212 170.017 26.991 170.171 27.0033C170.323 26.9887 170.476 27.0164 170.613 27.0833C170.751 27.1502 170.867 27.2538 170.949 27.3825C171.122 27.6883 171.207 28.0354 171.197 28.3863H172.832C172.844 27.9856 172.777 27.5863 172.635 27.2114C172.492 26.8366 172.276 26.4936 172 26.2021C171.756 25.9749 171.469 25.7986 171.155 25.6835C170.842 25.5684 170.508 25.5169 170.174 25.5319C169.792 25.5143 169.412 25.5854 169.062 25.7396C168.712 25.8937 168.403 26.1268 168.159 26.4204C167.472 27.237 167.399 28.3718 167.399 30.8324C167.399 33.2931 167.472 34.4288 168.159 35.2445C168.403 35.5379 168.712 35.7708 169.062 35.9248C169.412 36.0788 169.793 36.1497 170.174 36.132C170.503 36.1492 170.832 36.0996 171.14 35.9862C171.449 35.8728 171.731 35.698 171.97 35.4724Z" fill="black"/>
<path d="M178.119 25.646L175.784 30.6109L178.309 36.0123H180.12L177.462 30.5382L179.842 25.646H178.119Z" fill="black"/>
<path d="M175.754 25.646H174.119V36.0123H175.754V25.646Z" fill="black"/>
<path d="M182.764 25.646L180.208 36.0123H181.932L182.342 33.959H184.75L185.174 36.0123H186.882L184.353 25.646H182.764ZM182.666 32.4896L183.556 28.1503L184.448 32.4896H182.666Z" fill="black"/>
<path d="M190.371 25.646C188.472 25.646 187.713 26.5635 187.713 28.7031C187.713 29.9853 187.976 30.9019 188.924 31.4111L187.378 36.0123H189.086L190.448 31.7612H191.368V36.0123H192.997V25.646H190.371ZM191.364 30.2909H190.356C189.481 30.2909 189.349 29.5625 189.349 28.7031C189.349 27.8438 189.48 27.1164 190.356 27.1164H191.364V30.2909Z" fill="black"/>
<path d="M132.011 39.2104H128.696V42.384C128.719 43.7022 128.5 45.0136 128.052 46.2539H127.551V48.5167H128.461V47.1093H131.722V48.5167H132.633V46.2539H132.011V39.2104ZM131.054 46.2539H129.03C129.446 45.0796 129.645 43.8402 129.619 42.5954V40.0649H131.054V46.2539Z" fill="black"/>
<path d="M135.13 39.1231C134.875 39.1123 134.62 39.1584 134.384 39.2581C134.149 39.3577 133.938 39.5084 133.768 39.6992C133.258 40.2647 133.19 40.9747 133.19 43.1598C133.19 45.345 133.258 46.055 133.768 46.6205C133.944 46.8029 134.155 46.948 134.388 47.0472C134.621 47.1463 134.872 47.1975 135.125 47.1975C135.379 47.1975 135.63 47.1463 135.863 47.0472C136.096 46.948 136.307 46.8029 136.482 46.6205C136.994 46.055 137.061 45.345 137.061 43.1598C137.061 40.9747 136.994 40.2647 136.482 39.6992C136.313 39.5096 136.105 39.3595 135.871 39.2599C135.637 39.1603 135.384 39.1136 135.13 39.1231ZM135.774 46.0434C135.7 46.1426 135.602 46.222 135.49 46.2743C135.378 46.3266 135.254 46.3503 135.13 46.3431C135.005 46.3503 134.879 46.3268 134.765 46.2746C134.65 46.2223 134.55 46.1429 134.474 46.0434C134.194 45.6661 134.151 45.0337 134.151 43.1598C134.151 41.286 134.194 40.6536 134.474 40.2754C134.551 40.1762 134.651 40.0972 134.765 40.045C134.879 39.9928 135.005 39.969 135.13 39.9757C135.254 39.9689 135.377 39.9927 135.49 40.045C135.602 40.0973 135.7 40.1764 135.774 40.2754C136.053 40.6536 136.109 41.285 136.109 43.1598C136.109 45.0347 136.053 45.6661 135.774 46.0434Z" fill="black"/>
<path d="M139.813 39.2104H138.033V47.1093H138.991V43.8117H139.813C140.993 43.8117 141.693 43.2462 141.693 41.5178C141.693 39.7652 141.015 39.2104 139.813 39.2104ZM139.78 42.9601H138.991V40.0649H139.78C140.425 40.0649 140.737 40.4529 140.737 41.5198C140.737 42.5867 140.425 42.9601 139.78 42.9601Z" fill="black"/>
<path d="M144.455 39.1231C144.199 39.1123 143.945 39.1584 143.709 39.2581C143.474 39.3577 143.263 39.5084 143.093 39.6992C142.582 40.2647 142.51 40.9747 142.51 43.1598C142.51 45.345 142.578 46.055 143.093 46.6205C143.269 46.8029 143.479 46.948 143.712 47.0471C143.946 47.1463 144.196 47.1974 144.45 47.1974C144.703 47.1974 144.954 47.1463 145.187 47.0471C145.42 46.948 145.631 46.8029 145.806 46.6205C146.318 46.055 146.385 45.345 146.385 43.1598C146.385 40.9747 146.318 40.2647 145.806 39.6992C145.638 39.5096 145.429 39.3596 145.195 39.2599C144.962 39.1603 144.709 39.1136 144.455 39.1231ZM145.099 46.0434C145.025 46.1425 144.927 46.2218 144.815 46.2741C144.703 46.3264 144.579 46.3501 144.455 46.3431C144.329 46.3505 144.204 46.327 144.089 46.2748C143.975 46.2225 143.875 46.1431 143.799 46.0434C143.518 45.6661 143.475 45.0337 143.475 43.1598C143.475 41.286 143.518 40.6536 143.799 40.2754C143.876 40.1762 143.976 40.0972 144.09 40.045C144.204 39.9928 144.33 39.969 144.455 39.9757C144.579 39.9691 144.702 39.993 144.815 40.0452C144.927 40.0975 145.025 40.1765 145.099 40.2754C145.377 40.6536 145.433 41.285 145.433 43.1598C145.433 45.0347 145.377 45.6661 145.099 46.0434Z" fill="black"/>
<path d="M153.887 39.2114H152.853L150.929 42.9931L153.009 47.1084H154.065L151.93 42.9494L153.887 39.2114Z" fill="black"/>
<path d="M150.907 39.2114H149.951V47.1084H150.907V39.2114Z" fill="black"/>
<path d="M146.913 39.2114L148.915 42.9494L146.736 47.1084H147.78L149.927 42.9931L147.936 39.2114H146.913Z" fill="black"/>
<path d="M157.428 42.6614H155.671V39.2114H154.714V47.1084H155.671V43.5255H157.428V47.1084H158.385V39.2114H157.428V42.6614Z" fill="black"/>
<path d="M160.834 39.2114L158.986 47.1084H159.987L160.366 45.2442H162.2L162.579 47.1084H163.591L161.756 39.2114H160.834ZM160.542 44.3907L161.288 40.7536L162.021 44.3907H160.542Z" fill="black"/>
<path d="M164.073 41.4664C164.073 42.5634 164.339 43.2123 165.028 43.5285L163.817 47.1084H164.828L165.92 43.7137H166.775V47.1084H167.732V39.2114H165.941C164.739 39.2114 164.073 39.7332 164.073 41.4664ZM166.774 42.8747H165.929C165.194 42.8747 165.028 42.3093 165.028 41.4664C165.028 40.6236 165.194 40.0678 165.929 40.0678H166.774V42.8747Z" fill="black"/>
<path d="M171.538 39.2114H170.581V47.1084H171.538V39.2114Z" fill="black"/>
<path d="M176.501 39.2114L174.694 46.9386L172.55 42.9494L174.586 39.2114H173.551L171.56 42.994L173.707 47.1084H175.652L176.032 45.2442H177.866L178.245 47.1084H179.256L177.423 39.2114H176.501ZM176.209 44.3907L176.953 40.7536L177.687 44.3907H176.209Z" fill="black"/>
<path d="M181.653 39.2104H179.872V47.1093H180.829V43.8117H181.653C182.832 43.8117 183.532 43.2462 183.532 41.5178C183.532 39.7652 182.853 39.2104 181.653 39.2104ZM181.617 42.9601H180.827V40.0649H181.617C182.262 40.0649 182.574 40.4529 182.574 41.5198C182.574 42.5867 182.264 42.9601 181.617 42.9601Z" fill="black"/>
<path d="M187.806 39.2104H184.189V40.0649H185.524V47.1084H186.481V40.0649H187.806V39.2104Z" fill="black"/>
<path d="M189.554 39.2114L187.706 47.1084H188.707L189.085 45.2442H190.921L191.299 47.1084H192.31L190.476 39.2114H189.554ZM189.262 44.3907L190.006 40.7536L190.741 44.3907H189.262Z" fill="black"/>
<path d="M49.8503 39.209H48.0693V47.1088H49.0264V43.8112H49.8493C51.0292 43.8112 51.7295 43.2447 51.7295 41.5135C51.7305 39.7638 51.0515 39.209 49.8503 39.209ZM49.8201 42.9596H49.0313V40.0635H49.8201C50.466 40.0635 50.7772 40.4514 50.7772 41.5183C50.7772 42.5852 50.4621 42.9596 49.8201 42.9596Z" fill="black"/>
<path d="M29.0761 39.209L27.228 47.1088H28.227L28.6053 45.2447H30.4408L30.8201 47.1088H31.8317L29.9972 39.209H29.0761ZM28.7843 44.3902L29.5303 40.7511L30.2647 44.3902H28.7843Z" fill="black"/>
<path d="M21.9541 41.4611C21.9541 39.7298 21.2868 39.209 20.0856 39.209H18.2939V47.1088H19.251V43.7142H20.107L21.1983 47.1088H22.2099L20.997 43.525C21.6876 43.204 21.9541 42.56 21.9541 41.4611ZM20.0953 42.8713H19.251V40.0635H20.0953C20.8307 40.0635 20.997 40.6183 20.997 41.4611C20.997 42.3039 20.8346 42.8713 20.0953 42.8713Z" fill="black"/>
<path d="M24.8226 39.1192C24.5669 39.1086 24.312 39.1549 24.0765 39.2547C23.8409 39.3545 23.6306 39.5053 23.4608 39.6962C22.9492 40.2627 22.8821 40.9726 22.8821 43.1578C22.8821 45.343 22.9492 46.054 23.4608 46.6204C23.6364 46.8028 23.8471 46.948 24.0804 47.0472C24.3136 47.1463 24.5646 47.1975 24.8182 47.1975C25.0718 47.1975 25.3227 47.1463 25.556 47.0472C25.7892 46.948 26 46.8028 26.1755 46.6204C26.6881 46.054 26.7591 45.344 26.7591 43.1578C26.7591 40.9717 26.692 40.2627 26.1755 39.6962C26.0065 39.5067 25.7976 39.3567 25.5637 39.257C25.3298 39.1572 25.0768 39.1101 24.8226 39.1192ZM25.4684 46.0443C25.3937 46.1432 25.2957 46.2222 25.183 46.2743C25.0704 46.3264 24.9465 46.35 24.8226 46.343C24.6971 46.3498 24.5718 46.3261 24.4575 46.2741C24.3431 46.2221 24.2431 46.1432 24.166 46.0443C23.8878 45.666 23.844 45.0336 23.844 43.1578C23.844 41.282 23.8878 40.6516 24.166 40.2743C24.2429 40.175 24.3428 40.0958 24.4572 40.0434C24.5715 39.991 24.6969 39.9671 24.8226 39.9736C24.9467 39.9667 25.0707 39.9906 25.1834 40.043C25.2961 40.0955 25.394 40.175 25.4684 40.2743C25.7466 40.6516 25.803 41.283 25.803 43.1578C25.803 45.0326 25.7485 45.666 25.4704 46.0443H25.4684Z" fill="black"/>
<path d="M34.3723 39.2083H32.5476V47.1081H34.3723C34.6256 47.1216 34.8787 47.0788 35.1133 46.9829C35.348 46.8869 35.5583 46.7402 35.7292 46.5534C36.2418 46.0102 36.2972 45.3002 36.2972 43.1587C36.2972 41.0172 36.2418 40.3082 35.7292 39.764C35.5582 39.5773 35.3478 39.4307 35.1132 39.3346C34.8786 39.2385 34.6256 39.1954 34.3723 39.2083ZM35.0172 45.954C34.935 46.0534 34.8306 46.1323 34.7124 46.1845C34.5942 46.2367 34.4655 46.2607 34.3363 46.2546H33.5018V40.0628H34.3363C34.4654 40.0568 34.594 40.0807 34.7121 40.1328C34.8303 40.1848 34.9347 40.2634 35.0172 40.3625C35.3187 40.7281 35.3411 41.3382 35.3411 43.1577C35.3411 44.9773 35.3187 45.5883 35.0172 45.954Z" fill="black"/>
<path d="M39.7568 43.6036L38.1548 39.209H37.2532V47.1088H38.2103V41.5726L39.4456 45.1787H40.035L41.2917 41.4844V47.1088H42.2488V39.209H41.3471L39.7568 43.6036Z" fill="black"/>
<path d="M44.7087 39.209L42.8606 47.1088H43.8624L44.2418 45.2447H46.0762L46.4556 47.1088H47.4672L45.6376 39.209H44.7087ZM44.4169 44.3902L45.1629 40.7511L45.8973 44.3902H44.4169Z" fill="black"/>
<path d="M26.9449 25.6436H25.3088V36.0128H26.9449V25.6436Z" fill="black"/>
<path d="M10.1935 33.5521C10.2111 33.6929 10.1979 33.8357 10.155 33.9709C10.1121 34.1061 10.0404 34.2305 9.94476 34.3355C9.84916 34.4405 9.73193 34.5236 9.60111 34.5793C9.47029 34.6349 9.32896 34.6617 9.18679 34.6578C9.04384 34.6622 8.90161 34.6359 8.76974 34.5806C8.63788 34.5254 8.51947 34.4425 8.42252 34.3377C8.32557 34.2328 8.25237 34.1084 8.20785 33.9729C8.16334 33.8373 8.14856 33.6939 8.16452 33.5521V25.6436H6.52849V33.4648C6.50577 34.1695 6.76266 34.8547 7.2434 35.3717C7.49826 35.6242 7.80246 35.8217 8.13712 35.952C8.47177 36.0823 8.82973 36.1426 9.18874 36.1292C9.5451 36.1424 9.90034 36.0819 10.2321 35.9515C10.5639 35.8211 10.865 35.6237 11.1166 35.3717C11.5973 34.8547 11.8542 34.1695 11.8315 33.4648V25.6436H10.1935V33.5521Z" fill="black"/>
<path d="M30.6586 34.6444C30.5198 34.654 30.3805 34.6343 30.2498 34.5867C30.1191 34.5391 29.9999 34.4645 29.8999 34.368C29.6595 34.0303 29.5554 33.6148 29.6081 33.2041H27.9672C27.9163 33.6021 27.9497 34.0063 28.0653 34.3905C28.1809 34.7748 28.3761 35.1306 28.6384 35.4349C28.9117 35.677 29.2308 35.8622 29.5768 35.9798C29.9229 36.0974 30.289 36.1449 30.6537 36.1196C31.3938 36.1622 32.1215 35.9167 32.6837 35.4349C32.9488 35.1213 33.1454 34.756 33.2612 34.3624C33.3769 33.9688 33.4091 33.5555 33.3558 33.1488C33.3558 31.403 33.0193 30.7464 31.7781 30.2391L30.5516 29.7435C29.8221 29.4525 29.6908 29.1907 29.6908 28.3459C29.6605 27.9843 29.7583 27.6236 29.967 27.3265C30.0546 27.2285 30.1632 27.1514 30.2848 27.101C30.4064 27.0506 30.5378 27.0282 30.6693 27.0355C30.8067 27.0249 30.9448 27.0471 31.0718 27.1004C31.1989 27.1537 31.3113 27.2366 31.3998 27.342C31.6053 27.6724 31.6924 28.0625 31.6468 28.4487H33.2848C33.3258 28.0427 33.2821 27.6326 33.1566 27.2442C33.0311 26.8558 32.8263 26.4975 32.5553 26.1917C32.3003 25.9699 32.0039 25.8004 31.6831 25.6929C31.3623 25.5854 31.0234 25.542 30.6858 25.5652C30.0343 25.5454 29.3989 25.7688 28.9039 26.1917C28.6129 26.4762 28.3867 26.8198 28.2407 27.1992C28.0947 27.5786 28.0323 27.9849 28.0577 28.3905C28.0577 29.9918 28.4516 30.5602 29.5031 30.9976L30.7442 31.5077C31.5476 31.8278 31.7227 32.1052 31.7227 33.2109C31.7752 33.6151 31.6769 34.0245 31.4465 34.3612C31.345 34.4645 31.2214 34.5436 31.085 34.5927C30.9486 34.6417 30.8028 34.6594 30.6586 34.6444Z" fill="black"/>
<path d="M5.28744 28.7017C5.28744 26.5611 4.52681 25.6436 2.62914 25.6436H0.00292969V36.0128H1.63896V31.7607H2.56008L3.91014 36.0128H5.61912L4.0755 31.4116C5.02482 30.9014 5.28744 29.9829 5.28744 28.7017ZM2.64567 30.2894H1.63604V27.112H2.64567C3.52107 27.112 3.65238 27.8404 3.65238 28.6997C3.65238 29.559 3.52107 30.2894 2.64567 30.2894Z" fill="black"/>
<path d="M19.789 26.1825C19.4979 26.4669 19.2715 26.8105 19.1254 27.1899C18.9792 27.5693 18.9166 27.9756 18.9418 28.3812C18.9418 29.9825 19.3357 30.5509 20.3881 30.9883L21.6293 31.4985C22.4317 31.8186 22.6078 32.096 22.6078 33.2017C22.6597 33.6061 22.5607 34.0155 22.3296 34.352C22.2291 34.457 22.1059 34.5378 21.9694 34.5883C21.8329 34.6387 21.6866 34.6574 21.5417 34.6429C21.4027 34.6527 21.2632 34.6331 21.1323 34.5855C21.0015 34.5378 20.8821 34.4632 20.7821 34.3665C20.5417 34.0288 20.4375 33.6134 20.4903 33.2026H18.8542C18.8032 33.6007 18.8366 34.005 18.9524 34.3893C19.0682 34.7736 19.2638 35.1293 19.5264 35.4334C19.7997 35.6755 20.1188 35.8607 20.4648 35.9783C20.8109 36.0959 21.177 36.1434 21.5417 36.1181C22.2817 36.1602 23.0093 35.9148 23.5717 35.4334C23.8366 35.1196 24.0331 34.7544 24.1488 34.3608C24.2645 33.9673 24.2969 33.554 24.2438 33.1473C24.2438 31.4015 23.9073 30.7449 22.6661 30.2376L21.4386 29.742C20.7082 29.451 20.5768 29.1892 20.5768 28.3444C20.5464 27.9825 20.6449 27.6216 20.855 27.325C20.9425 27.2271 21.051 27.1501 21.1724 27.0997C21.2938 27.0494 21.425 27.0269 21.5563 27.034C21.6936 27.0231 21.8316 27.0453 21.9585 27.0986C22.0855 27.1519 22.1977 27.2349 22.2858 27.3405C22.492 27.6707 22.5798 28.0608 22.5348 28.4472H24.1699C24.2105 28.0412 24.1666 27.6312 24.0411 27.2429C23.9156 26.8545 23.7111 26.4962 23.4404 26.1902C23.1852 25.9684 22.8886 25.7989 22.5677 25.6914C22.2467 25.5839 21.9077 25.5405 21.5699 25.5637C20.9197 25.5416 20.2847 25.7623 19.789 26.1825Z" fill="black"/>
<path d="M45.8858 36.0128V25.6436H44.2497V30.013H42.2208V25.6436H40.5847V36.0128H42.2208V31.4833H44.2497V36.0128H45.8858Z" fill="black"/>
<path d="M51.64 27.1139V25.6436H47.2727V36.0128H51.64V34.5424H48.9087V31.527H51.2597V30.0566H48.9087V27.1139H51.64Z" fill="black"/>
<path d="M39.5779 33.2602H37.9409C37.9494 33.6161 37.8638 33.968 37.6928 34.2805C37.6009 34.3984 37.4829 34.4935 37.348 34.5585C37.2131 34.6234 37.065 34.6565 36.9152 34.655C36.7654 34.6535 36.618 34.6175 36.4845 34.5498C36.3509 34.4822 36.2349 34.3847 36.1453 34.265C35.8234 33.7703 35.7796 32.7209 35.7796 30.8286C35.7796 28.9363 35.8234 27.8859 36.1453 27.3913C36.2349 27.2716 36.3509 27.1741 36.4845 27.1064C36.618 27.0388 36.7654 27.0028 36.9152 27.0013C37.065 26.9998 37.2131 27.0328 37.348 27.0978C37.4829 27.1627 37.6009 27.2579 37.6928 27.3758C37.8654 27.6824 37.9511 28.0301 37.9409 28.3815H39.5779C39.5897 27.9807 39.5221 27.5815 39.3791 27.2067C39.2361 26.8319 39.0203 26.4889 38.7443 26.1973C38.5002 25.9701 38.213 25.7938 37.8997 25.6787C37.5864 25.5637 37.2531 25.5121 36.9196 25.5271C36.5374 25.5092 36.1563 25.5802 35.8064 25.7343C35.4564 25.8885 35.1472 26.1217 34.9032 26.4156C34.2223 27.2312 34.1436 28.368 34.1436 30.8286C34.1436 33.2893 34.2175 34.426 34.9032 35.2407C35.1472 35.5345 35.4564 35.7677 35.8064 35.9219C36.1563 36.0761 36.5374 36.147 36.9196 36.1291C37.2479 36.1466 37.5764 36.0976 37.8852 35.9849C38.194 35.8722 38.4766 35.6982 38.7161 35.4735C39.2854 34.8783 39.5953 34.0825 39.5779 33.2602Z" fill="black"/>
<path d="M16.5752 30.2318L15.3497 29.7361C14.6192 29.4452 14.4879 29.1833 14.4879 28.3385C14.4579 27.9769 14.556 27.6162 14.7651 27.3192C14.8526 27.2212 14.961 27.1442 15.0825 27.0939C15.2039 27.0435 15.3351 27.021 15.4664 27.0282C15.6038 27.0175 15.7419 27.0398 15.8689 27.0931C15.996 27.1464 16.1084 27.2292 16.1969 27.3347C16.4024 27.6651 16.4895 28.0552 16.4439 28.4413H18.08C18.1208 28.0352 18.077 27.6251 17.9513 27.2367C17.8256 26.8483 17.6207 26.49 17.3495 26.1844C16.8353 25.7385 16.1647 25.5142 15.4849 25.5607C14.8331 25.5408 14.1973 25.7642 13.702 26.1873C13.411 26.4718 13.1848 26.8154 13.0388 27.1948C12.8928 27.5742 12.8304 27.9805 12.8558 28.386C12.8558 29.9874 13.2507 30.5557 14.3011 30.9931L15.5423 31.5033C16.3467 31.8234 16.5217 32.1008 16.5217 33.2065C16.5739 33.6108 16.4753 34.0202 16.2445 34.3568C16.1436 34.4618 16.0201 34.5426 15.8833 34.593C15.7464 34.6434 15.5999 34.6621 15.4547 34.6477C15.3159 34.6572 15.1766 34.6375 15.0459 34.5899C14.9152 34.5423 14.796 34.4678 14.6961 34.3713C14.4557 34.0336 14.3515 33.6182 14.4043 33.2074H12.7614C12.7105 33.6054 12.7439 34.0096 12.8595 34.3939C12.9751 34.7781 13.1703 35.1339 13.4326 35.4382C13.7061 35.6801 14.0251 35.8652 14.3712 35.9827C14.7172 36.1003 15.0832 36.148 15.4479 36.1229C16.1883 36.1654 16.9163 35.92 17.4789 35.4382C17.7438 35.1245 17.9403 34.7592 18.0558 34.3656C18.1714 33.972 18.2034 33.5588 18.15 33.1521C18.1529 31.3966 17.8193 30.7419 16.5752 30.2318Z" fill="black"/>
<path d="M10.7773 21.2826C11.4795 20.5067 11.5369 19.3321 11.5369 16.9433C11.5369 14.5544 11.4795 13.4041 10.7773 12.632C10.5289 12.3456 10.2182 12.1194 9.86902 11.9707C9.51979 11.822 9.14115 11.7546 8.76188 11.7737H6.11914V22.1419H8.76188C9.14127 22.1613 9.52007 22.0939 9.86936 21.945C10.2187 21.796 10.5292 21.5695 10.7773 21.2826ZM7.7542 20.6716V13.2421H8.71811C8.88189 13.2346 9.04482 13.2696 9.19095 13.3437C9.33708 13.4178 9.46138 13.5285 9.55169 13.665C9.8717 14.1451 9.90185 15.1354 9.90185 16.9403C9.90185 18.7453 9.8717 19.7657 9.55169 20.2467C9.46113 20.3829 9.33674 20.4933 9.19066 20.5672C9.04457 20.6412 8.88177 20.6761 8.71811 20.6686L7.7542 20.6716Z" fill="black"/>
<path d="M17.0121 20.6723H14.2818V17.6588H16.6327V16.1865H14.2818V13.2458H17.0121V11.7744H12.6467V22.1427H17.0121V20.6723Z" fill="black"/>
<path d="M51.5807 16.23H48.6306V17.7004H51.5807V16.23Z" fill="black"/>
<path d="M38.5373 22.2628C38.8657 22.2806 39.1943 22.2318 39.5033 22.1192C39.8123 22.0067 40.0951 21.8328 40.3347 21.6082C40.9039 21.0125 41.2134 20.2164 41.1956 19.3939H39.5634C39.5706 19.7484 39.4851 20.0987 39.3154 20.4103C39.2243 20.5294 39.1066 20.6257 38.9717 20.6915C38.8368 20.7573 38.6884 20.7909 38.5382 20.7896C38.388 20.7883 38.2402 20.7521 38.1065 20.6839C37.9728 20.6157 37.8569 20.5174 37.7679 20.3968C37.4459 19.9002 37.4021 18.8527 37.4021 16.9584C37.4021 15.0642 37.4459 14.0177 37.7679 13.5221C37.8569 13.4016 37.9728 13.3033 38.1065 13.2352C38.2401 13.167 38.3879 13.1308 38.538 13.1294C38.6881 13.128 38.8365 13.1614 38.9714 13.2271C39.1063 13.2927 39.2241 13.3887 39.3154 13.5075C39.4877 13.814 39.5737 14.1612 39.5644 14.5124H41.1994C41.2119 14.1114 41.1447 13.7119 41.0018 13.3369C40.859 12.9619 40.6432 12.6187 40.3668 12.3272C40.1225 12.1 39.8352 11.9238 39.5217 11.8089C39.2082 11.694 38.8748 11.6427 38.5411 11.6579C38.1592 11.6402 37.7784 11.7112 37.4287 11.8652C37.079 12.0192 36.7699 12.252 36.5258 12.5454C35.84 13.3611 35.7661 14.4978 35.7661 16.9584C35.7661 19.4191 35.84 20.5558 36.5258 21.3715C36.7691 21.6651 37.0774 21.8983 37.4264 22.053C37.7754 22.2077 38.1557 22.2795 38.5373 22.2628Z" fill="black"/>
<path d="M43.8411 17.6152H45.8701V22.1427H47.5061V11.7744H45.8701V16.1429H43.8411V11.7744H42.2051V22.1427H43.8411V17.6152Z" fill="black"/>
<path d="M25.7455 22.1427H27.3815V13.2458H29.1343V11.7744H24.0083V13.2458H25.7455V22.1427Z" fill="black"/>
<path d="M32.275 20.7736C32.136 20.7835 31.9965 20.764 31.8655 20.7164C31.7346 20.6688 31.6153 20.594 31.5154 20.4972C31.275 20.1595 31.1708 19.744 31.2236 19.3333H29.5885C29.5376 19.7312 29.5711 20.1354 29.6867 20.5197C29.8023 20.9039 29.9975 21.2597 30.2597 21.5641C30.533 21.8061 30.8521 21.9914 31.1981 22.109C31.5442 22.2266 31.9103 22.2741 32.275 22.2488C33.015 22.2908 33.7426 22.0454 34.305 21.5641C34.5701 21.2503 34.7668 20.8848 34.8825 20.4911C34.9982 20.0973 35.0304 19.6839 34.9771 19.277C34.9771 17.5312 34.6406 16.8746 33.3994 16.3673L32.1729 15.8736C31.4424 15.5827 31.3111 15.3198 31.3111 14.475C31.2814 14.1131 31.3795 13.7522 31.5883 13.4547C31.6757 13.3569 31.784 13.28 31.9052 13.2296C32.0265 13.1793 32.1575 13.1567 32.2886 13.1637C32.4261 13.1522 32.5643 13.174 32.6915 13.2272C32.8186 13.2804 32.9311 13.3634 33.0191 13.4693C33.226 13.7991 33.3139 14.1895 33.2681 14.5759H34.9032C34.9443 14.1699 34.9008 13.7597 34.7752 13.3713C34.6497 12.9829 34.4449 12.6246 34.1737 12.3189C33.9187 12.0969 33.6224 11.9271 33.3017 11.8192C32.9809 11.7114 32.6419 11.6676 32.3042 11.6905C31.6528 11.6711 31.0174 11.8945 30.5223 12.317C30.2312 12.6015 30.005 12.9451 29.859 13.3245C29.713 13.7039 29.6506 14.1102 29.6761 14.5158C29.6761 16.1181 30.07 16.6854 31.1205 17.1229L32.3626 17.6321C33.166 17.9521 33.3411 18.2295 33.3411 19.3362C33.3945 19.7411 33.2954 20.1513 33.0629 20.4875C32.9617 20.5913 32.8383 20.671 32.7018 20.7205C32.5654 20.7701 32.4195 20.7882 32.275 20.7736Z" fill="black"/>
<path d="M20.6401 22.2629C20.9964 22.2759 21.3516 22.2153 21.6834 22.0849C22.0151 21.9546 22.3162 21.7573 22.5679 21.5054C23.0495 20.9885 23.3068 20.3028 23.2838 19.5976V11.7744H21.6429V19.682C21.6553 19.8223 21.6382 19.9636 21.5928 20.097C21.5474 20.2304 21.4747 20.3529 21.3793 20.4567C21.2839 20.5605 21.1679 20.6434 21.0386 20.7002C20.9093 20.7569 20.7697 20.7862 20.6284 20.7862C20.4872 20.7862 20.3475 20.7569 20.2182 20.7002C20.089 20.6434 19.9729 20.5605 19.8775 20.4567C19.7821 20.3529 19.7094 20.2304 19.664 20.097C19.6187 19.9636 19.6016 19.8223 19.6139 19.682V11.7744H17.9779V19.5947C17.9556 20.3 18.2132 20.9856 18.6948 21.5025C18.9496 21.7553 19.2537 21.9532 19.5883 22.084C19.9229 22.2147 20.2809 22.2757 20.6401 22.2629Z" fill="black"/>
</svg>
