<svg width="170" height="50" viewBox="0 0 170 50" fill="none" xmlns="http://www.w3.org/2000/svg">
<path d="M54.9859 17.1985L54.9217 17.2768C54.6644 18.0764 54.4489 18.8882 54.2761 19.7091C54.4654 18.8622 54.6991 18.0252 54.9763 17.2016" fill="#DCDDDE"/>
<path d="M54.9855 17.1985C54.7084 18.0221 54.4747 18.859 54.2854 19.706C54.4781 18.8472 54.7115 18.0113 54.9855 17.1985Z" fill="#DCDDDE"/>
<path d="M94.6171 4.9837C94.6171 5.00251 94.6171 5.02132 94.6171 5.04012C95.4939 5.6831 96.3274 6.38038 97.1126 7.12764L97.4112 7.41914L97.4305 7.36272C96.5578 6.50395 95.6218 5.70881 94.63 4.9837" fill="#DCDDDE"/>
<path d="M94.6042 5.04016C95.481 5.68314 96.3145 6.38041 97.0997 7.12767C96.3145 6.38041 95.481 5.68314 94.6042 5.04016Z" fill="#DCDDDE"/>
<path d="M79.2849 0H79.1886C77.0127 0.00340891 74.8463 0.280473 72.7429 0.824348C73.4591 0.639418 74.1849 0.482698 74.9172 0.360456L75.0906 0.332247C76.0186 0.18078 76.9547 0.0813613 77.8943 0.0344784L78.3247 0.015672C78.3261 0.0313119 78.3261 0.0470482 78.3247 0.0626881C78.6234 0.0626881 78.9188 0.0626881 79.2175 0.0626881C79.5933 0.0626881 79.9722 0.0626881 80.348 0.0877633L80.2388 0.0282096C79.9176 0.0282096 79.5965 0.00940321 79.2753 0.00940321" fill="#DCDDDE"/>
<path d="M79.2399 0.0532837C78.9413 0.0532837 78.6458 0.0532837 78.3471 0.0532837C78.6458 0.0532837 78.9413 0.0532837 79.2399 0.0532837C79.6157 0.0532837 79.9947 0.0532837 80.3736 0.0788604C79.9979 0.0788604 79.6189 0.0532837 79.2431 0.0532837" fill="#DCDDDE"/>
<path d="M74.93 0.363611C74.1977 0.485853 73.4719 0.642573 72.7557 0.827503C72.1776 0.97482 71.6028 1.14094 71.0375 1.33214C71.0156 1.35768 70.992 1.38176 70.9669 1.40423C72.2639 0.969679 73.5945 0.63741 74.946 0.410627C74.946 0.394955 74.946 0.379283 74.93 0.363611ZM77.9071 0.0501709C76.9672 0.10224 76.0311 0.206892 75.1034 0.363611C76.0308 0.216112 76.9657 0.117756 77.9039 0.0689773" fill="#DCDDDE"/>
<path d="M74.946 0.410583C73.5974 0.637428 72.2699 0.97077 70.9765 1.40732C72.2733 0.971356 73.604 0.638032 74.9557 0.410583" fill="#DCDDDE"/>
<path d="M78.3343 0.0223999L77.9039 0.0412063C76.9655 0.0884321 76.0306 0.186797 75.1034 0.33584L74.93 0.36405C74.93 0.379722 74.93 0.395394 74.9461 0.411066C76.0759 0.221973 77.2176 0.107829 78.3632 0.069416C78.3632 0.069416 78.3632 0.0380719 78.3632 0.0223999" fill="#DCDDDE"/>
<path d="M78.3632 0.0689697C77.2229 0.108087 76.0866 0.22223 74.9621 0.41062C76.0866 0.22223 77.2229 0.108087 78.3632 0.0689697Z" fill="#DCDDDE"/>
<path d="M102.733 14.9825H102.681C103.14 16.0005 103.527 17.0477 103.841 18.1169H103.889C103.576 17.048 103.19 16.0008 102.733 14.9825Z" fill="#DCDDDE"/>
<path d="M59.3858 9.31854L59.267 9.38437C57.3366 11.7426 55.863 14.4246 54.9185 17.2987L55.002 17.1984C55.9646 14.3322 57.4557 11.6617 59.4019 9.31854" fill="#DCDDDE"/>
<path d="M59.3858 9.31854C57.4403 11.6621 55.9492 14.3325 54.9859 17.1984C55.95 14.3337 57.441 11.6645 59.3858 9.32168" fill="#DCDDDE"/>
<path d="M68.4072 2.36334C67.385 2.83357 66.3948 3.36752 65.4429 3.96189C65.4429 3.96189 65.4589 3.9901 65.4653 4.00577C66.4166 3.41021 67.4068 2.87621 68.4297 2.40722L68.4072 2.36334Z" fill="#DCDDDE"/>
<path d="M68.4329 2.40723C67.4101 2.87621 66.4198 3.41021 65.4686 4.00577C66.4198 3.41021 67.4101 2.87621 68.4329 2.40723Z" fill="#DCDDDE"/>
<path d="M99.4827 9.6571L99.441 9.68531C100.135 10.5555 100.769 11.4696 101.339 12.4216L101.381 12.3934C100.809 11.4425 100.175 10.5285 99.4827 9.6571Z" fill="#DCDDDE"/>
<path d="M60.9883 42.5182C61.5183 43.0479 62.0771 43.5525 62.6584 44.0352C62.3661 43.7908 62.0771 43.54 61.7977 43.2861C61.5215 43.0354 61.2517 42.7783 60.9883 42.515" fill="#DCDDDE"/>
<path d="M74.1367 49.4452L74.1142 49.4922C74.2009 49.511 74.2844 49.533 74.3711 49.5486C75.432 49.7472 76.5047 49.8801 77.5827 49.9467L77.602 49.9028C76.5238 49.8328 75.4511 49.6967 74.3904 49.4953L74.1431 49.4452" fill="#DCDDDE"/>
<path d="M62.6585 44.0384C63.2879 44.5608 63.9431 45.055 64.624 45.5209L64.7332 45.5366L64.3638 45.2827C64.0812 45.0853 63.805 44.8815 63.5352 44.6747L63.5031 44.7123C63.2173 44.4929 62.9347 44.2703 62.6585 44.0384ZM59.6363 41.0607C59.6455 41.0675 59.6531 41.076 59.6588 41.0858C59.6531 41.076 59.6455 41.0675 59.6363 41.0607ZM59.1707 40.4996C59.3205 40.6877 59.4747 40.8726 59.6331 41.0544C59.4747 40.8726 59.3205 40.6877 59.1707 40.4996Z" fill="#DCDDDE"/>
<path d="M63.5352 44.6747C63.8049 44.8815 64.0811 45.0853 64.3638 45.2827C64.0811 45.0853 63.8049 44.8815 63.5352 44.6747Z" fill="#DCDDDE"/>
<path d="M61.772 43.1984C61.772 43.2297 61.772 43.2579 61.7977 43.2893C62.0771 43.5431 62.3662 43.7939 62.6584 44.0384C62.9507 44.2829 63.2173 44.4929 63.5031 44.7123L63.5352 44.6747C62.9207 44.2066 62.333 43.7145 61.772 43.1984Z" fill="#DCDDDE"/>
<path d="M61.772 43.1984C62.3351 43.7166 62.9229 44.2087 63.5352 44.6747C62.9207 44.2066 62.333 43.7145 61.772 43.1984Z" fill="#DCDDDE"/>
<path d="M103.121 34.1117L103.048 34.1712C102.194 36.2847 101.048 38.2737 99.6401 40.0827L99.7428 40.0389C101.14 38.2221 102.276 36.228 103.121 34.1117Z" fill="#DCDDDE"/>
<path d="M57.6034 38.2397C57.6034 38.271 57.6034 38.3024 57.6034 38.3369C58.0858 39.0828 58.6079 39.8037 59.1674 40.4965C59.3173 40.6845 59.4714 40.8695 59.6299 41.0512C59.639 41.0581 59.6466 41.0666 59.6524 41.0763C60.0806 41.5674 60.5238 42.0438 60.982 42.5056C61.2453 42.7689 61.5151 43.0259 61.7913 43.2767C61.7913 43.2453 61.772 43.2171 61.7656 43.1858C60.1614 41.7172 58.7581 40.0526 57.5905 38.2334L57.6034 38.2397ZM104.792 26.4199C104.724 27.5471 104.58 28.6686 104.358 29.7768C104.161 30.7682 103.903 31.7469 103.584 32.7075C103.584 32.7388 103.6 32.767 103.606 32.7984C103.937 31.8122 104.206 30.8073 104.413 29.7893C104.626 28.7066 104.767 27.6114 104.833 26.5108L104.792 26.4261" fill="#DCDDDE"/>
<path d="M57.6034 38.2397C58.771 40.0589 60.1743 41.7235 61.7785 43.1921C60.1743 41.7235 58.771 40.0589 57.6034 38.2397Z" fill="#DCDDDE"/>
<path d="M88.9775 48.088C86.1261 49.2321 83.086 49.8629 80.0043 49.9499L79.8759 50C82.9619 49.9292 86.009 49.3111 88.8683 48.1758L88.9679 48.088" fill="#DCDDDE"/>
<path d="M65.9985 26.5609C66.5972 31.8828 65.1052 37.2282 61.8234 41.5183C62.9791 41.8806 64.1641 42.1469 65.3658 42.3144C67.3989 39.316 68.722 35.9132 69.239 32.3533C67.8929 30.576 66.8026 28.6271 65.9985 26.5609ZM69.117 25.3072C69.178 25.4608 69.2358 25.6206 69.3 25.7648C69.284 25.652 69.2711 25.5422 69.2551 25.4325L69.117 25.3072ZM62.1446 11.5973L62.0386 11.6443C61.0308 12.1379 60.0644 12.708 59.1481 13.3494C60.6316 14.6721 61.9161 16.1927 62.9635 17.8661C63.4453 18.0354 63.9195 18.2182 64.3863 18.4146C64.3697 17.4993 64.404 16.5837 64.489 15.672C64.5308 15.252 64.579 14.8383 64.64 14.4183C64.3509 14.0359 64.049 13.6608 63.7343 13.293C63.2301 12.7006 62.697 12.1458 62.1446 11.6067" fill="#ED1C24"/>
<path d="M75.9124 38.4372C76.015 39.3499 76.0568 40.2681 76.0376 41.1861C76.9759 40.8417 77.8881 40.4332 78.7675 39.9636C77.7824 39.5167 76.8286 39.0068 75.9124 38.4372ZM68.5257 23.5551C68.6927 24.1412 68.8886 24.7242 69.107 25.3009L69.2451 25.4263C71.6467 27.6389 73.5006 30.3562 74.6663 33.372C75.974 34.5588 77.4296 35.5803 78.9987 36.4124C78.2409 32.2857 76.3971 28.4222 73.6482 25.2006C73.3142 24.8099 72.9695 24.4285 72.614 24.0566C72.2222 24.0566 71.8304 24.0158 71.4354 23.9782C70.4644 23.8911 69.4994 23.7498 68.5449 23.5551H68.5257ZM62.4043 17.6843C63.0491 18.0705 63.7137 18.4241 64.3955 18.7437V18.4303C63.9309 18.2318 63.4567 18.0489 62.9728 17.8818L62.414 17.6937L62.4043 17.6843ZM55.6246 16.465C55.4063 16.7064 55.1943 16.9509 54.9823 17.1985C54.7062 18.0221 54.4736 18.8591 54.2854 19.706H54.4107C55.0808 19.706 55.7542 19.7363 56.4308 19.7969C57.9888 19.9326 59.5274 20.2311 61.0201 20.6871C59.0291 19.5353 57.213 18.1174 55.6246 16.4744V16.4556" fill="#ED1C24"/>
<path d="M74.1367 49.4452L74.384 49.4953C75.4448 49.6967 76.5174 49.8328 77.5956 49.9028C76.5174 49.8328 75.4448 49.6967 74.384 49.4953L74.1367 49.4452Z" fill="#ED1C24"/>
<path d="M79.2592 43.4084C78.0942 43.9558 76.8873 44.4137 75.6494 44.7781C75.3305 46.3853 74.8229 47.9514 74.1367 49.4452L74.384 49.4954C75.4447 49.6967 76.5174 49.8328 77.5956 49.9028C78.4521 47.8225 79.0118 45.6373 79.2592 43.4084Z" fill="#ED1C24"/>
<path d="M97.0997 7.12762L97.3984 7.41913L97.0997 7.12762Z" fill="#231F20"/>
<path d="M61.0205 20.6871C61.782 21.1292 62.5679 21.53 63.3746 21.8876C63.4388 21.8103 63.5063 21.7319 63.5769 21.6525C62.7464 21.2787 61.8926 20.9562 61.0205 20.6871ZM86.4532 16.7503C82.7773 19.379 78.3373 20.7934 73.7802 20.7874C73.1122 20.7874 72.4378 20.7592 71.7633 20.6965C71.0889 20.6338 70.4787 20.5555 69.8364 20.4426C69.5794 20.6244 69.3257 20.8125 69.0752 21.0068C70.3489 21.9098 71.5318 22.9289 72.608 24.0503C72.9966 24.0503 73.382 24.0754 73.7674 24.0754C79.5063 24.0818 85.0692 22.1417 89.5042 18.5871C89.1766 18.1169 88.833 17.6593 88.4733 17.2142C87.8053 17.0293 87.1276 16.8725 86.4404 16.7503H86.4532ZM58.0337 14.2052C57.1722 14.8966 56.3669 15.6522 55.625 16.4651C55.9975 16.4651 56.3701 16.4964 56.7426 16.5309C58.669 16.7024 60.5689 17.0894 62.4047 17.6843C60.7978 16.7165 59.3282 15.5468 58.0337 14.2052ZM94.6043 5.04016C93.9542 7.4821 92.8599 9.79017 91.3734 11.8544C91.5243 12.196 91.6656 12.5408 91.7973 12.8856C93.0228 12.631 94.2232 12.2723 95.3847 11.8136C96.2009 10.4198 96.8723 8.94972 97.3887 7.42544L97.09 7.13394C96.3049 6.38668 95.4714 5.68941 94.5946 5.04643" fill="#231F20"/>
<path d="M69.0688 21.0162C68.7476 21.2669 68.4265 21.5271 68.1214 21.7967C68.2327 22.3859 68.3708 22.9721 68.5357 23.5551C69.4901 23.7498 70.4552 23.8911 71.4261 23.9782C71.8211 24.0158 72.213 24.0409 72.6048 24.0566C71.5271 22.9376 70.3443 21.9197 69.072 21.0162H69.0688ZM55.625 16.465V16.4838C57.2147 18.1227 59.0307 19.5374 61.0205 20.6871C61.8972 20.955 62.7554 21.2775 63.5898 21.6525C63.911 21.292 64.2321 20.9441 64.5533 20.6024C64.4858 19.9756 64.4377 19.3487 64.4184 18.7218C63.7359 18.4045 63.0712 18.0519 62.4272 17.6655C60.5918 17.0688 58.6918 16.6817 56.7651 16.5121C56.3926 16.4776 56.02 16.4619 55.6475 16.4462" fill="#230000"/>
<path d="M79.4005 40.2426C79.4241 41.2997 79.3769 42.3572 79.2592 43.4083C80.4913 42.832 81.6728 42.1579 82.792 41.3929C81.6408 41.0866 80.5129 40.7022 79.4166 40.2426H79.4005ZM89.88 19.1199C90.0408 20.5379 90.0558 21.968 89.9249 23.3889C89.6749 26.1457 88.8672 28.8267 87.5486 31.2768C86.23 33.7269 84.4266 35.8975 82.2428 37.663L82.124 37.757C83.4017 38.1956 84.7189 38.5157 86.0582 38.713C89.5466 35.3329 91.9237 31.0149 92.886 26.3102C92.5051 24.4866 91.8788 22.7202 91.0233 21.0569C90.6815 20.3897 90.3031 19.741 89.8896 19.1136L89.88 19.1199ZM79.2399 0.0532837C78.9413 0.0532837 78.6458 0.0532837 78.3471 0.0532837C78.6941 1.22473 79.1444 2.36468 79.6928 3.46038C83.0227 5.45349 85.7391 8.28758 87.5548 11.6631C87.983 11.9954 88.3898 12.3422 88.7752 12.7037C89.0964 12.8761 89.4175 13.0391 89.7644 13.1927C89.9667 13.1708 90.1722 13.1457 90.3746 13.1175C90.7257 12.6996 91.0586 12.2733 91.3734 11.8386C89.1565 6.82894 85.2839 2.68852 80.3736 0.0783589C79.9947 0.0783589 79.6157 0.0532837 79.2399 0.0532837Z" fill="#231F20"/>
<path d="M61.3417 41.3741C61.3802 41.5778 61.422 41.7816 61.4669 41.9822C61.589 41.8359 61.7078 41.6855 61.8234 41.5308C61.6628 41.4807 61.5023 41.4305 61.3417 41.3741ZM76.0508 41.2017C73.6333 42.0903 71.0708 42.5437 68.4875 42.5401C67.8152 42.5401 67.1408 42.5098 66.4642 42.4492C66.0981 42.4147 65.7384 42.374 65.3787 42.3238C64.8195 43.1491 64.2081 43.9395 63.548 44.6903C63.8178 44.8972 64.094 45.1009 64.3766 45.2984L64.746 45.5523C68.3985 46.0902 72.1278 45.8311 75.6654 44.7937C75.8975 43.6091 76.0275 42.4076 76.054 41.2017" fill="#231F20"/>
<path d="M61.8106 41.5152C61.695 41.6698 61.5761 41.8203 61.4541 41.9665C61.5462 42.3844 61.6532 42.7951 61.7753 43.1983C62.3384 43.7166 62.9261 44.2087 63.5384 44.6746C64.1985 43.9238 64.8099 43.1334 65.369 42.3082C64.1629 42.1438 62.9734 41.8785 61.8138 41.5152" fill="#230000"/>
<path d="M78.7679 39.9636C77.8885 40.4332 76.9763 40.8417 76.038 41.186C76.0115 42.3919 75.8815 43.5934 75.6494 44.7781C76.8873 44.4137 78.0942 43.9557 79.2592 43.4083C79.377 42.3572 79.4242 41.2997 79.4006 40.2426C79.1886 40.1517 78.9766 40.0608 78.7582 39.9636" fill="#230000"/>
<path d="M91.3734 11.8543C91.0501 12.291 90.7171 12.7173 90.3746 13.1331C90.8499 13.0673 91.3381 12.9858 91.7973 12.8855C91.6656 12.5407 91.5243 12.196 91.3734 11.8543Z" fill="#231F20"/>
<path d="M68.1214 21.7966C67.1088 22.6817 66.186 23.6599 65.3658 24.7179C65.5489 25.3448 65.7608 25.9716 66.0081 26.5609C66.8128 28.6249 67.9031 30.5716 69.2486 32.347C69.5377 32.7294 69.8396 33.1024 70.1543 33.4723C71.806 35.4096 73.7562 37.0846 75.9352 38.4372C76.8537 39.0049 77.8084 39.5148 78.7935 39.9636L79.4359 40.2426C80.532 40.7027 81.6599 41.0871 82.8113 41.3929C84.9566 41.9593 87.1694 42.246 89.3918 42.2455H89.6745C90.3963 41.1761 91.0176 40.0452 91.5308 38.8666C90.8199 38.9355 90.107 38.97 89.3918 38.97C88.7206 38.97 88.0462 38.9418 87.3685 38.8791C86.9285 38.8415 86.4918 38.7882 86.0582 38.7224C81.8037 38.1056 77.8397 36.2482 74.6859 33.3939C73.9945 32.768 73.3455 32.099 72.7429 31.391C71.3055 29.7071 70.1471 27.814 69.3097 25.7804L69.1266 25.3228C68.9125 24.7461 68.7187 24.1641 68.5453 23.577C68.3719 22.9898 68.2338 22.4036 68.131 21.8186L68.1214 21.7966ZM69.5313 9.5505C68.2128 9.68038 66.9097 9.93012 65.6388 10.2965C65.1844 11.6396 64.8502 13.0187 64.64 14.4182C64.579 14.8288 64.5308 15.2457 64.4923 15.672C64.4042 16.5867 64.3688 17.5054 64.3863 18.424V18.7374C64.4055 19.3643 64.4505 19.9912 64.5212 20.6181C65.5187 19.6108 66.6041 18.69 67.7649 17.8661C67.7715 15.0018 68.3735 12.1686 69.5345 9.53797L69.5313 9.5505ZM74.946 0.410583C73.5973 0.637048 72.2697 0.970398 70.9765 1.40732C70.3255 2.09494 69.7164 2.81918 69.1523 3.57633C69.738 4.48086 70.394 5.34013 71.1146 6.14654H71.4197C72.5266 4.53352 73.8571 3.07787 75.3732 1.82106C75.2158 1.35404 75.0745 0.880744 74.946 0.410583Z" fill="#F5CE00"/>
<path d="M103.048 34.165C102.194 36.2784 101.048 38.2675 99.6401 40.0765C101.048 38.2675 102.194 36.2784 103.048 34.165Z" fill="#F5CE00"/>
<path d="M103.048 34.165C100.8 35.9764 98.1983 37.3223 95.4007 38.1206C94.9667 39.4096 94.4242 40.6613 93.7789 41.8631C95.8027 41.509 97.7737 40.911 99.6465 40.0828C101.052 38.2715 102.197 36.2803 103.048 34.165Z" fill="#F5CE00"/>
<path d="M88.7752 12.7194C88.9679 12.8949 89.1542 13.0705 89.3404 13.2523L89.7644 13.2084C89.4432 13.0548 89.0996 12.8949 88.7752 12.7194ZM81.9923 11.9734C82.3499 12.2994 82.716 12.6129 83.0907 12.9138C83.3348 12.9608 83.5788 13.0078 83.8229 13.0454C83.2341 12.6588 82.6239 12.2994 81.9923 11.9672V11.9734ZM78.3632 0.0689697C77.223 0.109632 76.0868 0.223764 74.9621 0.41062C75.0873 0.883915 75.2319 1.35094 75.3892 1.8211C75.7623 2.95132 76.2196 4.05339 76.7574 5.11849C77.0785 5.7203 77.3997 6.30643 77.753 6.8769C79.9423 7.41144 82.0477 8.23169 84.0124 9.31546C82.2822 7.67116 80.848 5.75433 79.7699 3.64532L79.6832 3.47607C79.1436 2.37954 78.7019 1.23961 78.3632 0.0689697Z" fill="white"/>
<path d="M102.681 14.9918C103.14 16.0099 103.527 17.0571 103.841 18.1262C103.527 17.0571 103.14 16.0099 102.681 14.9918Z" fill="white"/>
<path d="M102.681 14.9919C101.506 15.186 100.315 15.2835 99.123 15.2834C98.1108 15.2837 97.0997 15.2135 96.0977 15.0733C95.3612 15.3429 94.6182 15.578 93.8688 15.7786C95.4337 16.5516 96.9106 17.4835 98.2752 18.5588C98.561 18.5588 98.8468 18.5588 99.1327 18.5588C100.715 18.5549 102.294 18.4027 103.847 18.1043C103.534 17.0352 103.146 15.988 102.688 14.9699" fill="white"/>
<path d="M76.0123 13.97C74.4102 14.3945 72.8555 14.9741 71.3715 15.7002C70.1097 16.3231 68.9033 17.0476 67.7649 17.8661C66.615 18.6925 65.5405 19.6143 64.5533 20.6212C64.2321 20.9629 63.8949 21.3108 63.5898 21.6712C63.5191 21.7507 63.4517 21.829 63.3875 21.9063C59.4947 26.4866 57.4392 32.291 57.6034 38.2397C58.771 40.0589 60.1743 41.7234 61.7784 43.1921C61.6585 42.7846 61.5515 42.374 61.4573 41.9602C61.4123 41.7596 61.3706 41.5559 61.332 41.3522C60.7859 38.4569 60.8628 35.4824 61.5578 32.6176C62.2528 29.7529 63.5507 27.0605 65.369 24.7116C66.1892 23.6537 67.112 22.6754 68.1246 21.7904C68.4297 21.5208 68.7476 21.2606 69.0688 21.0099C69.3193 20.8156 69.573 20.6275 69.8299 20.4457C72.1953 18.7592 74.8886 17.5618 77.7448 16.9269C80.601 16.292 83.56 16.2329 86.4404 16.7534C87.1276 16.8756 87.8053 17.0323 88.4733 17.2173H88.4958C88.3256 17.0104 88.1489 16.8098 87.9723 16.6092C87.7732 16.6092 87.5773 16.6092 87.3782 16.6092C84.6886 16.6076 82.0167 16.1843 79.4648 15.3554C78.2817 14.9706 77.1289 14.5023 76.0155 13.9543" fill="#1B4EA2"/>
<path d="M104.791 26.4199C104.662 28.5508 104.256 30.6571 103.584 32.6887C103.903 31.7343 104.161 30.7619 104.358 29.7768C104.579 28.6707 104.724 27.5513 104.791 26.4261" fill="#1B4EA2"/>
<path d="M93.8688 15.7786C93.2265 15.9499 92.5842 16.0951 91.9418 16.2142C92.732 17.2814 93.4323 18.4093 94.0358 19.5869C94.0495 19.61 94.0613 19.6341 94.0711 19.659C98.8804 22.6137 102.302 27.3 103.594 32.7012C104.265 30.6697 104.671 28.5634 104.801 26.4324C102.41 21.845 98.5856 18.1184 93.8816 15.7911" fill="#1B4EA2"/>
<path d="M67.1225 6.55093C64.8341 6.96937 62.6169 7.6984 60.5355 8.7168C60.1469 8.908 59.768 9.1086 59.3922 9.3186C57.4468 11.6611 55.9558 14.3304 54.9923 17.1954C56.9179 14.8806 59.3265 12.9926 62.0578 11.6569C63.2106 11.0938 64.4122 10.6312 65.6484 10.2746C66.9193 9.90823 68.2224 9.65848 69.5409 9.52861L69.7175 9.5098C68.7806 8.59287 67.9214 7.60334 67.1482 6.55093H67.1225ZM71.7023 6.14032H71.4422H71.1371C72.3382 7.501 73.7158 8.70322 75.2351 9.71667C76.3485 9.90082 77.4458 10.168 78.5173 10.5159C79.718 10.9032 80.8818 11.3919 81.9955 11.9766C82.625 12.3088 83.2341 12.6682 83.8229 13.0548C84.9955 13.2473 86.1826 13.3437 87.3717 13.3432C88.029 13.3432 88.6853 13.3139 89.3404 13.2554C89.1542 13.0768 88.9679 12.8981 88.7752 12.7226C88.3791 12.3632 87.9723 12.0163 87.5548 11.6819C83.0722 8.10419 77.4609 6.14767 71.6702 6.14345" fill="white"/>
<path d="M88.9776 48.0849C86.1278 49.2368 83.0874 49.874 80.0043 49.9655C83.086 49.8785 86.1261 49.2477 88.9776 48.1037" fill="white"/>
<path d="M91.9323 16.2143C90.6245 16.4515 89.2991 16.5847 87.9691 16.6123C88.1458 16.8129 88.3224 17.0135 88.4926 17.2204C90.6767 19.8652 92.1799 22.9821 92.8765 26.3102C93.6262 29.9172 93.3891 33.6534 92.1892 37.1427C91.9901 37.7257 91.7685 38.2993 91.5212 38.8572C91.0004 40.0399 90.3704 41.174 89.6392 42.2455C87.5655 45.2702 84.7195 47.715 81.3821 49.3386C80.9293 49.5612 80.47 49.7586 80.0043 49.9655C83.0874 49.874 86.1278 49.2368 88.9776 48.0849C90.9109 46.2768 92.5323 44.1758 93.779 41.8631C94.4262 40.6635 94.9708 39.4139 95.4072 38.1269C97.4781 32.0399 96.9966 25.4006 94.068 19.659C94.0582 19.6341 94.0464 19.61 94.0327 19.5869C93.4292 18.4093 92.7289 17.2814 91.9387 16.2143" fill="white"/>
<path d="M99.441 9.6853C100.134 10.556 100.768 11.4701 101.339 12.4216C100.768 11.4701 100.134 10.556 99.441 9.6853Z" fill="#DB4334"/>
<path d="M68.4329 2.40723C67.4101 2.87621 66.4198 3.41021 65.4686 4.00577C65.9657 4.88662 66.518 5.73662 67.1226 6.55091C67.8957 7.60332 68.755 8.59285 69.6919 9.50978C71.5412 11.3135 73.6725 12.8191 76.0059 13.97C77.1218 14.514 78.2767 14.9781 79.4616 15.3586C82.0136 16.1875 84.6854 16.6108 87.375 16.6123C87.5741 16.6123 87.77 16.6123 87.9692 16.6123C89.2993 16.5816 90.6247 16.4453 91.9323 16.2049C92.5746 16.0858 93.2169 15.9405 93.8592 15.7692C94.6138 15.5706 95.3577 15.3352 96.0881 15.0639C96.9112 14.7619 97.7173 14.4177 98.5032 14.0327C99.4805 13.5533 100.425 13.012 101.329 12.4122C100.759 11.4602 100.125 10.5461 99.4314 9.67591C98.651 10.2044 97.8356 10.6819 96.9906 11.1052C96.4607 11.3622 95.9243 11.6004 95.3848 11.8136C94.2202 12.2728 93.0166 12.6315 91.7878 12.8855C91.3156 12.9858 90.8403 13.0673 90.365 13.1332C90.1627 13.1614 89.9571 13.1864 89.7548 13.2084L89.3309 13.2523C88.6757 13.3108 88.0195 13.34 87.3622 13.34C86.1763 13.3402 84.9924 13.2437 83.823 13.0517L83.0907 12.92C82.2215 12.7471 81.3636 12.5242 80.5214 12.2524C78.6487 11.6474 76.8699 10.7942 75.2351 9.71665C73.7049 8.70732 72.3165 7.50712 71.105 6.14657C70.3844 5.34016 69.7284 4.48089 69.1427 3.57636C68.8954 3.1971 68.6578 2.8053 68.4329 2.40723Z" fill="#DB4334"/>
<path d="M154.938 10.1523H153.496V19.0885H154.938V10.1523Z" fill="#231F20"/>
<path d="M158.782 19.0885L156.441 14.3681L158.538 10.1523H157.019L154.963 14.4339L157.189 19.0885H158.782Z" fill="#231F20"/>
<path d="M167.813 13.9919H165.215V15.2582H167.813V13.9919Z" fill="#231F20"/>
<path d="M131.859 19.1888C132.148 19.2041 132.437 19.1619 132.708 19.0649C132.98 18.968 133.229 18.8181 133.439 18.6246C133.941 18.1114 134.214 17.4249 134.197 16.7157H132.758C132.765 17.0219 132.69 17.3245 132.54 17.5934C132.467 17.7014 132.364 17.7877 132.244 17.843C132.124 17.8982 131.991 17.9203 131.859 17.9068C131.724 17.9159 131.59 17.8892 131.469 17.8296C131.349 17.77 131.247 17.6797 131.175 17.5683C130.892 17.1389 130.854 16.2362 130.854 14.6031C130.854 12.9701 130.892 12.0705 131.175 11.6411C131.247 11.5292 131.348 11.4386 131.469 11.3789C131.589 11.3192 131.724 11.2929 131.859 11.3026C131.991 11.2895 132.124 11.3117 132.244 11.3669C132.364 11.4222 132.466 11.5083 132.54 11.6161C132.691 11.88 132.766 12.1789 132.758 12.4812H134.197C134.208 12.1361 134.149 11.7923 134.023 11.4696C133.897 11.1469 133.708 10.8515 133.465 10.6005C133.25 10.4047 132.997 10.2528 132.722 10.1538C132.446 10.0547 132.153 10.0105 131.859 10.0238C131.518 10.0096 131.178 10.0741 130.868 10.2118C130.557 10.3496 130.284 10.5568 130.07 10.8168C129.466 11.5189 129.402 12.5 129.402 14.6188C129.402 16.7377 129.466 17.7187 130.07 18.424C130.285 18.677 130.558 18.8778 130.866 19.0106C131.174 19.1433 131.51 19.2043 131.846 19.1888" fill="#231F20"/>
<path d="M120.307 19.1888C120.643 19.2041 120.978 19.1429 121.286 19.0102C121.593 18.8775 121.865 18.6768 122.08 18.424C122.696 17.7219 122.748 16.7408 122.748 14.6188C122.748 12.4968 122.696 11.5189 122.08 10.8168C121.855 10.5761 121.58 10.3838 121.275 10.2522C120.969 10.1207 120.639 10.0527 120.305 10.0527C119.971 10.0527 119.641 10.1207 119.335 10.2522C119.03 10.3838 118.756 10.5761 118.531 10.8168C117.927 11.5315 117.863 12.5 117.863 14.6188C117.863 16.7377 117.927 17.7094 118.531 18.424C118.746 18.6769 119.018 18.8775 119.327 19.0102C119.635 19.143 119.97 19.2041 120.307 19.1888ZM119.623 11.6662C119.694 11.5543 119.796 11.4637 119.916 11.404C120.037 11.3443 120.172 11.318 120.307 11.3277C120.443 11.3179 120.579 11.3442 120.701 11.4038C120.824 11.4634 120.927 11.5541 121.001 11.6662C121.27 12.0956 121.322 12.9984 121.322 14.6282C121.322 16.2581 121.283 17.164 121.001 17.5934C120.927 17.7056 120.824 17.7962 120.701 17.8558C120.579 17.9154 120.443 17.9417 120.307 17.9319C120.172 17.9417 120.037 17.9153 119.916 17.8556C119.796 17.796 119.694 17.7053 119.623 17.5934C119.356 17.164 119.302 16.2613 119.302 14.6282C119.302 12.9952 119.356 12.0956 119.623 11.6662Z" fill="#231F20"/>
<path d="M161.769 19.1888C162.105 19.2041 162.44 19.1429 162.747 19.0102C163.055 18.8775 163.327 18.6768 163.541 18.424C164.158 17.7219 164.209 16.7408 164.209 14.6188C164.209 12.4968 164.158 11.5189 163.541 10.8168C163.316 10.5761 163.042 10.3838 162.737 10.2522C162.431 10.1207 162.101 10.0527 161.767 10.0527C161.433 10.0527 161.103 10.1207 160.797 10.2522C160.492 10.3838 160.218 10.5761 159.993 10.8168C159.389 11.5315 159.321 12.5 159.321 14.6188C159.321 16.7377 159.389 17.7094 159.993 18.424C160.208 18.677 160.48 18.8779 160.788 19.0106C161.097 19.1433 161.432 19.2043 161.769 19.1888ZM161.085 11.6662C161.156 11.5541 161.257 11.4632 161.378 11.4035C161.499 11.3438 161.634 11.3176 161.769 11.3277C161.904 11.3175 162.04 11.3436 162.162 11.4033C162.284 11.4629 162.386 11.5538 162.459 11.6662C162.732 12.0956 162.78 12.9984 162.78 14.6282C162.78 16.2581 162.742 17.164 162.459 17.5934C162.386 17.7058 162.284 17.7967 162.162 17.8564C162.04 17.916 161.904 17.9421 161.769 17.9319C161.634 17.942 161.499 17.9158 161.378 17.8561C161.257 17.7964 161.156 17.7055 161.085 17.5934C160.815 17.164 160.763 16.2613 160.763 14.6282C160.763 12.9952 160.815 12.0956 161.085 11.6662Z" fill="#231F20"/>
<path d="M143.964 9.58498C144.811 9.58498 145.569 9.23393 145.608 8.13062H144.644C144.619 8.28971 144.537 8.4348 144.412 8.53961C144.286 8.64442 144.127 8.70204 143.962 8.70204C143.797 8.70204 143.637 8.64442 143.512 8.53961C143.387 8.4348 143.305 8.28971 143.279 8.13062H142.316C142.355 9.23393 143.112 9.58498 143.964 9.58498Z" fill="#231F20"/>
<path d="M150.033 19.1888C150.323 19.2043 150.612 19.1623 150.884 19.0653C151.157 18.9683 151.406 18.8184 151.617 18.6246C152.119 18.1115 152.391 17.4249 152.375 16.7157H150.946C150.953 17.0224 150.877 17.3254 150.724 17.5934C150.651 17.7016 150.549 17.7882 150.429 17.8435C150.309 17.8988 150.175 17.9207 150.043 17.9068C149.907 17.9214 149.769 17.899 149.645 17.842C149.521 17.785 149.415 17.6957 149.34 17.584C149.057 17.1546 149.019 16.2519 149.019 14.6188C149.019 12.9858 149.057 12.0862 149.34 11.6568C149.411 11.5452 149.512 11.4546 149.632 11.395C149.752 11.3353 149.886 11.3088 150.021 11.3183C150.153 11.3048 150.286 11.3269 150.406 11.3821C150.526 11.4374 150.628 11.5237 150.701 11.6317C150.855 11.8949 150.932 12.1941 150.923 12.4968H152.362C152.373 12.1518 152.313 11.808 152.188 11.4853C152.062 11.1626 151.872 10.8672 151.63 10.6162C151.415 10.4206 151.162 10.2688 150.886 10.1697C150.611 10.0707 150.317 10.0264 150.024 10.0395C149.688 10.0242 149.353 10.0853 149.045 10.2181C148.737 10.3508 148.466 10.5515 148.251 10.8043C147.647 11.5064 147.583 12.4874 147.583 14.6063C147.583 16.7251 147.647 17.7062 148.251 18.4115C148.466 18.6643 148.737 18.8649 149.045 18.9977C149.353 19.1304 149.688 19.1915 150.024 19.1763" fill="#231F20"/>
<path d="M144.914 13.6158V19.0885H146.356V10.1523H145.068L143.026 15.6249V10.1523H141.584V19.0885H142.859L144.914 13.6158Z" fill="#231F20"/>
<path d="M126.184 19.1888C126.473 19.2043 126.763 19.1623 127.035 19.0653C127.307 18.9683 127.556 18.8184 127.767 18.6246C128.269 18.1114 128.542 17.4249 128.525 16.7157H127.086C127.093 17.0222 127.016 17.3248 126.865 17.5934C126.792 17.7016 126.69 17.7882 126.57 17.8435C126.449 17.8987 126.316 17.9207 126.184 17.9068C126.05 17.916 125.915 17.8893 125.796 17.8297C125.676 17.77 125.575 17.6797 125.503 17.5683C125.221 17.1389 125.182 16.2362 125.182 14.6031C125.182 12.9701 125.221 12.0705 125.503 11.6411C125.574 11.5292 125.675 11.4385 125.795 11.3788C125.915 11.3191 126.05 11.2928 126.184 11.3026C126.316 11.2891 126.449 11.3112 126.569 11.3665C126.689 11.4217 126.792 11.5081 126.865 11.6161C127.017 11.8797 127.094 12.1786 127.086 12.4812H128.525C128.536 12.1361 128.477 11.7923 128.351 11.4696C128.226 11.1469 128.036 10.8515 127.793 10.6005C127.578 10.4049 127.326 10.2531 127.05 10.154C126.774 10.055 126.481 10.0107 126.187 10.0238C125.851 10.0088 125.515 10.07 125.207 10.2027C124.899 10.3354 124.627 10.5359 124.411 10.7886C123.811 11.4907 123.743 12.4718 123.743 14.5906C123.743 16.7095 123.811 17.6905 124.411 18.3958C124.627 18.6484 124.899 18.849 125.207 18.9817C125.515 19.1144 125.851 19.1756 126.187 19.1606" fill="#231F20"/>
<path d="M138.661 13.6158V19.0885H140.103V10.1523H138.818L136.773 15.6249V10.1523H135.331V19.0885H136.606L138.661 13.6158Z" fill="#231F20"/>
<path d="M114.581 10.1523H112.281V19.0885H113.72V15.5873H114.581C116.241 15.5873 116.935 14.7442 116.935 12.8761C116.935 11.008 116.241 10.1523 114.581 10.1523ZM114.529 14.3179H113.72V11.4186H114.529C115.3 11.4186 115.493 11.9734 115.493 12.8761C115.493 13.7788 115.297 14.3179 114.529 14.3179Z" fill="#231F20"/>
<path d="M113.72 23.3763H116.058V22.1069H112.278V31.0462H113.72V23.3763Z" fill="#231F20"/>
<path d="M120.907 29.7768H118.505V27.1784H120.573V25.9121H118.505V23.3763H120.907V22.11H117.063V31.0462H120.907V29.7768Z" fill="#231F20"/>
<path d="M126.749 24.8307C126.749 22.9501 126.056 22.1069 124.398 22.1069H122.096V31.0462H123.534V27.542H124.398C126.056 27.542 126.749 26.7019 126.749 24.8307ZM124.344 26.2757H123.534V23.3763H124.344C125.115 23.3763 125.307 23.928 125.307 24.8307C125.307 25.7334 125.115 26.2757 124.344 26.2757Z" fill="#231F20"/>
<path d="M127.934 31.0462H129.376V25.5359L130.594 29.1374H131.393L132.643 25.4733V31.0462H134.081V22.11H132.771L131.008 26.8022L129.232 22.11H127.934V31.0462Z" fill="#231F20"/>
<path d="M138.507 22.1069H137.107L134.859 31.0462H136.374L136.737 29.2753H138.857L139.233 31.0462H140.736L138.507 22.1069ZM137.017 28.009L137.8 24.2665L138.587 28.009H137.017Z" fill="#231F20"/>
<path d="M142.971 27.1407H144.76V31.0462H146.202V22.1069H144.76V25.8745H142.971V22.1069H141.532V31.0462H142.971V27.1407Z" fill="#231F20"/>
<path d="M151.475 30.5792C151.975 30.0663 152.247 29.3811 152.23 28.6735H150.788C150.797 28.9798 150.721 29.2828 150.57 29.5511C150.497 29.6591 150.394 29.7455 150.274 29.8007C150.154 29.856 150.021 29.8781 149.889 29.8646C149.755 29.8744 149.62 29.8481 149.5 29.7884C149.38 29.7287 149.279 29.6379 149.208 29.526C148.925 29.0998 148.887 28.1971 148.887 26.564C148.887 24.931 148.929 24.0283 149.208 23.602C149.279 23.4901 149.38 23.3994 149.5 23.3397C149.62 23.28 149.755 23.2536 149.889 23.2635C150.021 23.25 150.154 23.2721 150.274 23.3273C150.394 23.3826 150.497 23.4689 150.57 23.577C150.723 23.8401 150.799 24.1395 150.788 24.442H152.23C152.241 24.097 152.182 23.7532 152.056 23.4305C151.93 23.1078 151.741 22.8124 151.498 22.5614C151.283 22.3655 151.031 22.2133 150.755 22.1138C150.479 22.0142 150.186 21.9692 149.892 21.9815C149.555 21.9671 149.22 22.029 148.912 22.1622C148.604 22.2954 148.331 22.4964 148.116 22.7495C147.512 23.4516 147.448 24.4295 147.448 26.5515C147.448 28.6735 147.512 29.6514 148.116 30.3567C148.332 30.6093 148.604 30.8099 148.912 30.9426C149.22 31.0753 149.556 31.1365 149.892 31.1215C150.182 31.1369 150.471 31.0946 150.744 30.9971C151.016 30.8995 151.265 30.7488 151.475 30.5541" fill="#231F20"/>
<path d="M156.89 22.1069L154.835 26.3885L157.057 31.0462H158.653L156.312 26.3258L158.406 22.1069H156.89Z" fill="#231F20"/>
<path d="M154.809 22.11H153.367V31.0462H154.809V22.11Z" fill="#231F20"/>
<path d="M160.982 22.1069L158.734 31.0462H160.259L160.619 29.2753H162.742L163.114 31.0462H164.617L162.395 22.1069H160.982ZM160.901 28.009L161.685 24.2665L162.472 28.009H160.901Z" fill="#231F20"/>
<path d="M167.684 22.1069C166.011 22.1069 165.34 22.8999 165.34 24.7429C165.34 25.8494 165.574 26.6236 166.409 27.0781L165.048 31.0462H166.551L167.749 27.379H168.558V31.0462H170V22.1069H167.684ZM168.558 26.1127H167.672C166.898 26.1127 166.782 25.4858 166.782 24.7429C166.782 24.0001 166.898 23.3763 167.672 23.3763H168.558V26.1127Z" fill="#231F20"/>
<path d="M116.279 33.8014H113.37V36.5377C113.39 37.6749 113.197 38.8061 112.801 39.8758H112.361V41.8254H113.164V40.6124H116.035V41.8254H116.838V39.8758H116.289L116.279 33.8014ZM115.435 39.8758H113.656C114.02 38.8624 114.195 37.7933 114.173 36.7195V34.5254H115.435V39.8758Z" fill="#231F20"/>
<path d="M119.025 33.7262C118.8 33.7176 118.576 33.7579 118.369 33.844C118.162 33.9302 117.977 34.0602 117.827 34.2245C117.378 34.7104 117.32 35.3216 117.32 37.2085C117.32 39.0954 117.378 39.716 117.827 40.1924C117.983 40.3491 118.168 40.4738 118.374 40.5589C118.58 40.644 118.801 40.6878 119.024 40.6878C119.247 40.6878 119.468 40.644 119.674 40.5589C119.879 40.4738 120.065 40.3491 120.22 40.1924C120.67 39.7035 120.728 39.0923 120.728 37.2085C120.728 35.3247 120.67 34.701 120.22 34.2245C120.071 34.0602 119.887 33.9303 119.68 33.8441C119.474 33.7579 119.25 33.7176 119.025 33.7262ZM119.591 39.6815C119.527 39.7677 119.441 39.8365 119.342 39.8815C119.243 39.9265 119.134 39.9461 119.025 39.9386C118.915 39.9454 118.804 39.9255 118.703 39.8806C118.603 39.8358 118.515 39.7674 118.447 39.6815C118.2 39.3681 118.161 38.8102 118.161 37.196C118.161 35.5817 118.2 35.0332 118.447 34.7072C118.515 34.622 118.603 34.554 118.704 34.5093C118.805 34.4645 118.915 34.4442 119.025 34.4502C119.134 34.4444 119.242 34.4648 119.341 34.5097C119.44 34.5545 119.525 34.6224 119.591 34.7072C119.838 35.0207 119.886 35.5786 119.886 37.196C119.886 38.8133 119.838 39.3556 119.591 39.6815Z" fill="#231F20"/>
<path d="M123.149 33.8014H121.582V40.6124H122.426V37.7727H123.149C124.19 37.7727 124.806 37.2837 124.806 35.7948C124.806 34.306 124.209 33.8014 123.149 33.8014ZM123.12 37.0361H122.426V34.5285H123.12C123.689 34.5285 123.962 34.8608 123.962 35.7823C123.962 36.7038 123.689 37.0361 123.12 37.0361Z" fill="#231F20"/>
<path d="M127.237 33.7261C127.013 33.7174 126.789 33.7575 126.582 33.8437C126.376 33.93 126.191 34.06 126.043 34.2245C125.593 34.7103 125.532 35.3215 125.532 37.2084C125.532 39.0954 125.593 39.716 126.043 40.1924C126.198 40.349 126.383 40.4736 126.588 40.5586C126.794 40.6437 127.014 40.6875 127.237 40.6875C127.46 40.6875 127.681 40.6437 127.886 40.5586C128.092 40.4736 128.277 40.349 128.432 40.1924C128.882 39.7034 128.943 39.0922 128.943 37.2084C128.943 35.3247 128.882 34.7009 128.432 34.2245C128.283 34.06 128.099 33.93 127.892 33.8437C127.686 33.7575 127.462 33.7174 127.237 33.7261ZM127.806 39.6815C127.74 39.7666 127.654 39.8346 127.555 39.8795C127.456 39.9243 127.347 39.9446 127.237 39.9385C127.127 39.9445 127.017 39.9242 126.916 39.8795C126.815 39.8347 126.727 39.7668 126.659 39.6815C126.415 39.3681 126.377 38.8101 126.377 37.1959C126.377 35.5817 126.415 35.0332 126.659 34.7072C126.728 34.6225 126.816 34.555 126.917 34.5103C127.017 34.4656 127.127 34.445 127.237 34.4502C127.346 34.4449 127.455 34.4656 127.554 34.5104C127.653 34.5551 127.74 34.6227 127.806 34.7072C128.05 35.0206 128.101 35.5786 128.101 37.1959C128.101 38.8133 128.05 39.3555 127.806 39.6815Z" fill="#231F20"/>
<path d="M135.546 33.8045H134.637L132.941 37.0643L134.772 40.6124H135.703L133.821 37.0267L135.546 33.8045Z" fill="#231F20"/>
<path d="M132.922 33.8014H132.081V40.6093H132.922V33.8014Z" fill="#231F20"/>
<path d="M129.405 33.8045L131.168 37.0267L129.248 40.6124H130.17L132.058 37.0643L130.305 33.8045H129.405Z" fill="#231F20"/>
<path d="M138.664 36.7791H137.116V33.8045H136.275V40.6124H137.116V37.525H138.664V40.6124H139.506V33.8045H138.664V36.7791Z" fill="#231F20"/>
<path d="M141.664 33.8045L140.026 40.6124H140.906L141.227 39.0045H142.833L143.154 40.6124H144.047L142.441 33.8045H141.664ZM141.41 38.2679L142.069 35.1335L142.711 38.2679H141.41Z" fill="#231F20"/>
<path d="M144.522 35.7322C144.522 36.6725 144.757 37.2335 145.364 37.5094L144.294 40.5999H145.184L146.147 37.6724H146.902V40.5999H147.734V33.8045H146.157C145.097 33.8045 144.513 34.2527 144.513 35.7447L144.522 35.7322ZM146.892 36.9577H146.147C145.505 36.9577 145.354 36.4719 145.354 35.7447C145.354 35.0175 145.499 34.538 146.147 34.538H146.892V36.9577Z" fill="#231F20"/>
<path d="M151.093 33.8045H150.252V40.6124H151.093V33.8045Z" fill="#231F20"/>
<path d="M155.464 33.8045L153.858 40.4651L151.97 37.0173L153.765 33.7951H152.872L151.119 37.0549L153.011 40.603H154.726L155.047 38.9951H156.653L156.974 40.603H157.867L156.261 33.7951L155.464 33.8045ZM155.211 38.2679L155.853 35.1335L156.495 38.2679H155.211Z" fill="#231F20"/>
<path d="M160.002 33.8014H158.435V40.6124H159.276V37.7727H160.002C161.04 37.7727 161.659 37.2837 161.659 35.7948C161.659 34.306 161.062 33.8014 160.002 33.8014ZM159.973 37.0361H159.276V34.5285H159.973C160.542 34.5285 160.815 34.8608 160.815 35.7823C160.815 36.7038 160.542 37.0361 159.973 37.0361Z" fill="#231F20"/>
<path d="M165.423 33.8045H162.238V34.5411H163.413V40.6124H164.254V34.5411H165.423V33.8045Z" fill="#231F20"/>
<path d="M166.962 33.8045L165.333 40.6124H166.217L166.538 39.0045H168.144L168.465 40.6124H169.354L167.749 33.8045H166.962ZM166.708 38.2679L167.35 35.1335L167.993 38.2679H166.708Z" fill="#231F20"/>
<path d="M43.9091 33.8014H42.3419V40.6093H43.1833V37.7695H43.9091C44.9465 37.7695 45.5663 37.2837 45.5663 35.7886C45.5663 34.2935 44.9657 33.8014 43.9091 33.8014ZM43.8802 37.0329H43.1833V34.5254H43.8802C44.4487 34.5254 44.7217 34.8608 44.7217 35.7792C44.7217 36.6976 44.4487 37.0329 43.8802 37.0329Z" fill="#231F20"/>
<path d="M25.6094 33.8014L23.9811 40.6124H24.8643L25.1854 39.0045H26.7912L27.1124 40.6124H28.0052L26.3994 33.8014H25.6094ZM25.3717 38.2679L26.014 35.1335L26.6563 38.2679H25.3717Z" fill="#231F20"/>
<path d="M19.3371 35.7322C19.3371 34.2402 18.7494 33.792 17.6928 33.792H16.1127V40.5999H16.9573V37.6755H17.7088L18.6723 40.5999H19.5619L18.4925 37.5125C19.1027 37.2367 19.3371 36.6819 19.3371 35.7322ZM17.6992 36.9483H16.9573V34.5286H17.6992C18.3415 34.5286 18.4925 35.0081 18.4925 35.7322C18.4925 36.4562 18.3479 36.9483 17.6992 36.9483Z" fill="#231F20"/>
<path d="M21.8646 33.723C21.64 33.7142 21.4163 33.7544 21.2096 33.8406C21.003 33.9268 20.8186 34.0569 20.6699 34.2214C20.2203 34.7103 20.1592 35.3216 20.1592 37.2053C20.1592 39.0891 20.2203 39.7128 20.6699 40.1893C20.8246 40.3468 21.0103 40.4721 21.2159 40.5577C21.4215 40.6433 21.6427 40.6874 21.8662 40.6874C22.0897 40.6874 22.3109 40.6433 22.5165 40.5577C22.7221 40.4721 22.9079 40.3468 23.0625 40.1893C23.5122 39.7034 23.5732 39.0891 23.5732 37.2053C23.5732 35.3216 23.5122 34.6978 23.0625 34.2214C22.9131 34.057 22.7281 33.9271 22.5209 33.8409C22.3138 33.7547 22.0896 33.7144 21.8646 33.723ZM22.4331 39.6784C22.3672 39.7635 22.2809 39.8315 22.1818 39.8763C22.0826 39.9212 21.9737 39.9414 21.8646 39.9354C21.7542 39.9406 21.6442 39.92 21.5436 39.8753C21.4431 39.8305 21.3549 39.763 21.2865 39.6784C21.0424 39.3649 21.0039 38.807 21.0039 37.1897C21.0039 35.5723 21.0424 35.0301 21.2865 34.7041C21.354 34.6182 21.442 34.5497 21.5427 34.5044C21.6434 34.4591 21.7539 34.4383 21.8646 34.4439C21.9741 34.4377 22.0834 34.4582 22.1827 34.5036C22.2819 34.549 22.368 34.618 22.4331 34.7041C22.6804 35.0175 22.7285 35.5723 22.7285 37.1897C22.7285 38.807 22.6804 39.3524 22.4331 39.6784Z" fill="#231F20"/>
<path d="M30.2758 33.8014H28.67V40.6093H30.2758C30.5002 40.6204 30.7243 40.5822 30.9316 40.4976C31.139 40.413 31.3242 40.284 31.4737 40.1203C31.9266 39.6533 31.9747 39.039 31.9747 37.1928C31.9747 35.3466 31.9266 34.7354 31.4737 34.2653C31.3228 34.1049 31.1374 33.9791 30.9309 33.8967C30.7244 33.8144 30.5018 33.7775 30.279 33.7888L30.2758 33.8014ZM30.8314 39.6157C30.7585 39.7011 30.6664 39.7691 30.5622 39.8142C30.4581 39.8593 30.3447 39.8804 30.2308 39.8758H29.5114V34.5473H30.2437C30.3541 34.5426 30.4643 34.5621 30.566 34.6044C30.6677 34.6467 30.7584 34.7107 30.8314 34.7918C31.098 35.1053 31.1172 35.6319 31.1172 37.2022C31.1172 38.7725 31.098 39.2991 30.8314 39.6125" fill="#231F20"/>
<path d="M35.0194 37.5909L33.6063 33.8014H32.813V40.6124H33.6576V35.8387L34.7464 38.9481H35.2634L36.3714 35.7635V40.6124H37.2129V33.8014H36.4196L35.0194 37.5909Z" fill="#231F20"/>
<path d="M39.3807 33.8014L37.7524 40.6124H38.6356L38.9568 39.0045H40.5626L40.8838 40.6124H41.7766L40.1708 33.8014H39.3807ZM39.127 38.2679L39.7693 35.1335L40.4116 38.2679H39.127Z" fill="#231F20"/>
<path d="M23.7338 22.1069H22.2917V31.0462H23.7338V22.1069Z" fill="#231F20"/>
<path d="M8.9925 28.9242C9.0058 29.0445 8.99262 29.1662 8.95385 29.2811C8.91508 29.396 8.85162 29.5015 8.76769 29.5905C8.68377 29.6795 8.58133 29.75 8.46724 29.7973C8.35314 29.8446 8.23001 29.8675 8.1061 29.8646C7.98128 29.8682 7.8571 29.8459 7.7418 29.7991C7.6265 29.7524 7.52272 29.6822 7.43736 29.5932C7.352 29.5043 7.28701 29.3986 7.24671 29.2833C7.20641 29.1679 7.19173 29.0455 7.20363 28.9242V22.1069H5.75199V28.8365C5.73613 29.4461 5.96689 30.0372 6.39431 30.482C6.61861 30.6994 6.88632 30.8695 7.18079 30.9816C7.47526 31.0938 7.79022 31.1456 8.1061 31.134C8.41954 31.1453 8.73199 31.0933 9.02382 30.9811C9.31565 30.8689 9.58053 30.699 9.80183 30.482C10.2292 30.0372 10.46 29.4461 10.4441 28.8365V22.1069H8.9925V28.9242Z" fill="#231F20"/>
<path d="M27 29.8645C26.8782 29.8725 26.7561 29.8555 26.6416 29.8144C26.5271 29.7734 26.4227 29.7093 26.3351 29.6263C26.1296 29.4007 26.0782 29.0998 26.0782 28.6233H24.633C24.633 29.5636 24.7872 30.1153 25.2271 30.5447C25.4677 30.753 25.7483 30.9124 26.0527 31.0136C26.3571 31.1148 26.6792 31.1557 27 31.134C27.6519 31.1708 28.2931 30.9596 28.7888 30.5447C29.2513 30.1059 29.3798 29.4884 29.3798 28.5732C29.3798 27.0655 29.0843 26.5013 27.9923 26.0657L26.91 25.6362C26.2677 25.3855 26.1521 25.1598 26.1521 24.4326C26.1257 24.1212 26.2121 23.8107 26.3962 23.555C26.4733 23.4699 26.5691 23.4029 26.6764 23.3589C26.7837 23.315 26.8998 23.2952 27.016 23.3011C27.1371 23.292 27.2587 23.3115 27.3705 23.3579C27.4822 23.4042 27.581 23.4761 27.6583 23.5675C27.8367 23.8484 27.9136 24.1794 27.8767 24.5079H29.3155C29.3155 23.6553 29.1485 23.0159 28.6732 22.5614C28.219 22.1756 27.6264 21.9817 27.0256 22.0223C26.4518 22.0071 25.8929 22.2016 25.4584 22.5677C25.2038 22.811 25.0056 23.1048 24.877 23.4292C24.7485 23.7536 24.6927 24.1011 24.7133 24.4483C24.7133 25.8274 25.0569 26.3289 25.9979 26.6957L27.0899 27.1345C27.7996 27.4103 27.9538 27.6517 27.9538 28.6045C27.9538 29.0809 27.9024 29.3818 27.7097 29.595C27.6211 29.6862 27.5121 29.7563 27.3913 29.7998C27.2704 29.8433 27.1409 29.859 27.0128 29.8457" fill="#231F20"/>
<path d="M4.65683 24.7429C4.65683 22.8968 3.98882 22.1069 2.31557 22.1069H0V31.0462H1.44201V27.379H2.24813L3.44605 31.0462H4.94909L3.59058 27.0781C4.42559 26.6392 4.65683 25.8462 4.65683 24.7429ZM2.32842 26.1127H1.44201V23.3732H2.32842C3.10241 23.3732 3.21482 24.0001 3.21482 24.7429C3.21482 25.4858 3.10241 26.1127 2.32842 26.1127Z" fill="#231F20"/>
<path d="M17.4294 22.5677C17.1751 22.8113 16.9771 23.1051 16.8486 23.4294C16.7201 23.7538 16.6641 24.1011 16.6843 24.4483C16.6843 25.8275 17.0311 26.329 17.9689 26.6957L19.0608 27.1345C19.7674 27.4103 19.9216 27.6517 19.9216 28.6045C19.9216 29.081 19.8702 29.3819 19.6775 29.595C19.5892 29.6858 19.4808 29.7556 19.3605 29.7991C19.2402 29.8426 19.1114 29.8585 18.9838 29.8458C18.8613 29.8584 18.7375 29.8454 18.6206 29.8076C18.5038 29.7697 18.3965 29.7079 18.3061 29.6264C18.0929 29.336 18 28.9777 18.046 28.6233H16.6072C16.6072 29.5637 16.7613 30.1153 17.1981 30.5416C17.4387 30.751 17.7197 30.9113 18.0247 31.0131C18.3298 31.1148 18.6526 31.1559 18.9741 31.134C19.6266 31.1703 20.2679 30.9579 20.763 30.5416C21.2255 30.1059 21.3539 29.4884 21.3539 28.5732C21.3539 27.0656 21.0585 26.5014 19.9633 26.0657L18.8842 25.6331C18.2419 25.3824 18.1231 25.1567 18.1231 24.4295C18.0974 24.1167 18.1849 23.8051 18.3704 23.5487C18.4474 23.4647 18.5428 23.3985 18.6495 23.3551C18.7562 23.3117 18.8715 23.2922 18.987 23.298C19.1081 23.2889 19.2297 23.3084 19.3414 23.3548C19.4532 23.4011 19.5519 23.473 19.6293 23.5644C19.8083 23.845 19.8853 24.1763 19.8477 24.5047H21.2897C21.2897 23.649 21.1227 23.0096 20.6474 22.5583C20.1926 22.1734 19.6004 21.9796 18.9998 22.0192C18.4246 22.0046 17.8645 22.2003 17.4294 22.5677Z" fill="#231F20"/>
<path d="M40.4181 31.0462V22.1069H38.9761V25.8745H37.1904V22.1069H35.7484V31.0462H37.1904V27.1407H38.9761V31.0462H40.4181Z" fill="#231F20"/>
<path d="M45.486 23.3763V22.1069H41.6385V31.0462H45.486V29.7799H43.0805V27.1784H45.152V25.9121H43.0805V23.3763H45.486Z" fill="#231F20"/>
<path d="M34.862 28.6735H33.42C33.4267 28.9806 33.3514 29.2841 33.2016 29.5542C33.1204 29.656 33.0161 29.738 32.8971 29.7939C32.778 29.8498 32.6473 29.8782 32.5151 29.8766C32.383 29.8751 32.253 29.8438 32.1353 29.7852C32.0176 29.7265 31.9154 29.6421 31.8367 29.5386C31.554 29.1123 31.5155 28.2065 31.5155 26.5766C31.5155 24.9467 31.554 24.0408 31.8367 23.6145C31.9159 23.5108 32.0188 23.4265 32.1373 23.3685C32.2558 23.3104 32.3865 23.2802 32.5191 23.2802C32.6517 23.2802 32.7824 23.3104 32.9009 23.3685C33.0194 23.4265 33.1224 23.5108 33.2016 23.6145C33.3529 23.8796 33.4284 24.1795 33.42 24.4828H34.862C34.8803 23.7858 34.616 23.1099 34.1265 22.6021C33.9118 22.4063 33.6591 22.2545 33.3833 22.1554C33.1076 22.0564 32.8143 22.0122 32.5207 22.0254C32.1842 22.0099 31.8486 22.0709 31.5404 22.2036C31.2322 22.3363 30.9598 22.5372 30.7447 22.7902C30.1409 23.4766 30.0735 24.4483 30.0735 26.5766C30.0735 28.7048 30.1409 29.6796 30.7447 30.3817C30.9598 30.6348 31.2322 30.8356 31.5404 30.9683C31.8486 31.101 32.1842 31.162 32.5207 31.1465C32.8098 31.1621 33.0991 31.1198 33.3709 31.0223C33.6426 30.9247 33.891 30.7739 34.1008 30.5792C34.603 30.0673 34.8768 29.382 34.862 28.6735Z" fill="#231F20"/>
<path d="M14.5999 26.0625L13.5208 25.6331C12.8785 25.3855 12.7629 25.1567 12.7629 24.4295C12.7365 24.1181 12.8229 23.8075 13.007 23.5519C13.0889 23.47 13.1869 23.4049 13.295 23.3605C13.4031 23.3161 13.5192 23.2932 13.6365 23.2932C13.7538 23.2932 13.8699 23.3161 13.978 23.3605C14.0861 23.4049 14.184 23.47 14.2659 23.5519C14.4431 23.8332 14.5199 24.1638 14.4843 24.4922H15.9263C15.9263 23.6397 15.7593 22.9971 15.284 22.5457C15.0602 22.3541 14.7995 22.2077 14.5173 22.1152C14.235 22.0226 13.9367 21.9857 13.6397 22.0066C13.0616 21.9948 12.5001 22.195 12.066 22.5677C11.8119 22.8114 11.614 23.1052 11.4855 23.4296C11.357 23.7539 11.3009 24.1012 11.3209 24.4483C11.3209 25.8275 11.6677 26.329 12.6055 26.6957L13.7007 27.1345C14.4072 27.4103 14.5614 27.6517 14.5614 28.6046C14.5614 29.081 14.51 29.3819 14.3173 29.595C14.2289 29.6858 14.1206 29.7558 14.0004 29.7998C13.8802 29.8438 13.7514 29.8606 13.6236 29.8489C13.5011 29.8569 13.3783 29.8396 13.2631 29.798C13.148 29.7564 13.0432 29.6915 12.9556 29.6076C12.7468 29.3819 12.6987 29.081 12.6987 28.6046H11.2406C11.2406 29.5449 11.3948 30.0997 11.8315 30.5228C12.0723 30.7319 12.3534 30.892 12.6583 30.9938C12.9633 31.0955 13.286 31.1368 13.6076 31.1152C14.2639 31.162 14.9129 30.9561 15.4157 30.5416C15.8782 30.1059 16.0066 29.4885 16.0066 28.5732C16.0066 27.0656 15.7112 26.5014 14.616 26.0657" fill="#231F20"/>
<path d="M9.49347 18.3488C10.1101 17.6812 10.1615 16.6656 10.1615 14.6063C10.1615 12.547 10.1101 11.5565 9.49347 10.8889C9.2734 10.6408 8.99807 10.4451 8.68855 10.3169C8.37904 10.1887 8.04356 10.1313 7.70782 10.1492H5.38904V19.0885H7.70782C8.04197 19.1049 8.37556 19.0468 8.68329 18.9187C8.99101 18.7905 9.26479 18.5956 9.48384 18.3488H9.49347ZM6.82141 17.8191V11.4186H7.66928C7.81314 11.4122 7.95625 11.4423 8.08461 11.506C8.21296 11.5698 8.32216 11.6649 8.40153 11.7822C8.68415 12.1959 8.72269 13.036 8.72269 14.6032C8.72269 16.1704 8.69378 17.0386 8.40153 17.4523C8.32216 17.5696 8.21296 17.6648 8.08461 17.7285C7.95625 17.7923 7.81314 17.8224 7.66928 17.8159L6.82141 17.8191Z" fill="#231F20"/>
<path d="M14.9853 17.8222H12.5799V15.2238H14.6513V13.9543H12.5799V11.4186H14.9853V10.1492H11.1411V19.0885H14.9853V17.8222Z" fill="#231F20"/>
<path d="M45.4346 13.9919H42.8364V15.2582H45.4346V13.9919Z" fill="#231F20"/>
<path d="M33.9467 19.1888C34.236 19.2038 34.5253 19.1615 34.7974 19.0646C35.0695 18.9676 35.3187 18.8179 35.53 18.6246C36.0324 18.1116 36.3061 17.4252 36.2912 16.7157H34.8524C34.857 17.022 34.7806 17.3243 34.6308 17.5934C34.557 17.7009 34.4547 17.7868 34.3348 17.842C34.2149 17.8972 34.0818 17.9196 33.9499 17.9068C33.8156 17.9163 33.6812 17.8898 33.5612 17.8302C33.4411 17.7705 33.3401 17.6799 33.2691 17.5683C32.9864 17.1389 32.9479 16.2362 32.9479 14.6032C32.9479 12.9701 32.9896 12.0674 33.2691 11.6411C33.3483 11.538 33.4511 11.4543 33.5693 11.3966C33.6875 11.3389 33.8178 11.3089 33.9499 11.3089C34.082 11.3089 34.2124 11.3389 34.3305 11.3966C34.4487 11.4543 34.5515 11.538 34.6308 11.6411C34.7823 11.9051 34.8588 12.2038 34.8524 12.5062H36.2912C36.3122 11.8094 36.0488 11.133 35.5589 10.6256C35.3438 10.4304 35.091 10.2789 34.8154 10.1799C34.5397 10.0809 34.2466 10.0363 33.9531 10.0489C33.6166 10.0334 33.281 10.0944 32.9728 10.2271C32.6646 10.3598 32.3922 10.5606 32.1771 10.8137C31.5733 11.5189 31.5091 12.4968 31.5091 14.6188C31.5091 16.7408 31.5733 17.7188 32.1771 18.424C32.3922 18.677 32.6646 18.8779 32.9728 19.0106C33.281 19.1433 33.6166 19.2043 33.9531 19.1888" fill="#231F20"/>
<path d="M38.6164 15.1862H40.4053V19.0885H41.844V10.1492H40.4053V13.9167H38.6164V10.1492H37.1744V19.0885H38.6164V15.1862Z" fill="#231F20"/>
<path d="M22.6772 19.0885H24.1192V11.4186H25.664V10.1492H21.1484V11.4186H22.6772V19.0885Z" fill="#231F20"/>
<path d="M28.4291 17.9068C28.3064 17.9157 28.1831 17.8991 28.0673 17.858C27.9516 17.8169 27.8462 17.7524 27.7579 17.6686C27.5524 17.4429 27.501 17.142 27.501 16.6656H26.0622C26.0622 17.6059 26.2164 18.1576 26.6531 18.587C26.8941 18.7955 27.1753 18.9551 27.4803 19.0563C27.7853 19.1574 28.1078 19.1982 28.4291 19.1762C29.0809 19.2117 29.7216 19.0007 30.218 18.587C30.6805 18.1482 30.809 17.5307 30.809 16.6154C30.809 15.1109 30.5135 14.5436 29.4183 14.1079L28.3392 13.6816C27.6969 13.4309 27.5781 13.2021 27.5781 12.4749C27.5517 12.1635 27.6381 11.8529 27.8222 11.5973C27.8995 11.5135 27.995 11.4476 28.1016 11.4042C28.2082 11.3609 28.3234 11.3411 28.4388 11.3465C28.5596 11.3373 28.6809 11.3564 28.7926 11.4022C28.9043 11.448 29.0032 11.5192 29.0811 11.6098C29.2594 11.8906 29.3363 12.2217 29.2995 12.5501H30.7415C30.7415 11.6976 30.5745 11.0581 30.0992 10.6068C29.8756 10.4146 29.6151 10.2676 29.3328 10.1745C29.0505 10.0814 28.7521 10.0441 28.4548 10.0645C27.8802 10.0464 27.3195 10.24 26.8844 10.6068C26.6299 10.8503 26.4318 11.1441 26.3033 11.4684C26.1748 11.7928 26.1189 12.1402 26.1393 12.4874C26.1393 13.8697 26.4861 14.3681 27.4239 14.7348L28.5191 15.1736C29.2256 15.4494 29.3798 15.6908 29.3798 16.6436C29.3798 17.1201 29.3284 17.421 29.1357 17.6372C29.0464 17.7265 28.9377 17.7952 28.8177 17.838C28.6976 17.8809 28.5692 17.8969 28.442 17.8849" fill="#231F20"/>
<path d="M18.1745 19.1888C18.4884 19.2002 18.8013 19.1482 19.0937 19.036C19.386 18.9238 19.6515 18.7539 19.8734 18.5368C20.3011 18.0922 20.5319 17.5009 20.5157 16.8913V10.1492H19.0641V16.9665C19.0771 17.0887 19.0636 17.2123 19.0246 17.3292C18.9856 17.446 18.9219 17.5536 18.8376 17.6448C18.7532 17.7361 18.6502 17.8091 18.5352 17.8591C18.4201 17.909 18.2956 17.9349 18.1696 17.9349C18.0437 17.9349 17.9192 17.909 17.8041 17.8591C17.6891 17.8091 17.586 17.7361 17.5017 17.6448C17.4174 17.5536 17.3537 17.446 17.3146 17.3292C17.2756 17.2123 17.2622 17.0887 17.2752 16.9665V10.1492H15.8364V16.8913C15.8198 17.501 16.0507 18.0924 16.4787 18.5368C16.7025 18.754 16.9697 18.9239 17.2636 19.036C17.5575 19.1482 17.8719 19.2002 18.1873 19.1888" fill="#231F20"/>
</svg>
