<svg width="129" height="119" viewBox="0 0 129 119" fill="none" xmlns="http://www.w3.org/2000/svg">
<g clip-path="url(#clip0)">
<path d="M118.4 65.36H78.4V73.06H118.4V65.36Z" fill="#231F20"/>
<path d="M118.4 72.92H78.4V80.62H118.4V72.92Z" fill="#ED1C24"/>
<path d="M118.4 80.48H78.4V88.18H118.4V80.48Z" fill="#F5CE00"/>
<path d="M58.2899 55.22L60.0499 52.22C61.2857 50.0852 61.7739 47.5991 61.4369 45.1555C61.1 42.712 59.9573 40.4507 58.1899 38.73L73.3699 25.59L86.6399 34.27C86.6399 34.27 88.4699 54 88.4699 55.22" stroke="#231F20" stroke-width="3" stroke-miterlimit="10" stroke-linecap="round"/>
<path d="M70.2501 55.22L68.5001 52.22C67.263 50.0863 66.7733 47.6008 67.1084 45.1573C67.4435 42.7138 68.5843 40.4519 70.3501 38.73L55.1801 25.59L41.9101 34.27C41.9101 34.27 40.0701 54 40.0701 55.22" stroke="#231F20" stroke-width="3" stroke-miterlimit="10" stroke-linecap="round"/>
<path d="M64.27 22.42C68.9755 22.42 72.79 17.7369 72.79 11.96C72.79 6.1831 68.9755 1.5 64.27 1.5C59.5645 1.5 55.75 6.1831 55.75 11.96C55.75 17.7369 59.5645 22.42 64.27 22.42Z" stroke="#231F20" stroke-width="3" stroke-linecap="round" stroke-linejoin="round"/>
<path d="M86.42 34.46L96.31 30.71" stroke="#231F20" stroke-width="3" stroke-linejoin="round"/>
<path d="M120.2 60.8C120.2 60.19 119.2 46.8 118.73 39.12C118.637 37.729 118.146 36.394 117.317 35.2737C116.487 34.1533 115.353 33.2948 114.05 32.8L108.53 30.71" stroke="#231F20" stroke-width="3" stroke-linejoin="round"/>
<path d="M108.53 30.71C106.742 31.9697 104.608 32.6459 102.42 32.6459C100.233 32.6459 98.0985 31.9697 96.3101 30.71V30.71" stroke="#231F20" stroke-width="3" stroke-linecap="round" stroke-linejoin="round"/>
<path d="M108.91 18.43C108.91 14.03 106 10.43 102.42 10.43C98.8401 10.43 95.9301 14 95.9301 18.43C95.9301 22.86 98.8401 26.43 102.42 26.43C106 26.43 108.91 22.82 108.91 18.43Z" stroke="#231F20" stroke-width="3" stroke-linecap="round" stroke-linejoin="round"/>
<path d="M120.2 60.8H8.35C7.45045 60.8 6.5597 60.9772 5.72862 61.3214C4.89754 61.6657 4.1424 62.1702 3.50632 62.8063C2.87024 63.4424 2.36567 64.1975 2.02143 65.0286C1.67718 65.8597 1.5 66.7505 1.5 67.65V117.19H16.74C18.4542 117.19 20.0984 116.51 21.3114 115.299C22.5245 114.087 23.2073 112.444 23.21 110.73V101.25C23.21 98.94 24.1277 96.7245 25.7611 95.0911C27.3945 93.4577 29.61 92.54 31.92 92.54H96.63C98.94 92.54 101.155 93.4577 102.789 95.0911C104.422 96.7245 105.34 98.94 105.34 101.25V110.73C105.343 112.444 106.025 114.087 107.239 115.299C108.452 116.51 110.096 117.19 111.81 117.19H127.05V67.65C127.05 66.7505 126.873 65.8597 126.529 65.0286C126.184 64.1975 125.68 63.4424 125.044 62.8063C124.408 62.1702 123.652 61.6657 122.821 61.3214C121.99 60.9772 121.1 60.8 120.2 60.8V60.8Z" stroke="#231F20" stroke-width="3" stroke-miterlimit="10"/>
<path d="M102.42 38.33V47.79" stroke="#231F20" stroke-width="3" stroke-linecap="round" stroke-linejoin="round"/>
<path d="M42.13 34.46L32.24 30.71" stroke="#231F20" stroke-width="3" stroke-linejoin="round"/>
<path d="M8.3501 60.8C8.3501 60.19 9.3501 46.8 9.8101 39.12C9.904 37.7279 10.396 36.3921 11.2275 35.2716C12.0589 34.1511 13.1949 33.2932 14.5001 32.8L20.0001 30.71" stroke="#231F20" stroke-width="3" stroke-linejoin="round"/>
<path d="M20 30.71C21.7905 31.9692 23.9261 32.645 26.115 32.645C28.3039 32.645 30.4395 31.9692 32.23 30.71V30.71" stroke="#231F20" stroke-width="3" stroke-linecap="round" stroke-linejoin="round"/>
<path d="M19.6399 18.43C19.6399 14.03 22.5399 10.43 26.1299 10.43C29.7199 10.43 32.6099 14 32.6099 18.43C32.6099 22.86 29.7099 26.43 26.1299 26.43C22.5499 26.43 19.6399 22.82 19.6399 18.43Z" stroke="#231F20" stroke-width="3" stroke-linecap="round" stroke-linejoin="round"/>
<path d="M26.1201 38.33V47.79" stroke="#231F20" stroke-width="3" stroke-linecap="round" stroke-linejoin="round"/>
</g>
<defs>
<clipPath id="clip0">
<rect width="128.55" height="118.69" fill="white"/>
</clipPath>
</defs>
</svg>
