<svg width="44" height="61" viewBox="0 0 44 61" fill="none" xmlns="http://www.w3.org/2000/svg">
<g clip-path="url(#clip0)">
<path d="M43.3096 47.2901V0.702444H27.9394V32.4903L19.0441 24.4969L10.141 32.4903V0.702444H4.76101C4.22526 0.698143 3.69402 0.802343 3.19823 1.00898C2.70244 1.21561 2.25201 1.52055 1.87317 1.90603C1.49432 2.29151 1.19464 2.74983 0.991564 3.25431C0.78849 3.75879 0.686084 4.29933 0.690311 4.84447V56.1878C0.690295 56.7302 0.795808 57.2673 1.00077 57.768C1.20572 58.2688 1.50607 58.7233 1.88449 59.1053C2.26291 59.4874 2.71192 59.7894 3.20562 59.994C3.69931 60.1986 4.22794 60.3018 4.76101 60.2975H43.3096V47.2901Z" stroke="white" stroke-width="1.73" stroke-miterlimit="10"/>
<path d="M27.9394 0.702454H20.7026" stroke="white" stroke-width="1.73" stroke-miterlimit="10" stroke-linecap="round"/>
<path d="M38.85 47.5001V55.7599H30.7324" stroke="white" stroke-width="1.73" stroke-miterlimit="10" stroke-linecap="round"/>
<path d="M24.797 11.7882V25.4173L19.0441 20.2418L13.2832 25.4173V3.89171C13.2832 3.89171 16.6635 11.7882 24.797 11.7882Z" fill="white"/>
</g>
<defs>
<clipPath id="clip0">
<rect width="44" height="61" fill="white"/>
</clipPath>
</defs>
</svg>
