<svg width="69" height="63" viewBox="0 0 69 63" fill="none" xmlns="http://www.w3.org/2000/svg">
<g clip-path="url(#clip0)">
<path d="M19.3239 42.5752H4.66122C3.64085 42.5686 2.66462 42.1573 1.9462 41.4312C1.22778 40.7051 0.825679 39.7234 0.82789 38.7009V4.68725C0.827881 3.66701 1.23122 2.6883 1.94964 1.96533C2.66805 1.24235 3.64304 0.833987 4.66122 0.829599H64.3387C64.8457 0.828505 65.3479 0.927754 65.8164 1.12165C66.285 1.31554 66.7108 1.60027 67.0693 1.95947C67.4277 2.31867 67.7119 2.74529 67.9054 3.21482C68.0989 3.68435 68.198 4.18756 68.1969 4.69555V38.7092C68.1969 39.7346 67.7904 40.7179 67.0668 41.4429C66.3433 42.1679 65.3619 42.5752 64.3387 42.5752H49.676" stroke="white" stroke-width="1.93" stroke-miterlimit="10" stroke-linecap="round"/>
<path d="M45.5363 42.4922C45.5363 40.315 44.8925 38.1866 43.6862 36.3758C42.4798 34.5649 40.7651 33.1528 38.7584 32.3178C36.7518 31.4827 34.5432 31.2621 32.4115 31.6839C30.2798 32.1056 28.3207 33.1508 26.7814 34.6874C25.2421 36.224 24.1916 38.1832 23.7627 40.3176C23.3338 42.452 23.5457 44.6658 24.3715 46.6796C25.1973 48.6935 26.6001 50.417 28.4028 51.6325C30.2055 52.8481 32.3271 53.5012 34.5 53.5094C35.9473 53.5148 37.3815 53.2339 38.7203 52.6827C40.059 52.1314 41.276 51.3208 42.3013 50.2972C43.3267 49.2736 44.1403 48.0573 44.6954 46.7179C45.2506 45.3785 45.5363 43.9425 45.5363 42.4922Z" stroke="white" stroke-width="1.93" stroke-miterlimit="10"/>
<path d="M35.8246 35.3411C36.4084 35.8913 36.8759 36.5535 37.1995 37.2882C37.5231 38.0229 37.6961 38.8153 37.7084 39.6182C37.7206 40.4212 37.5718 41.2185 37.2707 41.9628C36.9697 42.7071 36.5225 43.3832 35.9558 43.951C35.3891 44.5189 34.7143 44.9669 33.9715 45.2686C33.2288 45.5703 32.4331 45.7194 31.6317 45.7071C30.8304 45.6949 30.0396 45.5215 29.3064 45.1972C28.5731 44.873 27.9123 44.4045 27.3632 43.8196C27.604 45.1232 28.1958 46.336 29.0745 47.3272C29.9532 48.3183 31.0854 49.05 32.349 49.4433C33.6125 49.8365 34.9592 49.8764 36.2437 49.5585C37.5282 49.2407 38.7015 48.5772 39.6371 47.6397C40.5726 46.7023 41.2348 45.5266 41.552 44.2395C41.8692 42.9524 41.8294 41.603 41.437 40.3369C41.0445 39.0709 40.3143 37.9363 39.3251 37.0558C38.336 36.1753 37.1256 35.5824 35.8246 35.3411Z" fill="white"/>
<path d="M45.5363 30.6953C44.0884 29.2434 42.3693 28.0917 40.477 27.3059C38.5848 26.52 36.5565 26.1156 34.5082 26.1156C32.4599 26.1156 30.4316 26.52 28.5393 27.3059C26.6471 28.0917 24.9279 29.2434 23.4801 30.6953" stroke="white" stroke-width="1.93" stroke-miterlimit="10" stroke-linecap="round"/>
<path d="M37.5798 53.3019L45.321 61.067V53.3268H53.0374L45.2962 45.57" stroke="white" stroke-width="1.93" stroke-miterlimit="10" stroke-linecap="round"/>
<path d="M31.42 53.3019L23.6789 61.067V53.3268H15.9625L23.7037 45.57" stroke="white" stroke-width="1.93" stroke-miterlimit="10" stroke-linecap="round"/>
<path d="M49.0054 18.2264H20.2926" stroke="white" stroke-width="1.93" stroke-miterlimit="10" stroke-linecap="round"/>
<path d="M15.2091 11.5066H54.0392" stroke="white" stroke-width="1.93" stroke-miterlimit="10" stroke-linecap="round"/>
</g>
<defs>
<clipPath id="clip0">
<rect width="69" height="63" fill="white"/>
</clipPath>
</defs>
</svg>
