<svg width="77" height="77" viewBox="0 0 77 77" fill="none" xmlns="http://www.w3.org/2000/svg">
<path d="M35.2001 7.05447C35.421 7.05447 35.6001 6.87266 35.6001 6.64837C35.6001 6.42409 35.421 6.24228 35.2001 6.24228C34.9791 6.24228 34.8 6.42409 34.8 6.64837C34.8 6.87266 34.9791 7.05447 35.2001 7.05447Z" stroke="white" stroke-width="1.8025" stroke-miterlimit="10" stroke-linecap="round"/>
<path d="M25.4 41.504C25.6209 41.504 25.8 41.3222 25.8 41.0979C25.8 40.8736 25.6209 40.6918 25.4 40.6918C25.1791 40.6918 25 40.8736 25 41.0979C25 41.3222 25.1791 41.504 25.4 41.504Z" stroke="white" stroke-width="1.8025" stroke-miterlimit="10" stroke-linecap="round"/>
<path d="M49.9 75.5477H1V68.231C1 65.4872 3.2 63.1499 5.9 63.1499H44.9C47.6 63.1499 49.8 65.3856 49.8 68.1293V75.5477H49.9Z" stroke="white" stroke-width="1.8025" stroke-linecap="round" stroke-linejoin="round"/>
<path d="M15 44.0452C16.6 49.8376 22.5 53.2927 28.2 51.7684C31.9 50.7522 34.7999 47.8052 35.7999 44.0452L38.7 63.2516H12.2L15 44.0452Z" stroke="white" stroke-width="1.8025" stroke-linecap="round" stroke-linejoin="round"/>
<path d="M25.4 46.0777C28.1062 46.0777 30.3 43.8483 30.3 41.0982C30.3 38.3482 28.1062 36.1188 25.4 36.1188C22.6938 36.1188 20.5 38.3482 20.5 41.0982C20.5 43.8483 22.6938 46.0777 25.4 46.0777Z" stroke="white" stroke-width="1.8025" stroke-linecap="round" stroke-linejoin="round"/>
<path d="M35.2001 11.7294C37.9063 11.7294 40.1001 9.50001 40.1001 6.74996C40.1001 3.9999 37.9063 1.77054 35.2001 1.77054C32.4939 1.77054 30.3 3.9999 30.3 6.74996C30.3 9.50001 32.4939 11.7294 35.2001 11.7294Z" stroke="white" stroke-width="1.7969" stroke-miterlimit="3.9876" stroke-linecap="round" stroke-linejoin="round"/>
<path d="M58.2 9.39255H43.7" stroke="white" stroke-width="1.8025" stroke-linecap="round" stroke-linejoin="round"/>
<path d="M42.7 1.66934H67.2" stroke="white" stroke-width="1.8025" stroke-linecap="round" stroke-linejoin="round"/>
<path d="M36.4001 15.5914L30.4001 31.8507C27.3001 30.1232 23.7001 30.1232 20.6001 31.8507L28.1001 11.8314" stroke="white" stroke-width="1.8025" stroke-linecap="round" stroke-linejoin="round"/>
<path d="M62.2 9.3925V16.3027H72.2V6.75037C72.2 3.90499 69.9 1.66934 67.2 1.66934" stroke="white" stroke-width="1.8025" stroke-linecap="round" stroke-linejoin="round"/>
<path d="M63.2 20.9773C63.2 23.213 65 25.0421 67.2 25.0421C69.4 25.0421 71.2 23.213 71.2 20.9773" stroke="white" stroke-width="1.8025" stroke-linecap="round" stroke-linejoin="round"/>
<path d="M67.2 24.9405V29.7167" stroke="white" stroke-width="1.8025" stroke-linecap="round" stroke-linejoin="round"/>
<path d="M73.1001 25.4487L75.5001 27.1762V33.7816" stroke="white" stroke-width="1.8025" stroke-linecap="round" stroke-linejoin="round"/>
<path d="M61.2999 25.4487L58.8999 27.1762V33.7816" stroke="white" stroke-width="1.8025" stroke-linecap="round" stroke-linejoin="round"/>
</svg>
