<svg width="70" height="76" viewBox="0 0 70 76" fill="none" xmlns="http://www.w3.org/2000/svg">
<g clip-path="url(#clip0)">
<path d="M28.0015 65.3913C27.1168 62.0046 26.6808 58.5211 26.7044 55.0261C26.7044 43.7148 30.9306 34.5461 36.1475 34.5461C41.3643 34.5461 45.612 43.7148 45.612 55.0261C45.612 66.3374 41.3358 75.513 36.1475 75.513C35.059 75.4911 34.0078 75.1222 33.1542 74.4626" stroke="black" stroke-width="1.41" stroke-linecap="round" stroke-linejoin="round"/>
<path d="M28.7 42.4348C30.1489 42.7045 31.5775 43.0694 32.9761 43.527" stroke="black" stroke-width="1.41" stroke-linecap="round" stroke-linejoin="round"/>
<path d="M54.3209 44.7861C52.8029 42.2261 48.7192 41.4956 43.5879 42.4348" stroke="black" stroke-width="1.41" stroke-linecap="round" stroke-linejoin="round"/>
<path d="M36.1475 65.3287C37.1832 64.8928 38.2237 64.4058 39.269 63.8678C39.8035 63.5965 40.3309 63.3044 40.8654 63.0052C42.389 62.1642 43.8598 61.235 45.2698 60.2226" stroke="black" stroke-width="1.41" stroke-linecap="round" stroke-linejoin="round"/>
<path d="M23.6612 67.9791C20.9744 67.8052 18.9433 66.9148 17.9598 65.2731C15.7718 61.5583 19.7058 55.1791 27.0109 49.8783" stroke="black" stroke-width="1.41" stroke-linecap="round" stroke-linejoin="round"/>
<path d="M53.9575 53.127C55.6422 53.127 57.0078 51.7939 57.0078 50.1496C57.0078 48.5052 55.6422 47.1722 53.9575 47.1722C52.2729 47.1722 50.9072 48.5052 50.9072 50.1496C50.9072 51.7939 52.2729 53.127 53.9575 53.127Z" stroke="black" stroke-width="1.41" stroke-linecap="round" stroke-linejoin="round"/>
<path d="M54.271 48.8696C54.3223 49.0031 54.3488 49.1444 54.3494 49.287C54.3494 49.6172 54.215 49.9339 53.9758 50.1675C53.7365 50.401 53.4121 50.5322 53.0737 50.5322C52.9277 50.5316 52.7829 50.5057 52.6461 50.4557C52.7022 50.6828 52.8192 50.8912 52.9852 51.0596C53.1512 51.2279 53.3601 51.35 53.5905 51.4133C53.8209 51.4767 54.0644 51.479 54.296 51.4199C54.5276 51.3609 54.7389 51.2427 54.9081 51.0775C55.0773 50.9123 55.1984 50.7061 55.2589 50.48C55.3194 50.254 55.3171 50.0163 55.2522 49.7914C55.1873 49.5665 55.0622 49.3625 54.8897 49.2005C54.7173 49.0385 54.5037 48.9243 54.271 48.8696Z" fill="black"/>
<path d="M22.7275 45.1965C24.4122 45.1965 25.7778 43.8635 25.7778 42.2191C25.7778 40.5748 24.4122 39.2417 22.7275 39.2417C21.0429 39.2417 19.6772 40.5748 19.6772 42.2191C19.6772 43.8635 21.0429 45.1965 22.7275 45.1965Z" stroke="black" stroke-width="1.41" stroke-linecap="round" stroke-linejoin="round"/>
<path d="M23.0412 40.9391C23.0924 41.0726 23.119 41.214 23.1196 41.3565C23.1196 41.6868 22.9852 42.0035 22.7459 42.237C22.5067 42.4706 22.1822 42.6017 21.8439 42.6017C21.6978 42.6012 21.553 42.5752 21.4163 42.5252C21.4723 42.7524 21.5893 42.9608 21.7553 43.1291C21.9213 43.2975 22.1302 43.4196 22.3606 43.4829C22.591 43.5463 22.8345 43.5485 23.0661 43.4895C23.2977 43.4305 23.509 43.3123 23.6782 43.1471C23.8475 42.9819 23.9686 42.7756 24.0291 42.5496C24.0895 42.3235 24.0872 42.0858 24.0223 41.8609C23.9574 41.6361 23.8323 41.4321 23.6599 41.2701C23.4874 41.1081 23.2739 40.9938 23.0412 40.9391Z" fill="black"/>
<path d="M29.7618 73.3843C31.4465 73.3843 32.8121 72.0513 32.8121 70.407C32.8121 68.7626 31.4465 67.4296 29.7618 67.4296C28.0772 67.4296 26.7115 68.7626 26.7115 70.407C26.7115 72.0513 28.0772 73.3843 29.7618 73.3843Z" stroke="black" stroke-width="1.41" stroke-linecap="round" stroke-linejoin="round"/>
<path d="M30.0754 69.127C30.1266 69.2605 30.1532 69.4018 30.1538 69.5444C30.1538 69.8746 30.0194 70.1913 29.7801 70.4249C29.5409 70.6584 29.2164 70.7896 28.8781 70.7896C28.732 70.789 28.5872 70.7631 28.4504 70.713C28.5065 70.9402 28.6235 71.1486 28.7895 71.317C28.9555 71.4853 29.1644 71.6074 29.3948 71.6707C29.6252 71.7341 29.8687 71.7363 30.1003 71.6773C30.3319 71.6183 30.5432 71.5001 30.7124 71.3349C30.8817 71.1697 31.0028 70.9634 31.0632 70.7374C31.1237 70.5113 31.1214 70.2736 31.0565 70.0488C30.9916 69.8239 30.8665 69.6199 30.6941 69.4579C30.5216 69.2959 30.3081 69.1817 30.0754 69.127Z" fill="black"/>
<path d="M30.0682 48.1948C32.1894 46.9948 34.3732 45.9035 36.6107 44.9252C38.0361 45.5444 39.4614 46.247 40.8868 47.0122C50.9214 52.6748 56.9436 60.8278 54.3423 65.2383C52.8243 67.7913 48.7406 68.5287 43.6093 67.5826C39.3207 66.7125 35.2097 65.1539 31.4437 62.9704C21.3806 57.3496 15.3655 49.1965 17.974 44.7861" stroke="black" stroke-width="1.41" stroke-miterlimit="10" stroke-linecap="round"/>
<path d="M16.0141 4.4174C16.0141 5.18788 15.78 5.94107 15.3415 6.5817C14.9029 7.22234 14.2796 7.72166 13.5503 8.01651C12.8211 8.31136 12.0186 8.38851 11.2444 8.23819C10.4702 8.08788 9.75909 7.71686 9.20093 7.17204C8.64278 6.62722 8.26267 5.93308 8.10867 5.1774C7.95468 4.42172 8.03371 3.63843 8.33578 2.92659C8.63786 2.21476 9.1494 1.60634 9.80572 1.17828C10.462 0.75022 11.2337 0.521744 12.023 0.521744C12.5471 0.521744 13.0661 0.622508 13.5503 0.818283C14.0345 1.01406 14.4745 1.30101 14.8451 1.66275C15.2157 2.0245 15.5097 2.45395 15.7103 2.92659C15.9108 3.39924 16.0141 3.90581 16.0141 4.4174Z" stroke="black" stroke-width="1.5" stroke-miterlimit="10" stroke-linecap="round"/>
<path d="M12.0231 11.687V18.3722" stroke="black" stroke-width="1.5" stroke-miterlimit="10" stroke-linecap="round"/>
<path d="M18.4159 28.9322V19.6035" stroke="black" stroke-width="1.5" stroke-miterlimit="10" stroke-linecap="round"/>
<path d="M5.63025 19.6035V28.9322" stroke="black" stroke-width="1.5" stroke-miterlimit="10" stroke-linecap="round"/>
<path d="M0.534546 28.9322V16.8765C0.534546 14.0104 2.10245 11.687 5.04585 11.687H19.0002" stroke="black" stroke-width="1.5" stroke-miterlimit="10" stroke-linecap="round"/>
<path d="M19.0002 11.687C21.9436 11.687 23.5115 14.0104 23.5115 16.8765V23.5478" stroke="black" stroke-width="1.5" stroke-miterlimit="10" stroke-linecap="round"/>
<path d="M38.9911 4.4174C38.9911 5.18788 38.7571 5.94107 38.3185 6.5817C37.88 7.22234 37.2567 7.72166 36.5274 8.01651C35.7981 8.31136 34.9956 8.38851 34.2215 8.23819C33.4473 8.08788 32.7361 7.71686 32.178 7.17204C31.6198 6.62722 31.2397 5.93308 31.0857 5.1774C30.9317 4.42172 31.0108 3.63843 31.3128 2.92659C31.6149 2.21476 32.1264 1.60634 32.7828 1.17828C33.4391 0.75022 34.2107 0.521744 35.0001 0.521744C36.0586 0.521744 37.0737 0.932177 37.8222 1.66275C38.5706 2.39333 38.9911 3.3842 38.9911 4.4174Z" stroke="black" stroke-width="1.5" stroke-miterlimit="10" stroke-linecap="round"/>
<path d="M35 11.687V18.3722" stroke="black" stroke-width="1.5" stroke-miterlimit="10" stroke-linecap="round"/>
<path d="M41.3928 28.9322V19.6035" stroke="black" stroke-width="1.5" stroke-miterlimit="10" stroke-linecap="round"/>
<path d="M28.6144 19.6035V28.9322" stroke="black" stroke-width="1.5" stroke-miterlimit="10" stroke-linecap="round"/>
<path d="M23.5187 23.5478V16.8765C23.5187 14.0104 25.0937 11.687 28.03 11.687H41.9772" stroke="black" stroke-width="1.5" stroke-miterlimit="10" stroke-linecap="round"/>
<path d="M41.9772 11.687C44.9206 11.687 46.4885 14.0104 46.4885 16.8765V23.5478" stroke="black" stroke-width="1.5" stroke-miterlimit="10" stroke-linecap="round"/>
<path d="M62.0037 4.4174C62.0037 5.18788 61.7696 5.94107 61.3311 6.5817C60.8925 7.22234 60.2692 7.72166 59.54 8.01651C58.8107 8.31136 58.0082 8.38851 57.234 8.23819C56.4599 8.08788 55.7487 7.71686 55.1906 7.17204C54.6324 6.62722 54.2523 5.93308 54.0983 5.1774C53.9443 4.42172 54.0233 3.63843 54.3254 2.92659C54.6275 2.21476 55.139 1.60634 55.7953 1.17828C56.4517 0.75022 57.2233 0.521744 58.0127 0.521744C59.0711 0.521744 60.0863 0.932177 60.8347 1.66275C61.5832 2.39333 62.0037 3.3842 62.0037 4.4174Z" stroke="black" stroke-width="1.5" stroke-miterlimit="10" stroke-linecap="round"/>
<path d="M57.9771 11.687V18.3722" stroke="black" stroke-width="1.5" stroke-miterlimit="10" stroke-linecap="round"/>
<path d="M64.3698 28.9322V19.6035" stroke="black" stroke-width="1.5" stroke-miterlimit="10" stroke-linecap="round"/>
<path d="M51.5913 19.6035V28.9322" stroke="black" stroke-width="1.5" stroke-miterlimit="10" stroke-linecap="round"/>
<path d="M46.4885 23.5478V16.8765C46.4885 14.0104 48.0636 11.687 50.9998 11.687H64.9613" stroke="black" stroke-width="1.5" stroke-miterlimit="10" stroke-linecap="round"/>
<path d="M64.9613 11.687C67.8976 11.687 69.4655 14.0104 69.4655 16.8765V28.9322" stroke="black" stroke-width="1.5" stroke-miterlimit="10" stroke-linecap="round"/>
<path d="M5.63025 28.9322H64.3698" stroke="black" stroke-width="1.5" stroke-miterlimit="10" stroke-linecap="round"/>
</g>
<defs>
<clipPath id="clip0">
<rect width="70" height="76" fill="black"/>
</clipPath>
</defs>
</svg>
