<svg width="55" height="68" viewBox="0 0 55 68" fill="none" xmlns="http://www.w3.org/2000/svg">
<g clip-path="url(#clip0)">
<path d="M40.6434 67.2093V53.9104C40.7461 50.6333 41.8373 47.465 43.7724 44.8258C45.0511 43.2077 46.0444 41.3812 46.709 39.4255C48.6082 33.5374 49.7292 21.9881 37.1212 15.2167C37.1212 15.2167 22.8985 7.83128 12.0224 17.8496C9.99765 19.6871 8.53266 22.0642 7.79738 24.7051C7.13334 27.2449 6.9629 29.8896 7.29541 32.4943C7.29541 32.856 7.40417 33.2177 7.46273 33.571C7.79416 35.5001 7.39414 37.4841 6.34165 39.1311L3.43854 43.337C3.31532 43.5662 3.25269 43.8235 3.25665 44.084C3.2606 44.3446 3.33102 44.5998 3.46115 44.8252C3.59128 45.0506 3.77677 45.2386 3.99987 45.3712C4.22296 45.5039 4.47619 45.5768 4.73532 45.5829C5.13628 45.6227 5.53017 45.716 5.9066 45.8605C5.98555 45.8913 6.0558 45.941 6.11121 46.0054C6.16663 46.0698 6.20552 46.1468 6.2245 46.2298C6.24348 46.3128 6.24197 46.3991 6.2201 46.4814C6.19823 46.5636 6.15666 46.6393 6.09903 46.7016C5.78111 47.0718 5.48829 47.6942 6.40021 48.1905C6.46512 48.2246 6.52237 48.2718 6.56843 48.3291C6.61448 48.3863 6.64836 48.4525 6.66796 48.5235C6.68757 48.5944 6.69248 48.6687 6.68241 48.7416C6.67233 48.8146 6.64747 48.8847 6.60937 48.9476C6.32492 49.4523 6.15759 50.2093 7.40417 50.5794C7.53347 50.615 7.64512 50.6974 7.7177 50.8108C7.79027 50.9241 7.81865 51.0604 7.79738 51.1935C7.4962 52.716 6.96075 57.1994 11.077 57.1321L14.4235 56.7956C15.5785 56.6724 16.7372 56.9921 17.6679 57.6908C18.5986 58.3895 19.2326 59.4157 19.4433 60.5641C19.7868 62.7589 19.9408 64.9794 19.9034 67.2009" stroke="white" stroke-width="1.88" stroke-miterlimit="10" stroke-linecap="round"/>
<path d="M39.3216 30.7699C39.7526 30.4023 40.0653 29.9143 40.22 29.3678C40.3747 28.8212 40.3644 28.2408 40.1906 27.7001C40.0167 27.1594 39.687 26.6828 39.2433 26.3308C38.7996 25.9788 38.262 25.7672 37.6985 25.7229C37.9142 25.2156 37.9798 24.6566 37.8875 24.1127C37.7951 23.5689 37.5488 23.0634 37.1779 22.6568C36.807 22.2501 36.3274 21.9597 35.7965 21.8202C35.2656 21.6807 34.706 21.6982 34.1847 21.8704C34.1964 21.31 34.044 20.7584 33.7465 20.2844C33.449 19.8103 33.0195 19.4346 32.5114 19.2039C32.0003 18.9774 31.4347 18.9053 30.8836 18.9964C30.3324 19.0875 29.8196 19.3379 29.4075 19.717C29.1849 19.2037 28.8182 18.7669 28.3523 18.4601C27.8864 18.1533 27.3416 17.9899 26.7847 17.9899C26.2278 17.9899 25.6829 18.1533 25.217 18.4601C24.7512 18.7669 24.3844 19.2037 24.1619 19.717C23.7525 19.3284 23.2379 19.0703 22.6829 18.9751C22.1279 18.88 21.5573 18.952 21.043 19.1823C20.5287 19.4125 20.0936 19.7906 19.7925 20.2689C19.4915 20.7473 19.3379 21.3045 19.3512 21.8704C18.8223 21.688 18.2517 21.6659 17.7103 21.8068C17.169 21.9478 16.6808 22.2456 16.3064 22.6632C15.932 23.0809 15.688 23.5999 15.6046 24.1559C15.5212 24.7118 15.6022 25.2802 15.8374 25.7902C15.2739 25.8345 14.7363 26.0461 14.2926 26.3981C13.8489 26.7501 13.5192 27.2267 13.3453 27.7674C13.1715 28.3081 13.1612 28.8885 13.3159 29.4351C13.4707 29.9816 13.7833 30.4696 14.2143 30.8372C13.7288 31.1133 13.3342 31.5261 13.0789 32.0247C12.8237 32.5233 12.7189 33.0861 12.7776 33.6438C12.8363 34.2015 13.0558 34.7298 13.4091 35.1637C13.7625 35.5976 14.2343 35.9182 14.7665 36.0861C14.4313 36.5359 14.2348 37.0748 14.2017 37.6359C14.1685 38.197 14.3 38.7555 14.5798 39.2421C14.8597 39.7287 15.2756 40.1219 15.7758 40.3728C16.276 40.6238 16.8386 40.7214 17.3935 40.6537C17.2689 41.2012 17.3068 41.7736 17.5028 42.2996C17.6987 42.8257 18.044 43.2823 18.4957 43.6129C18.9474 43.9434 19.4857 44.1333 20.0439 44.1591C20.602 44.1848 21.1553 44.0452 21.6352 43.7576C21.7523 44.3049 22.0262 44.8057 22.423 45.1984C22.8198 45.5911 23.3222 45.8585 23.8683 45.9676C24.4144 46.0767 24.9804 46.0228 25.4964 45.8124C26.0123 45.6021 26.4558 45.2445 26.7721 44.7838C27.0917 45.2457 27.5397 45.6025 28.06 45.8097C28.5804 46.0168 29.1499 46.065 29.6974 45.9483C30.2448 45.8316 30.7459 45.5551 31.1378 45.1534C31.5297 44.7518 31.7951 44.2428 31.9007 43.6903C32.3807 43.9806 32.9351 44.1223 33.4948 44.0979C34.0544 44.0735 34.5945 43.884 35.0478 43.553C35.501 43.222 35.8473 42.7642 36.0434 42.2366C36.2396 41.7091 36.2769 41.1351 36.1507 40.5864C36.705 40.6522 37.2664 40.5532 37.7652 40.3014C38.264 40.0497 38.6785 39.6564 38.9572 39.1703C39.236 38.6841 39.3667 38.1264 39.3333 37.5662C39.3 37.0061 39.1039 36.4681 38.7694 36.0188C39.3043 35.8541 39.7793 35.5349 40.1352 35.1009C40.4911 34.6669 40.7122 34.1373 40.7711 33.5779C40.8299 33.0185 40.7239 32.4541 40.4662 31.9548C40.2084 31.4556 39.8104 31.0435 39.3216 30.7699Z" stroke="white" stroke-width="1.88" stroke-linecap="round" stroke-linejoin="round"/>
<path d="M18.8241 35.4048C19.1731 35.4048 19.5186 35.3355 19.841 35.201C20.1633 35.0665 20.456 34.8693 20.7024 34.6208C20.9488 34.3723 21.1439 34.0774 21.2767 33.7529C21.4095 33.4284 21.4773 33.0807 21.4762 32.7299C21.4741 32.3277 21.3826 31.9311 21.2085 31.569C21.7671 31.703 22.3537 31.6529 22.8817 31.426C23.3113 31.2484 23.6925 30.9703 23.9937 30.6148C24.2949 30.2593 24.5074 29.8367 24.6136 29.382C24.7245 28.8544 24.6839 28.3059 24.4964 27.8006H24.6721H25.0403C25.6108 27.7334 26.1465 27.4894 26.573 27.1025C26.9995 26.7156 27.2958 26.2049 27.4208 25.6412C27.5458 25.0774 27.4934 24.4885 27.2707 23.9561C27.048 23.4237 26.6662 22.974 26.1781 22.6695C25.627 22.3729 25.1548 21.9476 24.801 21.4295C24.4472 20.9113 24.2223 20.3154 24.1451 19.6918" stroke="white" stroke-width="1.88" stroke-linecap="round" stroke-linejoin="round"/>
<path d="M24.6721 27.809C23.8959 27.4916 23.1934 27.0161 22.6089 26.4124C22.0243 25.8087 21.5703 25.09 21.2754 24.3014" stroke="white" stroke-width="1.88" stroke-linecap="round" stroke-linejoin="round"/>
<path d="M34.1847 21.8704C34.1847 21.8704 32.5114 27.4557 27.3912 25.7734" stroke="white" stroke-width="1.88" stroke-linecap="round" stroke-linejoin="round"/>
<path d="M39.3215 30.7699C38.3772 30.75 37.4567 31.0681 36.7242 31.6675C35.9916 32.2668 35.4948 33.1085 35.3224 34.0421C35.3224 34.0421 31.9759 32.2504 29.0226 34.0841C28.3833 34.4888 27.8336 35.0213 27.4079 35.6487C26.7886 36.4554 26.3748 37.4022 26.2028 38.4065C26.0307 39.4108 26.1055 40.4421 26.4207 41.4107" stroke="white" stroke-width="1.88" stroke-linecap="round" stroke-linejoin="round"/>
<path d="M37.7654 25.6052C37.7654 25.6052 31.1812 26.8164 31.3401 33.3018" stroke="white" stroke-width="1.88" stroke-linecap="round" stroke-linejoin="round"/>
<path d="M17.3934 40.5864C17.3934 40.5864 20.8822 36.2291 26.2617 38.0629" stroke="white" stroke-width="1.88" stroke-linecap="round" stroke-linejoin="round"/>
<path d="M31.9006 43.6903C31.4069 43.3119 31.0061 42.8248 30.729 42.2662C30.452 41.7077 30.3061 41.0927 30.3026 40.4686C30.2951 40.0352 30.4026 39.6076 30.6141 39.2298C30.8255 38.852 31.1333 38.5377 31.5057 38.3192C31.8781 38.1008 32.3016 37.986 32.7328 37.9868C33.1639 37.9875 33.5871 38.1038 33.9587 38.3236H34.0089" stroke="white" stroke-width="1.88" stroke-linecap="round" stroke-linejoin="round"/>
<path d="M24.0028 30.6017C25.0675 30.7371 26.0506 31.2458 26.779 32.0382C27.5075 32.8306 27.9346 33.8559 27.9852 34.9337" stroke="white" stroke-width="1.88" stroke-linecap="round" stroke-linejoin="round"/>
<path d="M21.2085 31.569C20.1771 31.0492 19.2608 30.3254 18.5145 29.4409" stroke="white" stroke-width="1.88" stroke-linecap="round" stroke-linejoin="round"/>
<path d="M27.4497 6.85553V0.79071" stroke="white" stroke-width="1.88" stroke-miterlimit="10" stroke-linecap="round"/>
<path d="M19.1922 8.31915L16.9751 2.18704" stroke="white" stroke-width="1.88" stroke-miterlimit="10" stroke-linecap="round"/>
<path d="M11.4617 12.0624L7.40405 7.192" stroke="white" stroke-width="1.88" stroke-miterlimit="10" stroke-linecap="round"/>
<path d="M6.52565 17.2356L0.786377 13.8961" stroke="white" stroke-width="1.88" stroke-miterlimit="10" stroke-linecap="round"/>
<path d="M49.2942 18.5141L54.2136 15.6626" stroke="white" stroke-width="1.88" stroke-miterlimit="10" stroke-linecap="round"/>
<path d="M43.9397 12.5923L47.8719 7.88174" stroke="white" stroke-width="1.88" stroke-miterlimit="10" stroke-linecap="round"/>
<path d="M35.7073 8.79022L37.9076 2.70016" stroke="white" stroke-width="1.88" stroke-miterlimit="10" stroke-linecap="round"/>
</g>
<defs>
<clipPath id="clip0">
<rect width="55" height="68" fill="white"/>
</clipPath>
</defs>
</svg>
